<?xml version="1.0" encoding="UTF-8"?>
<svg width="32px" height="32px" viewBox="0 0 32 32" version="1.1" xmlns="http://www.w3.org/2000/svg" xmlns:xlink="http://www.w3.org/1999/xlink">
    <!-- Generator: Sketch 63.1 (92452) - https://sketch.com -->
    <title>在线监控</title>
    <desc>Created with Sketch.</desc>
    <defs>
        <linearGradient x1="50%" y1="0%" x2="50%" y2="100%" id="linearGradient-1">
            <stop stop-color="#1C92D2" offset="0%"></stop>
            <stop stop-color="#F2FCFE" offset="100%"></stop>
        </linearGradient>
    </defs>
    <g id="在线监控" stroke="none" stroke-width="1" fill="none" fill-rule="evenodd">
        <path d="M22.8431518,26.1112269 L8.83774972,26.2374314 L8.10322334,28.3262962 L24.1268788,27.7153828 L22.8431518,26.1112269 Z M27.8314473,3.5 C28.0160605,3.5 28.1831977,3.57483369 28.3041828,3.69581617 C28.4251651,3.81679593 28.5,3.98392502 28.5,4.16852741 L28.5,4.16852741 L28.5,23.1572872 C28.5,23.3419054 28.4251708,23.5090425 28.30419,23.6300259 C28.1832093,23.7510092 28.0160771,23.8258399 27.8314726,23.8258399 L27.8314726,23.8258399 L4.16855266,23.8258399 C3.9839323,23.8258399 3.81679209,23.7510149 3.69580777,23.6300332 C3.57482616,23.5090542 3.5,23.3419221 3.5,23.1573124 L3.5,23.1573124 L3.5,4.16855266 C3.5,3.98393445 3.57482922,3.81679733 3.69580996,3.69581398 C3.81679069,3.57483064 3.98392287,3.5 4.16852741,3.5 L4.16852741,3.5 Z M21.7306583,9.08355538 L17.5502603,13.264003 L14.3023651,10.7305993 L9.86350347,15.1693602 L6.56714313,12.4359997 L5.68357358,14.3636539 L10.2060068,18.2241953 L14.7321589,13.6979926 L17.8939363,16.3175447 L22.1360688,12.0754374 L25.4444759,14.8209912 L26.3155746,12.920399 L23.1301764,9.7336285 L21.7306583,9.08355538 Z" id="形状" stroke="#32C5FF" fill="url(#linearGradient-1)"></path>
    </g>
</svg>