<?xml version="1.0" encoding="UTF-8"?>
<svg width="48px" height="48px" viewBox="0 0 48 48" version="1.1" xmlns="http://www.w3.org/2000/svg" xmlns:xlink="http://www.w3.org/1999/xlink">
    <!-- Generator: Sketch 63.1 (92452) - https://sketch.com -->
    <title>施工建设管理</title>
    <desc>Created with Sketch.</desc>
    <defs>
        <linearGradient x1="50%" y1="0%" x2="50%" y2="100%" id="linearGradient-1">
            <stop stop-color="#BECFFF" offset="0%"></stop>
            <stop stop-color="#E0E8FF" offset="72.9940878%"></stop>
            <stop stop-color="#BECFFF" offset="100%"></stop>
        </linearGradient>
    </defs>
    <g id="施工建设管理" stroke="none" stroke-width="1" fill="none" fill-rule="evenodd">
        <path d="M30.572151,9 C31.5495897,9 32.4206759,9.51401823 32.945442,10.3213325 L33.0457065,10.4866405 L39.6178822,22.1355762 C40.0934066,22.9773196 40.1251082,24.0098804 39.7129871,24.896646 L39.6178822,25.084313 L33.0457065,36.7090343 C32.5682448,37.5773602 31.7284652,38.1455908 30.766172,38.2332341 L30.572151,38.2443014 L17.4277996,38.2443014 C16.4501752,38.1986522 15.5576794,37.6818388 15.0502985,36.8541297 L14.9540461,36.6844901 L8.38187039,25.0112742 C7.9066539,24.1697155 7.8749728,23.137052 8.2868271,22.2700127 L8.38187039,22.0868836 L14.9540461,10.4866405 C15.4316315,9.64120115 16.2713609,9.07434295 17.233756,9.00678818 L17.4277996,9 L30.572151,9 Z M30.8265663,20.2736467 L27.8678666,22.0040139 L27.8678666,25.9032453 L24.5455562,27.852927 L24.5455562,31.3378098 L30.8265663,27.6334146 L30.8265663,20.2736467 Z M17.1754296,20.2713374 L17.1754296,27.6312373 L23.4567695,31.3354345 L23.4567036,27.8506177 L20.1341953,25.9008041 L20.1341953,22.0016387 L17.1754296,20.2713374 Z M25.8310266,21.4484701 L23.0661074,26.3225423 L23.9876372,26.8829686 L26.7766387,25.2502504 L26.7766387,21.9845501 L25.8310266,21.4484701 Z M23.9903423,20.3687885 L21.2254892,22.0016387 L21.2254892,25.2427947 L22.1470189,25.8034849 L24.9359544,20.9049345 L23.9903423,20.3687885 Z M23.9972701,15.6240352 L17.7163261,19.3037543 L20.6748278,21.0584678 L23.9972701,19.0845058 L27.3197124,21.0584678 L30.2784781,19.3037543 L23.9972701,15.6240352 Z" id="形状结合" fill="url(#linearGradient-1)" fill-rule="nonzero"></path>
    </g>
</svg>