<?xml version="1.0" encoding="UTF-8"?>
<svg width="32px" height="32px" viewBox="0 0 32 32" version="1.1" xmlns="http://www.w3.org/2000/svg" xmlns:xlink="http://www.w3.org/1999/xlink">
    <!-- Generator: Sketch 63.1 (92452) - https://sketch.com -->
    <title>环境管理</title>
    <desc>Created with Sketch.</desc>
    <defs>
        <linearGradient x1="50%" y1="0%" x2="50%" y2="100%" id="linearGradient-1">
            <stop stop-color="#1C92D2" offset="0%"></stop>
            <stop stop-color="#F2FCFE" offset="100%"></stop>
        </linearGradient>
    </defs>
    <g id="环境管理" stroke="none" stroke-width="1" fill="none" fill-rule="evenodd">
        <path d="M30.5569748,12.9062401 C28.5261519,12.9072495 26.5018891,13.1367344 24.5088641,13.5932663 C22.0584033,14.0839506 19.7202604,15.0250574 17.6008935,16.3763754 C16.2731792,17.1701989 15.2412269,18.3761332 14.6621449,19.8105825 C14.3205421,20.6707643 14.1678088,21.5910133 14.3662498,22.3334979 C15.7321161,20.4561776 17.5353486,18.9397965 19.6724064,17.8940682 C20.3342733,17.6583374 21.0196696,17.4947978 21.7509389,17.403138 C22.1057043,17.3827339 22.4539145,17.5049373 22.718123,17.7425687 C22.9788644,17.9770817 23.1364575,18.3048225 23.1570624,18.6545293 C23.1921768,19.0288285 23.0753352,19.3833076 22.8564504,19.6558265 C22.6349837,19.9315598 22.3090524,20.1233879 21.9303631,20.1669345 C21.0943543,20.2605364 20.3011877,20.5800738 19.6065391,21.1115056 C17.6538598,22.4037955 16.0726307,24.1837583 15.0070126,26.2982741 C14.7048691,26.8270919 14.5058282,27.4083925 14.883484,28.4939635 C15.1924843,28.4161397 15.3058672,27.7800221 15.4910425,27.311843 C15.5674002,27.1187876 15.6721954,26.9132528 15.7569207,26.7195563 C15.9137323,26.8475643 16.0754315,26.9696359 16.2417083,27.0854154 C16.5958436,27.3320019 16.9695438,27.5492124 17.3590711,27.7348788 C18.5159839,28.2148393 19.7796766,28.3794159 21.0211788,28.2117674 C23.6755747,27.9031444 25.8094653,26.7778406 27.1150609,24.3231251 C27.3769642,23.8425989 27.5951033,23.3450981 27.7694399,22.8317232 C28.1477184,21.4625655 28.4945888,20.0584643 28.8359563,18.6768974 C28.9099909,18.3772683 28.9837648,18.0786943 29.0575387,17.7817546 C29.3987225,16.3011359 29.8089791,14.8733761 30.5569748,12.9062401 Z M8.03571559,26.4566338 C7.80002529,26.4387453 7.57995713,26.5213645 7.41997359,26.6988008 C7.24709335,26.8905407 7.14536672,27.1759391 7.12369333,27.5344169 C7.14662867,27.7558551 7.25314576,27.9498385 7.40954565,28.0869017 C7.57551116,28.2323478 7.79764786,28.3136982 8.03568937,28.2956648 L12.1098259,28.2956648 C12.1656208,27.6690982 12.2959526,27.0517319 12.4978293,26.4566338 L8.03571559,26.4566338 Z M3.75745997,3.5 C8.47933597,3.5005784 12.2190591,3.5029435 15.1838584,3.50949597 L15.1838584,3.50949597 L13.2609056,17.3031448 C12.9908834,17.729502 12.7622185,18.1811901 12.5764069,18.6564253 C11.9984665,20.1869391 11.8786426,21.8525335 12.2325517,23.4547655 L12.2325517,23.4547655 L3.75567209,23.4547687 C3.41344163,23.4560343 3.10245637,23.3196935 2.87555467,23.097491 C2.64865285,22.8752883 2.50583447,22.5672238 2.50001282,22.2336554 L2.50001282,22.2336554 L2.50000918,4.76598852 C2.4987325,4.43112331 2.63067604,4.10949368 2.86676412,3.87200863 C3.10284852,3.63452728 3.42368859,3.50068854 3.75745997,3.5 Z M5.1969728,10.5100903 C4.99780984,10.7092532 4.87462499,10.9843943 4.87462499,11.2883067 L4.87462499,18.089502 C4.87462499,18.3934144 4.99780984,18.6685555 5.1969728,18.8677184 C5.39613576,19.0668814 5.67127682,19.1900662 5.97518925,19.1900662 C6.27910168,19.1900662 6.55424274,19.0668814 6.7534057,18.8677184 C6.95256866,18.6685555 7.07575351,18.3934144 7.07575351,18.089502 L7.07575351,11.2883067 C7.07575351,10.9843943 6.95256866,10.7092532 6.7534057,10.5100903 C6.58600729,10.3426919 6.43069497,10.0797442 5.1969728,10.5100903 Z M10.1817389,6.51143776 C9.99170241,6.51143776 9.80166592,6.56059956 9.63139144,6.65892314 C9.46111696,6.75724672 9.32354256,6.8972611 9.22854687,7.06185054 C9.13355119,7.22643999 9.08113423,7.41560449 9.08117465,7.61222831 L9.08117464,18.089502 C9.08113423,18.286023 9.13355119,18.4751875 9.22854687,18.639777 C9.32354256,18.8043664 9.46111696,18.9443808 9.63139144,19.0427044 C9.80166592,19.141028 9.99170241,19.1901897 10.1817389,19.1901897 C10.3717754,19.1901897 10.5618119,19.141028 10.7320864,19.0427044 C10.9023608,18.9443808 11.0399352,18.8043664 11.1349309,18.639777 C11.2299266,18.4751875 11.2823436,18.286023 11.2823032,18.0893992 L11.2823032,7.61212552 C11.2823436,7.41560449 11.2299266,7.22643999 11.1349309,7.06185054 C11.0541356,6.92186471 10.9852477,6.75723175 10.1817389,6.51143776 Z M15.4420556,3.5100818 C16.8172154,3.51328439 18.0218077,3.5174315 19.0774859,3.52277398 L19.0774859,3.52277398 L17.4857136,13.7624868 C17.0020041,14.032279 16.5754839,14.2745381 16.1502333,14.5479184 C15.9070252,14.7027655 15.6707555,14.8679373 15.4420556,15.0429381 L15.4420556,15.0429381 Z M19.6434056,3.52583546 C25.9926021,3.56252769 26.519632,3.64908412 26.7370433,3.84936596 L26.7602061,3.87209075 C26.9900126,4.1095808 27.1138574,4.43011434 27.1033021,4.76059425 L27.1033021,4.76059425 L27.1033021,10.9329694 C25.918366,11.0676351 24.7398646,11.2552838 23.5704743,11.4955511 C22.2289067,11.7747145 20.9148793,12.1708689 19.6434056,12.6792224 L19.6434056,12.6792224 Z" id="形状" stroke="#32C5FF" fill="url(#linearGradient-1)"></path>
    </g>
</svg>