<?xml version="1.0" encoding="UTF-8"?>
<svg width="32px" height="32px" viewBox="0 0 32 32" version="1.1" xmlns="http://www.w3.org/2000/svg" xmlns:xlink="http://www.w3.org/1999/xlink">
    <!-- Generator: Sketch 63.1 (92452) - https://sketch.com -->
    <title>合同管理</title>
    <desc>Created with Sketch.</desc>
    <defs>
        <linearGradient x1="50%" y1="0%" x2="50%" y2="100%" id="linearGradient-1">
            <stop stop-color="#1C92D2" offset="0%"></stop>
            <stop stop-color="#F2FCFE" offset="100%"></stop>
        </linearGradient>
    </defs>
    <g id="合同管理" stroke="none" stroke-width="1" fill="none" fill-rule="evenodd">
        <path d="M22.9600748,3.5 L23.4142499,12.2862578 C23.1491112,12.2466325 22.8673479,12.2196886 22.612943,12.2196886 C21.0005364,12.2196886 19.529858,12.882702 18.4626363,13.9499237 C17.3954146,15.0171455 16.7324011,16.4878238 16.7324011,18.1002305 C16.7324011,19.5991772 17.2621789,21.0286814 18.2012711,22.0686152 C17.2460631,22.3700764 16.8090665,22.413021 16.372111,22.575092 C16.0050875,22.6950541 15.6108446,22.8299944 15.1272731,23.4034488 C14.922753,23.6073781 14.4367573,24.0970675 14.0570589,25.6158608 C14.0421302,25.9116517 14.1227591,26.806547 14.282928,27.3937831 C14.1635811,27.8540767 14.1039069,28.2173456 14.0738316,28.4841878 L14.0738316,28.4841878 L3.95461227,28.5348801 L3.5,3.95461227 L5.079,3.917 L5.47892315,12.07361 C5.75738902,12.3046997 6.36294752,12.4006338 6.89933182,12.2368823 L9.85970914,11.0033917 L13.1223421,12.3084449 C13.471061,12.4819965 13.8512907,12.6365299 14.9553473,11.7493675 L14.9553473,3.88852694 L6.322,3.888 L22.9600748,3.5 Z M10.3765494,20.811199 L6.55810028,20.811199 C6.16138785,20.811199 5.79678461,20.9748847 5.53197916,21.2396902 C5.2671737,21.5044956 5.10348801,21.8690989 5.10348801,22.2658113 C5.10348801,22.6465147 5.25256713,22.9976885 5.51821183,23.2633332 C5.76203316,23.5071545 6.1080325,23.6811166 6.53331151,23.7204236 L10.3765494,23.7204236 C10.7732618,23.7204236 11.137865,23.5567379 11.4026705,23.2919324 C11.6674759,23.027127 11.8311616,22.6625237 11.8311616,22.2658113 C11.8311616,21.8690989 11.6674759,21.5044956 11.4026705,21.2396902 C11.137865,20.9748847 10.7732618,20.811199 10.3765494,20.811199 Z M13.500735,17.5134475 L6.55810028,17.5134475 C6.16138785,17.5134475 5.79678461,17.6771332 5.53197916,17.9419387 C5.2671737,18.2067441 5.10348801,18.5713474 5.10348801,18.9680598 C5.10348801,19.3487632 5.25256713,19.699937 5.51821183,19.9655817 C5.76203316,20.209403 6.1080325,20.3833652 6.53331151,20.4226721 L13.500735,20.4226721 C13.8974474,20.4226721 14.2620507,20.2589864 14.5268561,19.9941809 C14.7916616,19.7293755 14.9553473,19.3647722 14.9553473,18.9680598 C14.9553473,18.5713474 14.7916616,18.2067441 14.5268561,17.9419387 C14.2620507,17.6771332 13.8974474,17.5134475 13.500735,17.5134475 Z M14.6289131,14.302479 L6.55810028,14.302479 C6.16138785,14.302479 5.79678461,14.4661647 5.53197916,14.7309701 C5.2671737,14.9957756 5.10348801,15.3603788 5.10348801,15.7570913 C5.10348801,16.1377947 5.25256713,16.4889684 5.51821183,16.7546132 C5.76203316,16.9984345 6.1080325,17.1723966 6.53331151,17.2117035 L14.6289131,17.2117035 C15.0256256,17.2117035 15.3902288,17.0480178 15.6550342,16.7832124 C15.9198397,16.5184069 16.0835254,16.1538037 16.0835254,15.7570913 C16.0835254,15.3603788 15.9198397,14.9957756 15.6550342,14.7309701 C15.3902288,14.4661647 15.0256256,14.302479 14.6289131,14.302479 Z M24.1983347,15.2427145 C23.2169018,14.7142506 22.0089843,14.7142506 21.0275513,15.2427145 C20.5480276,15.5009196 20.1610321,15.8882586 19.8925641,16.3484894 C19.6188511,16.8177117 19.4680598,17.3627986 19.4680598,17.9266646 C19.4680598,18.8151936 19.8315703,19.6341843 20.4962379,20.2301526 C20.4962379,20.2301526 21.0791146,21.0298144 21.1887897,21.3634971 C21.2917417,21.775305 21.2917417,22.4959688 21.1780601,22.9446228 C21.0692233,23.2711333 20.5494002,23.8315762 20.2137479,24.0610942 C19.8341308,24.3442913 19.4548822,24.5361799 18.9526078,24.7361604 C18.8132669,24.7826074 18.5913236,24.8140155 18.302674,24.8469805 C18.0212076,24.8791252 17.6625066,24.9195004 16.7250025,25.4400378 C16.6661704,25.557702 16.6661704,26.263687 16.9189821,26.6254391 L28.4803,26.0034499 C28.5081945,25.780294 28.5348987,25.5080681 28.5008836,25.4400378 C28.3529933,25.1442573 28.1559071,25.0723585 27.9744247,25.0134656 C27.1681941,24.9227952 26.5443428,24.8265153 26.2456968,24.7260571 C25.7720551,24.5366004 25.3934355,24.3451412 25.0147022,24.0629266 C24.6791903,23.8344906 24.1569456,23.2719818 24.0478259,22.9446228 C23.9425964,22.6289341 23.9314495,21.7860843 24.0478259,21.326651 C24.1467715,21.0298144 24.7296481,20.2301526 24.7760947,20.1765992 C25.3760773,19.5766167 25.7578262,18.7533699 25.7578262,17.9266646 C25.7578262,17.3627986 25.607035,16.8177117 25.333322,16.3484894 C25.064854,15.8882586 24.6778585,15.5009196 24.1983347,15.2427145 Z" id="形状结合" stroke="#32C5FF" fill="url(#linearGradient-1)"></path>
    </g>
</svg>