<?xml version="1.0" encoding="UTF-8"?>
<svg width="32px" height="32px" viewBox="0 0 32 32" version="1.1" xmlns="http://www.w3.org/2000/svg" xmlns:xlink="http://www.w3.org/1999/xlink">
    <!-- Generator: Sketch 63.1 (92452) - https://sketch.com -->
    <title>现场服务备份</title>
    <desc>Created with Sketch.</desc>
    <defs>
        <linearGradient x1="50%" y1="0%" x2="50%" y2="100%" id="linearGradient-1">
            <stop stop-color="#4CD964" offset="0%"></stop>
            <stop stop-color="#F2FCFE" offset="100%"></stop>
        </linearGradient>
    </defs>
    <g id="现场服务备份" stroke="none" stroke-width="1" fill="none" fill-rule="evenodd">
        <path d="M9.90727151,13.9966644 C11.5803869,13.9966644 13.2901935,14.4736491 15,18.6931288 L15,18.6931288 L16.7538359,22.8318879 L20.8925951,23.191461 L20.0853903,21.0266845 C20.0853903,21.0266845 20.1440961,20.7404937 20.8925951,20.7404937 C21.6337558,20.7404937 22.2941961,22.8318879 22.6097398,23.5363576 C22.6097398,23.5363576 23.6737825,23.8225484 23.6737825,25.2314877 C23.6737825,26.6477652 22.7858572,27 21.6924616,27 L21.6924616,27 L14.2441628,27 C14.2441628,27 13.2828552,26.5963976 11.8885924,23.6244163 C10.4943296,20.652435 10.281521,20.1901268 10.281521,20.1901268 L10.281521,20.1901268 L9.07805203,20.9533022 L11.9252835,26.4936624 L4,26.4936624 C4,26.4936624 4.79252835,17.3795864 6.09873249,15.7358239 C7.3975984,14.0920614 9.10006671,13.9966644 9.90727151,13.9966644 Z M19.8138759,15.3102068 L27.4749833,18.5757171 C27.4749833,18.5757171 24.3929286,23.5877252 23.9966644,23.5363576 C23.6004003,23.48499 23.8939293,22.2374917 23.8939293,22.2374917 L23.8939293,22.2374917 L25.9926618,19.1040694 L20.2908606,16.4989993 L17.5610407,20.9899933 C16.6290861,19.6837892 17.8252168,18.0693796 18.4342895,17.430954 C19.0433622,16.7925284 19.8138759,15.3102068 19.8138759,15.3102068 L19.8138759,15.3102068 Z M13.6424283,5 C15.975984,5 17.8619079,6.96664443 17.8619079,9.39559706 C17.8619079,11.8245497 15.975984,13.7911941 13.6424283,13.7911941 C11.3088726,13.7911941 9.42294863,11.8245497 9.42294863,9.39559706 C9.42294863,6.96664443 11.3162108,5 13.6424283,5 Z" id="形状结合" fill="url(#linearGradient-1)" fill-rule="nonzero"></path>
    </g>
</svg>