<?xml version="1.0" encoding="UTF-8"?>
<svg width="48px" height="48px" viewBox="0 0 48 48" version="1.1" xmlns="http://www.w3.org/2000/svg" xmlns:xlink="http://www.w3.org/1999/xlink">
    <!-- Generator: Sketch 63.1 (92452) - https://sketch.com -->
    <title>运行维护备份</title>
    <desc>Created with Sketch.</desc>
    <defs>
        <linearGradient x1="50%" y1="0%" x2="50%" y2="100%" id="linearGradient-1">
            <stop stop-color="#4CD964" offset="0%"></stop>
            <stop stop-color="#F2FCFE" offset="100%"></stop>
        </linearGradient>
    </defs>
    <g id="运行维护备份" stroke="none" stroke-width="1" fill="none" fill-rule="evenodd">
        <path d="M20.9982511,18.9994791 C28.1767929,18.9994791 33.99858,17.2001688 33.99858,14.9998574 L33.99858,11.9996217 C33.99858,9.78268853 28.1747152,8 20.9982511,8 C13.821787,8 8,9.77853308 8,11.9996217 L8,14.9998574 C8,17.2001688 13.8176316,18.9994791 20.9982511,18.9994791 Z M20.9982511,28.9974945 C21.8584295,28.9974945 22.6978306,28.9808727 23.5206099,28.918541 L24.6218045,27.8215019 C24.3228139,26.1177979 24.5383764,24.3636404 25.2409667,22.7830174 C23.9195333,22.922225 22.4817472,23.0032563 21.0024066,23.0032563 C17.7237556,23.0032563 14.7235199,22.6438098 12.4421773,22.005948 C9.72035676,21.2766663 8,20.196249 8,18.9974014 L8,24.9957951 C8,27.1961065 13.8176316,28.9954168 20.9982511,28.9954168 L20.9982511,28.9974945 Z M18.3595396,34.058834 L19.4607342,32.9576394 C16.7804682,32.8807636 14.3599179,32.5379389 12.4421773,31.9977302 C9.72035676,31.2767595 8,30.1984199 8,28.9974945 L8,34.9979659 C8,37.056992 13.0592617,38.7586492 19.5770868,38.9747327 L18.3553842,37.7551078 C17.3372987,36.7370222 17.3372987,35.0748418 18.3595396,34.0567563 L18.3595396,34.058834 Z M39.9512637,25.5443146 C39.9221755,25.2949876 39.6042835,25.1994122 39.4255991,25.3780966 L36.2840781,28.5196176 C35.8233951,28.981073 35.1981111,29.240381 34.5460606,29.240381 C33.8940101,29.240381 33.2687262,28.981073 32.8080432,28.5196176 L31.0731424,26.7805614 C30.6123231,26.3199624 30.353419,25.6951239 30.353419,25.0435828 C30.353419,24.3920417 30.6123231,23.7672032 31.0731424,23.3066042 L34.210508,20.1671609 C34.3912701,19.9884765 34.2894615,19.6747399 34.0442899,19.6414963 C31.4623633,19.330741 28.931141,20.5288905 27.5347757,22.7227633 C26.4509829,24.4225992 26.1871159,26.5190455 26.8158827,28.4344309 L19.7807039,35.4675319 C19.5427466,35.7073201 19.5427466,36.0941553 19.7807039,36.3339435 L23.2567388,39.8099783 C23.4965269,40.0479357 23.8833622,40.0479357 24.1231504,39.8099783 L31.1583291,32.7747996 C33.3507078,33.4880176 35.7554538,33.0334168 37.5361863,31.5691094 C39.3169187,30.104802 40.2275142,27.8331768 39.9512637,25.5443146 Z" id="形状" fill="url(#linearGradient-1)" fill-rule="nonzero"></path>
    </g>
</svg>