<?xml version="1.0" encoding="UTF-8"?>
<svg width="32px" height="32px" viewBox="0 0 32 32" version="1.1" xmlns="http://www.w3.org/2000/svg" xmlns:xlink="http://www.w3.org/1999/xlink">
    <!-- Generator: Sketch 63.1 (92452) - https://sketch.com -->
    <title>组织架构备份 </title>
    <desc>Created with Sketch.</desc>
    <defs>
        <linearGradient x1="50%" y1="0%" x2="50%" y2="100%" id="linearGradient-1">
            <stop stop-color="#4CD964" offset="0%"></stop>
            <stop stop-color="#F2FCFE" offset="100%"></stop>
        </linearGradient>
    </defs>
    <g id="组织架构备份-" stroke="none" stroke-width="1" fill="none" fill-rule="evenodd">
        <path d="M24.800171,18.2000695 L22.0500908,18.2000695 L19.3000908,13.470031 C19.9600502,13.140078 20.4001122,12.3701165 20.4001122,11.6001015 L20.4001122,7.20006947 C20.4001122,5.98993908 19.4100128,5 18.2000695,5 L13.8000641,5 C12.5901208,5 11.6001283,5.98999252 11.6001283,7.20006947 L11.6001283,11.6000748 C11.6001283,12.3700898 12.0401101,13.0300224 12.7000428,13.4700043 L9.95004275,18.2000695 L7.20006947,18.2000695 C5.98993908,18.2000695 5,19.190062 5,20.4001122 L5,24.8001176 C5,26.0100609 5.98999252,27.0000534 7.20006947,27.0000534 L11.6000748,27.0000534 C12.8099914,27.0000534 13.8000107,26.0100609 13.8000107,24.8001176 L13.8000107,23.3700631 L18.200016,23.3700631 L18.200016,24.8001176 C18.200016,26.0100609 19.1900086,27.0000534 20.4000588,27.0000534 L24.8000641,27.0000534 C26.0100075,27.0000534 27,26.0100609 27,24.8001176 L27,20.4001122 C27,19.1900353 26.0100075,18.2000695 24.8000641,18.2000695 L24.800171,18.2000695 Z M13.8000641,21.7201379 L13.8000641,20.4000855 C13.8000641,19.3000641 12.9199936,18.3100716 11.8201058,18.2000428 L14.3500748,13.8000374 L17.5401368,13.8000374 L20.0701058,18.2000428 C18.9700844,18.3100449 18.0901742,19.1900353 18.0901742,20.4000855 L18.0901742,21.7201379 L13.8000908,21.7201379 L13.8000641,21.7201379 Z" id="形状" fill="url(#linearGradient-1)" fill-rule="nonzero"></path>
    </g>
</svg>