<?xml version="1.0" encoding="UTF-8"?>
<svg width="32px" height="32px" viewBox="0 0 32 32" version="1.1" xmlns="http://www.w3.org/2000/svg" xmlns:xlink="http://www.w3.org/1999/xlink">
    <!-- Generator: Sketch 63.1 (92452) - https://sketch.com -->
    <title>智能建造</title>
    <desc>Created with Sketch.</desc>
    <defs>
        <linearGradient x1="50%" y1="0%" x2="50%" y2="100%" id="linearGradient-1">
            <stop stop-color="#1C92D2" offset="0%"></stop>
            <stop stop-color="#F2FCFE" offset="100%"></stop>
        </linearGradient>
    </defs>
    <g id="智能建造" stroke="none" stroke-width="1" fill="none" fill-rule="evenodd">
        <path d="M25.1,22.8142857 C24.7736963,22.8142857 24.4809312,22.9448767 24.2501269,23.1526006 C24.0006831,23.3771 23.8218091,23.6900822 23.7428571,24.0382594 L23.7428571,24.7610667 C21.5835143,26.8032612 18.8020645,27.8285714 15.8142857,27.8285714 C12.6509775,27.8285714 9.66523344,26.5785055 7.37525699,24.4174716 L6.66116537,24.8141892 C9.41842324,27.0663254 12.6273845,28.5 16,28.5 C19.042278,28.5 22.0837971,27.4247371 24.9142857,25.1571429 C25.2405894,25.1571429 25.5333545,25.0265519 25.7641588,24.818828 C26.0125905,24.5952395 26.1910239,24.2838848 26.2704626,23.9374057 C26.2583361,23.6313032 26.1314976,23.3564615 25.9303752,23.1553391 C25.7187109,22.9436748 25.4253968,22.8142857 25.1,22.8142857 Z M12.9074326,23.7210849 C13.9330746,24.1227252 15.0346519,24.2293373 16.0620174,24.2324325 C17.3239253,24.390171 18.5921501,24.2710855 19.5855846,23.7068872 C19.5846655,22.8090601 19.5680251,21.8109504 19.3284012,20.9113289 C19.093067,20.856633 18.8727012,20.758428 18.6941257,20.6450319 C16.6533321,21.3512269 14.6238905,22.375628 12.9074326,23.7210849 Z M17.0972952,19.022314 C17.0572322,19.0108466 17.0170782,18.9993771 16.9769252,18.9879048 C16.6446409,18.8929665 16.3124132,18.7978507 15.9887546,18.688144 C14.7577356,18.1605644 13.527123,17.6322034 12.2961853,16.9509378 C11.9680096,17.112239 11.5146624,17.2428571 10.7673733,17.2051677 C10.0279152,18.2525654 9.4044149,19.1958354 8.79015516,20.249193 C9.40753617,21.1323826 10.1908832,21.9833447 11.605256,22.3318088 C13.2471582,21.0563333 15.1563015,20.0516054 17.0972952,19.022314 Z M21.5971393,19.9010356 C21.5388796,20.014568 21.4583281,20.1299455 21.3618598,20.2444315 C21.4847491,20.9867959 21.6011599,21.7292471 21.6600318,22.4716492 C22.0397006,22.1356217 22.3327113,21.7492765 22.4313349,21.315333 C22.5358945,20.8552705 22.379749,20.3628972 21.5971393,19.9010356 Z M13.0857143,4.36052963 C10.4541648,4.98994352 8.15912298,6.46235247 6.49566233,8.48226897 C4.73782613,10.6167844 3.68571429,13.3626856 3.68571429,16.3714286 C3.68571429,17.134103 3.82010089,17.7660352 3.5,20.0857143 C3.5,20.4111111 3.62938913,20.7044252 3.84105338,20.9160895 C4.05271765,21.1277537 4.34603174,21.2571429 4.67142856,21.2571429 C4.99773222,21.2571429 5.29049731,21.1265519 5.5213017,20.918828 C5.76957449,20.6953825 5.94793851,20.3842829 6.02745294,20.0380702 C6.01579301,19.7878797 5.91341065,19.5420688 5.75633775,19.340118 C5.59301365,19.1301298 5.36781805,18.9644856 4.74350019,18.5355535 C4.65170558,18.1683751 4.60197023,17.801363 4.5558903,17.4543292 C4.51092901,17.1157199 4.47244199,16.7984648 4.35714285,16.3714286 C4.35714285,13.6694227 5.31550735,11.158882 6.92396525,9.17397646 C8.46950885,7.2667099 10.6153134,5.84531504 13.0857143,5.20603862 L13.0857143,4.36052963 Z M18.4142857,3.5 C18.087982,3.5 17.7952169,3.63059094 17.5644126,3.83831489 C17.3159809,4.06190336 17.1375476,4.37325808 17.0581088,4.71973719 C17.0702353,5.02583969 17.1970739,5.30068135 17.3981962,5.50180374 C17.6098605,5.71346801 17.9031746,5.84285714 18.2285715,5.84285715 C18.6357143,5.84285715 18.9046047,5.70257421 19.6979312,5.31527059 C22.1247393,6.18892152 24.111901,7.6969299 25.4920316,9.61564815 C26.868903,11.5298352 27.6428571,13.8537762 27.6428571,16.3714286 C27.6428571,17.4126946 27.4885426,18.454077 27.1789273,19.49542 L27.8027858,19.8853316 C28.7293031,16.9422169 28.4585823,13.8789924 27.2481107,11.2462167 C25.9526525,8.42859516 23.5776969,6.10997667 19.600643,4.42126782 C19.5355144,4.16075339 19.3698702,3.93555779 19.159882,3.77223369 C18.945111,3.60518952 18.6807346,3.5 18.4142857,3.5 Z M8.18209765,13.8979294 C7.87846399,14.7224754 7.77142856,15.5472441 7.77142856,16.3714286 C7.77142856,16.8792386 7.83138618,17.3869319 7.95074759,17.894611 C8.36024256,17.2063592 8.81922656,16.53943 9.28446485,15.937582 C9.20696795,15.6947215 9.18571427,15.4300118 9.22843008,14.8331134 C8.84221817,14.5212835 8.5036171,14.2096649 8.18209765,13.8979294 Z M21.9656038,10.5874978 C20.8701331,10.7602009 19.6625258,11.0704503 18.7021071,11.6488757 C18.6588043,11.8911089 18.5669227,12.1215539 18.4559825,12.3122737 C18.9684092,13.1699985 19.4641273,14.0283129 19.8070955,14.8857332 C19.9566325,15.2595757 20.0768091,15.6038777 20.1906285,15.9303706 C20.3274317,16.322793 20.4537786,16.6880893 20.6170698,17.0486145 C20.9518486,17.1680944 21.3024513,17.4573257 21.6446118,17.9142857 L24.3391783,17.9142857 C24.3201057,17.5587893 24.3491975,17.2130927 24.3792214,16.8941346 C24.3968575,16.7067785 24.4142857,16.5308467 24.4142857,16.3714286 C24.4142857,14.1752543 23.5989954,12.1415999 21.9656038,10.5874978 Z M15.581925,13.2441353 C15.0080114,13.5510204 14.530271,13.8752601 13.9279069,14.3255497 L13.3161447,15.1542299 C14.3502588,15.8108755 15.5335637,16.3173758 16.7170967,16.8245685 C17.0783721,16.915724 17.3971612,17.0067321 17.715932,17.0978095 C17.9583452,17.1670704 18.2007472,17.236374 18.5704806,17.2222239 C18.430472,16.7253511 18.2709118,16.3148983 17.9500474,15.8142668 C17.703137,15.196991 17.3709144,14.5801803 17.070597,14.0205914 C16.9796039,13.8510417 16.8913556,13.6865401 16.5571429,13.5285714 C16.2033517,13.5285714 15.8509195,13.4048417 15.581925,13.2441353 Z M12.9047027,8.78300776 C11.2318828,9.45734573 9.97204811,10.5518447 8.9977236,12.0626192 C9.42918158,12.5616878 9.95000206,12.971146 10.4803596,13.3708059 C10.6827999,13.3047113 10.9198036,13.2746961 11.1648502,13.2714718 C11.4795671,13.2714483 11.697302,13.2886498 11.874609,13.3485718 L12.5568224,12.8028011 C13.4041815,12.2949734 13.9252146,11.959106 14.5830277,11.1651637 C14.6102343,10.9388401 14.6823978,10.7193064 14.7762049,10.5286253 C14.0835707,9.94665069 13.4883339,9.36498041 12.9047027,8.78300776 Z M16.1857143,8.14285715 C15.8468336,8.14285715 15.5497219,8.14039961 15.4714106,8.35716093 C15.7628588,8.64860912 16.0899485,8.97650289 16.7428571,9.37142856 C17.0127037,9.37142856 17.357105,9.44372063 17.987314,9.81043147 C18.6138359,9.51852244 19.2404681,9.28316085 19.8670762,9.10403798 C18.6406806,8.46591649 17.4141283,8.14285715 16.1857143,8.14285715 Z" id="形状" stroke="#32C5FF" fill="url(#linearGradient-1)"></path>
    </g>
</svg>