<?xml version="1.0" encoding="UTF-8"?>
<svg width="32px" height="32px" viewBox="0 0 32 32" version="1.1" xmlns="http://www.w3.org/2000/svg" xmlns:xlink="http://www.w3.org/1999/xlink">
    <!-- Generator: Sketch 63.1 (92452) - https://sketch.com -->
    <title>施工图阶段</title>
    <desc>Created with Sketch.</desc>
    <defs>
        <linearGradient x1="50%" y1="0%" x2="50%" y2="100%" id="linearGradient-1">
            <stop stop-color="#1C92D2" offset="0%"></stop>
            <stop stop-color="#F2FCFE" offset="100%"></stop>
        </linearGradient>
    </defs>
    <g id="施工图阶段" stroke="none" stroke-width="1" fill="none" fill-rule="evenodd">
        <path d="M6.375,3.5 C7.26244884,3.5 8.08350253,3.8049158 8.7394662,4.31484382 C9.50723863,4.91168888 10.0497195,5.78917599 10.2074416,6.79000179 L10.2074416,6.79000179 L25.25,7.00727407 L25.25,3.875 C25.25,3.759375 25.3179764,3.67268022 25.3887883,3.5917523 C26.6566442,3.5 27.5972156,3.90908232 28.2933161,4.57235694 C28.9902926,5.23646637 29.4427583,6.15570427 29.4949333,7.17631566 L29.4949333,7.17631566 L29.5,24.875 C29.5,26.135723 28.88916,27.2602727 27.9508994,27.9684579 C27.3580358,28.4138254 26.6458283,28.6924047 25.8744231,28.7420056 L25.8744231,28.7420056 L6.38669479,28.7499952 C5.30771466,28.6977188 4.36602937,28.2797534 3.67926263,27.6253724 C2.98743875,26.9661726 2.55590571,26.0680633 2.50506671,25.0736838 L2.50506671,25.0736838 L2.5,7.375 C2.5,6.309375 2.93647583,5.34094345 3.63870964,4.63870964 C4.34094345,3.93647583 5.309375,3.5 6.375,3.5 Z M6.375,21.75 C5.515625,21.75 4.73405655,22.1010242 4.16754036,22.6675404 C3.60102417,23.2340566 3.25,24.015625 3.25,24.875 C3.25,25.7249399 3.59161774,26.4988239 4.19653785,27.0667687 C4.75710858,27.593075 5.54921005,27.9452215 6.57177477,27.9938228 C7.38831346,27.9424338 8.12278849,27.5743605 8.65179274,27.0109057 C9.17746889,26.4509958 9.5,25.6987567 9.5,24.875 C9.5,24.015625 9.14897583,23.2340566 8.58245964,22.6675404 C8.01594345,22.1010242 7.234375,21.75 6.375,21.75 Z M20.659375,9.33664322 L17.61875,12.3772682 L14.578125,9.33664322 L10.8303932,13.084375 L13.8710182,16.125 L11.0375,18.9585182 L11.0375,22.728125 L14.7852318,22.728125 L17.6393555,19.8740013 L20.68125,22.9377799 L24.4277168,19.1643601 L21.3870827,16.1237259 L24.4058327,13.0831009 L20.659375,9.33664322 Z" id="形状结合" stroke="#32C5FF" fill="url(#linearGradient-1)"></path>
    </g>
</svg>