<?xml version="1.0" encoding="UTF-8"?>
<svg width="32px" height="32px" viewBox="0 0 32 32" version="1.1" xmlns="http://www.w3.org/2000/svg" xmlns:xlink="http://www.w3.org/1999/xlink">
    <!-- Generator: Sketch 63.1 (92452) - https://sketch.com -->
    <title>动态投资分析备份</title>
    <desc>Created with Sketch.</desc>
    <defs>
        <linearGradient x1="50%" y1="0%" x2="50%" y2="100%" id="linearGradient-1">
            <stop stop-color="#4CD964" offset="0%"></stop>
            <stop stop-color="#F2FCFE" offset="100%"></stop>
        </linearGradient>
    </defs>
    <g id="动态投资分析备份" stroke="none" stroke-width="1" fill="none" fill-rule="evenodd">
        <path d="M15.5124585,5.03720752 C16.1942333,4.93054764 16.9160055,5.05235807 17.5074831,5.4135472 C19.8649088,6.77043055 22.2265767,8.12125368 24.5852145,9.47631896 C25.4378875,9.9750751 25.9905796,10.9313779 25.9978518,11.9197998 C26.001488,14.6444749 25.9996699,17.369756 25.9984579,20.0950372 C25.9954278,20.9331656 25.6154519,21.7634158 24.9682204,22.2991393 C24.6985406,22.5318518 24.3737128,22.6839633 24.0700957,22.8663759 C21.8375105,24.1475065 19.6043193,25.4268191 17.3723401,26.7085557 C16.5202732,27.1685264 15.4373118,27.1606481 14.591911,26.689163 C12.3593258,25.4043962 10.1231045,24.1250837 7.88991328,22.841529 C7.62447563,22.6839633 7.34206936,22.5512445 7.10208463,22.3548933 C6.57726954,21.9446164 6.20456599,21.3440486 6.06760501,20.6925749 C5.98518601,20.2956304 6.0015486,19.8883836 6.00094258,19.485985 C6.00033656,17.0612908 6.0015486,14.6365966 6.00033656,12.2125085 C5.99791247,11.8076858 6.02457744,11.3961968 6.1609324,11.0119788 C6.38516055,10.3429305 6.87603841,9.7744818 7.48993873,9.43268537 C9.81221519,8.09822484 12.1363097,6.76740044 14.4579802,5.43293991 C14.7797779,5.2347707 15.140967,5.10205187 15.5124585,5.03720752 M16.4227036,10.1253686 C16.0039424,10.467165 16.1209046,11.2283287 16.6129945,11.4458906 C16.9638813,11.4931603 17.3177982,11.4658893 17.669897,11.4749796 C17.6262634,11.5555806 17.5838418,11.6410297 17.506271,11.6955717 C17.2796188,11.868894 17.09357,12.089486 16.8602515,12.25493 C15.0779407,13.7172612 12.7744509,14.592963 10.4564166,14.4875152 C10.0794709,14.455396 9.76130934,14.8226454 9.76494547,15.1832285 C9.7382805,15.5771428 10.0431096,15.9922679 10.4545986,16.0025703 C11.2297007,16.0474159 12.0084391,15.99348 12.7720268,15.8583371 C12.8695964,15.8334902 12.967772,15.8134914 13.0665535,15.7953108 C13.1495786,15.774706 13.2326036,15.7559193 13.3162346,15.7377387 C13.5980349,15.6625919 13.876805,15.5759308 14.1561812,15.4935118 C15.5748788,14.9959677 16.900249,14.232986 18.0383584,13.2506242 C18.248648,13.0912404 18.4340908,12.9039796 18.6116552,12.7106586 C18.6171094,13.052455 18.5662036,13.4039478 18.6504406,13.739078 C18.7207392,13.8833112 18.8304292,14.0093638 18.9795106,14.0748142 L18.9649661,14.1105695 C19.1613172,14.151173 19.3594864,14.1923825 19.5618978,14.1754139 C19.787338,14.0911768 19.9739928,13.9384592 20.1121658,13.7427141 C20.1697379,12.8500437 20.1151959,11.9537371 20.1418609,11.0604606 C20.1636777,10.8774419 20.1800403,10.6932112 20.1715559,10.5089805 C20.0515636,10.3229318 19.9230869,10.1290047 19.7176454,10.0296171 C19.5576556,9.92477527 19.3613045,9.95689444 19.1813159,9.95265228 C18.3498537,9.95507637 17.5189975,9.95265228 16.6881413,9.95386433 C16.5966319,10.0065882 16.4984564,10.0502218 16.4227036,10.1253686 M18.5565072,14.56448 C18.4983291,14.6056895 18.440151,14.646899 18.3825789,14.6875025 C18.3207646,14.7632552 18.2583444,14.838402 18.1959241,14.9135487 C18.1631989,15.0626301 18.1219894,15.2123176 18.1268376,15.3668532 C18.1341098,17.1697688 18.1207774,18.9726843 18.1335038,20.7755999 C18.1722892,20.860443 18.1831976,20.9519523 18.1904699,21.0446737 L18.2334975,21.0228569 C18.3898512,21.4052568 18.8637604,21.4282856 19.2170712,21.3949544 L19.2213134,21.3428365 C19.4067561,21.3258679 19.5031136,21.1476974 19.6267421,21.0319472 C19.7006768,20.8283238 19.6958286,20.6107619 19.6903744,20.3980482 C19.6891624,18.6145253 19.6903744,16.8316085 19.6897684,15.0480856 C19.6412867,14.9644546 19.5970471,14.8777934 19.5661399,14.7856781 C19.4728125,14.7038651 19.3710008,14.6329605 19.2691891,14.563874 C19.0352646,14.4856971 18.7886137,14.4766068 18.5565072,14.56448 M14.0713381,16.7443413 C14.0319467,17.0522005 14.0489153,17.3624838 14.0464912,17.672161 C14.0452791,18.6405843 14.0477032,19.6084015 14.0452791,20.5768247 C14.0440671,20.7053013 14.0561875,20.833778 14.0719441,20.9616487 C14.152545,21.0828531 14.2282978,21.217996 14.3640467,21.2864765 C14.5707003,21.4319218 14.8343198,21.3955604 15.0712745,21.3846521 C15.2906544,21.2870825 15.4664008,21.1101241 15.5639704,20.8913501 C15.5615463,19.5720401 15.5670005,18.2521241 15.5615463,16.9328141 C15.552456,16.626167 15.2803521,16.4176954 15.0161265,16.3177018 C14.867045,16.3170958 14.7185696,16.3177018 14.5700942,16.3207319 C14.3598046,16.4031509 14.1986027,16.5613226 14.0713381,16.7443413 M10.4188433,16.8231242 C10.2612775,16.8776661 10.1115901,16.9764477 10.0285651,17.1249231 C9.90493656,17.3236984 9.93099551,17.5667132 9.92675336,17.7903353 C9.93523767,18.7823934 9.91523894,19.7762696 9.93644971,20.7683276 C9.9691749,21.3713196 10.8036673,21.5882755 11.2145502,21.2143599 C11.3654497,21.0895193 11.4527169,20.8992284 11.4472627,20.7028773 C11.4527169,19.6726398 11.4460506,18.6417963 11.4502928,17.6109528 C11.4521108,17.4200559 11.4405964,17.2097662 11.3024234,17.0625029 C11.1012241,16.7964592 10.7254904,16.7249486 10.4188433,16.8231242 Z" id="形状" fill="url(#linearGradient-1)" fill-rule="nonzero"></path>
    </g>
</svg>