<?xml version="1.0" encoding="UTF-8"?>
<svg width="32px" height="32px" viewBox="0 0 32 32" version="1.1" xmlns="http://www.w3.org/2000/svg" xmlns:xlink="http://www.w3.org/1999/xlink">
    <!-- Generator: Sketch 63.1 (92452) - https://sketch.com -->
    <title>安全管理</title>
    <desc>Created with Sketch.</desc>
    <defs>
        <linearGradient x1="50%" y1="0%" x2="50%" y2="100%" id="linearGradient-1">
            <stop stop-color="#1C92D2" offset="0%"></stop>
            <stop stop-color="#F2FCFE" offset="100%"></stop>
        </linearGradient>
    </defs>
    <g id="安全管理" stroke="none" stroke-width="1" fill="none" fill-rule="evenodd">
        <path d="M16.3606085,2.62629797 C17.7712757,3.65381228 22.6432856,6.79395784 27.9822342,5.60982249 C28.179813,7.99050385 28.7847841,17.0899933 26.8898629,21.1072262 C24.9607432,25.1983848 17.9152085,28.7060209 16.3598943,29.4470691 C14.8046007,28.7057095 7.75904049,25.1955613 5.82993146,21.1071654 C3.93490139,17.0897017 4.54009485,7.98921884 4.73862161,5.60964015 C10.0781415,6.79384618 14.950181,3.65523367 16.3606085,2.62629797 Z M16.3450747,7.77893175 C15.856753,7.77893175 15.4150445,7.97663267 15.0953789,8.29629824 C14.7757133,8.61596381 14.5780124,9.0576724 14.5780124,9.54599407 L14.5780124,14.1468843 L10.0542735,14.1468843 C9.56595185,14.1468843 9.12424327,14.3445852 8.8045777,14.6642508 C8.48491213,14.9839163 8.28721121,15.4256249 8.28721121,15.9139466 C8.28721121,16.4022683 8.48491213,16.8439768 8.8045777,17.1636424 C9.12424327,17.483308 9.56595185,17.6810089 10.0542735,17.6810089 L14.5809798,17.6810089 L14.5809798,22.272997 C14.5809798,22.7613187 14.7786807,23.2030273 15.0983462,23.5226929 C15.4180118,23.8423584 15.8597204,24.0400593 16.3480421,24.0400593 C16.8363637,24.0400593 17.2780723,23.8423584 17.5977379,23.5226929 C17.9174035,23.2030273 18.1151044,22.7613187 18.1151044,22.272997 L18.1151044,17.6780415 L22.7842439,17.6780415 C23.2725655,17.6780415 23.7142741,17.4803406 24.0339397,17.1606751 C24.3536052,16.8410095 24.5513062,16.3993009 24.5513062,15.9109792 C24.5513062,15.4223917 24.3534626,14.9804301 24.0324599,14.6601757 C23.7129259,14.3413865 23.2710455,14.1430155 22.78041,14.140954 L18.112137,14.14095 L18.112137,9.54599407 C18.112137,9.0576724 17.9144361,8.61596381 17.5947705,8.29629824 C17.275105,7.97663267 16.8333964,7.77893175 16.3450747,7.77893175 Z" id="形状" stroke="#32C5FF" fill="url(#linearGradient-1)"></path>
    </g>
</svg>