<?xml version="1.0" encoding="UTF-8"?>
<svg width="32px" height="32px" viewBox="0 0 32 32" version="1.1" xmlns="http://www.w3.org/2000/svg" xmlns:xlink="http://www.w3.org/1999/xlink">
    <!-- Generator: Sketch 63.1 (92452) - https://sketch.com -->
    <title>联动计量签证</title>
    <desc>Created with Sketch.</desc>
    <defs>
        <linearGradient x1="50%" y1="0%" x2="50%" y2="100%" id="linearGradient-1">
            <stop stop-color="#BECFFF" offset="0%"></stop>
            <stop stop-color="#E0E8FF" offset="72.9940878%"></stop>
            <stop stop-color="#BECFFF" offset="100%"></stop>
        </linearGradient>
    </defs>
    <g id="联动计量签证" stroke="none" stroke-width="1" fill="none" fill-rule="evenodd">
        <path d="M16.067787,8 C9.40297452,8 4,13.4029745 4,20.067787 C4,21.4450232 4.23381337,22.7672001 4.65882575,24 L7.91675113,24 C7.32304165,22.7742683 7.0153738,21.4297366 7.01694676,20.067787 C7.01694676,15.0770029 11.0770029,11.0169468 16.067787,11.0169468 C18.9082424,11.0169468 21.4454946,12.3330898 23.1063238,14.3864992 L21.4907488,16.0020742 C20.2511608,14.3529356 18.2848658,13.2796568 16.067787,13.2796568 C12.3248875,13.2796568 9.27965682,16.3248875 9.27965682,20.067787 C9.27965682,21.533646 9.75180899,22.8890094 10.5448889,24 L12.5568152,24 C11.4744856,23.0326914 10.7881302,21.6305654 10.7881302,20.067787 C10.7881302,17.1564334 13.1564334,14.7881302 16.067787,14.7881302 C17.8692814,14.7881302 19.461475,15.6966083 20.4148302,17.0779928 L16.4535791,21.0392439 C16.3279805,21.0037787 16.1982838,20.9848884 16.067787,20.9830532 C15.2346802,20.9830532 14.5593136,21.6584198 14.5593136,22.4915266 C14.5593136,23.3246335 15.2346802,24 16.067787,24 C16.9008939,24 17.5762604,23.3246335 17.5762604,22.4915266 C17.5762604,22.3572725 17.5532562,22.2294294 17.5200698,22.1057346 L21.1128762,18.5129281 C21.268575,19.0165235 21.3476486,19.5406719 21.3474438,20.067787 C21.3474438,21.6305654 20.6610885,23.0323143 19.5787588,24 L21.5906852,24 C22.9826002,22.0601257 23.2452156,19.5289214 22.2811889,17.3446155 L23.9676621,15.6581422 C24.7234757,17.0048575 25.1198517,18.5234766 25.1186273,20.067787 C25.1201477,21.4297307 24.8124825,22.7742508 24.2188229,24 L27.4767483,24 C27.9133378,22.7349788 28.135998,21.406028 28.1355746,20.067787 C28.1355746,13.4029745 22.7325995,8 16.067787,8 L16.067787,8 Z" id="路径" fill="url(#linearGradient-1)" fill-rule="nonzero"></path>
    </g>
</svg>