<?xml version="1.0" encoding="UTF-8"?>
<svg width="32px" height="32px" viewBox="0 0 32 32" version="1.1" xmlns="http://www.w3.org/2000/svg" xmlns:xlink="http://www.w3.org/1999/xlink">
    <!-- Generator: Sketch 63.1 (92452) - https://sketch.com -->
    <title>风险管控</title>
    <desc>Created with Sketch.</desc>
    <defs>
        <linearGradient x1="50%" y1="0%" x2="50%" y2="100%" id="linearGradient-1">
            <stop stop-color="#BECFFF" offset="0%"></stop>
            <stop stop-color="#E0E8FF" offset="72.9940878%"></stop>
            <stop stop-color="#BECFFF" offset="100%"></stop>
        </linearGradient>
    </defs>
    <g id="风险管控" stroke="none" stroke-width="1" fill="none" fill-rule="evenodd">
        <path d="M24.7537778,7.70722222 L24.1047778,7.70722222 C18.6646667,7.70722222 16.3106667,5.50722222 16.3106667,5.50722222 L15.7423333,5 L15.174,5.50844445 C15.174,5.50844445 12.6574444,7.87711112 6.73088888,7.70844445 L6,7.70844445 L6,17.6084444 C6,20.2313333 6.9741111,23.9542222 15.4978889,26.9156667 L15.7423333,27 L15.9855556,26.9156667 C24.5105556,24.0385556 25.4834444,20.2313333 25.4834444,17.6084444 L25.4834444,7.70844445 L24.7537778,7.70844445 L24.7537778,7.70722222 Z M20.4503333,15.0527778 L14.4981111,22.3274444 C14.3612222,22.4948889 14.0935556,22.3421111 14.1705556,22.1392222 L15.9708889,17.3383333 C16.0099231,17.2321672 15.9947786,17.1136402 15.9303041,17.0206996 C15.8658296,16.927759 15.7601129,16.8720635 15.647,16.8714444 L11.302,16.8714444 C11.1694082,16.8717569 11.0483927,16.795982 10.9907702,16.6765654 C10.9331478,16.5571487 10.949136,16.4152651 11.0318889,16.3116667 L16.3424444,9.67377778 C16.4732222,9.51 16.7335555,9.64566667 16.6761111,9.8461111 L15.4758889,14.0493333 C15.4123333,14.2693333 15.5785556,14.4893333 15.8071111,14.4893333 L20.1826667,14.4893333 C20.4735556,14.4893333 20.6336667,14.8278889 20.4503333,15.0527778 L20.4503333,15.0527778 Z" id="形状" fill="url(#linearGradient-1)" fill-rule="nonzero"></path>
    </g>
</svg>