<?xml version="1.0" encoding="UTF-8"?>
<svg width="32px" height="32px" viewBox="0 0 32 32" version="1.1" xmlns="http://www.w3.org/2000/svg" xmlns:xlink="http://www.w3.org/1999/xlink">
    <!-- Generator: Sketch 63.1 (92452) - https://sketch.com -->
    <title>初步设计阶段备份</title>
    <desc>Created with Sketch.</desc>
    <defs>
        <linearGradient x1="50%" y1="0%" x2="50%" y2="100%" id="linearGradient-1">
            <stop stop-color="#64C41D" offset="0%"></stop>
            <stop stop-color="#F8FFF3" offset="100%"></stop>
        </linearGradient>
    </defs>
    <g id="初步设计阶段备份" stroke="none" stroke-width="1" fill="none" fill-rule="evenodd">
        <path d="M21.1989833,2.50016158 L5.76294803,2.50514905 C4.85461144,2.55454689 4.03878284,2.95701686 3.45001983,3.57685654 C2.86167039,4.19626082 2.5,5.03306878 2.5,5.9528116 L2.50514996,26.2369872 C2.55455195,27.1453328 2.9570228,27.9611703 3.57686531,28.5499402 C4.19627279,29.1382969 5.0330861,29.4999719 5.95283969,29.4999719 L26.2370685,29.4948219 C27.1453982,29.4454192 27.9612199,29.0429429 28.5499786,28.4230945 C29.1383298,27.8036752 29.5,26.9668457 29.5,26.047076 L29.49485,5.76290331 C29.4454483,4.85457637 29.0429805,4.03876209 28.4231431,3.45000981 C27.803734,2.86166444 26.9669172,2.5 26.0471603,2.5 L24.8499071,2.5 L24.8499071,4.15267603 L26.2044263,4.15766035 C26.6711307,4.19831498 27.0877532,4.41720083 27.3848026,4.74631617 C27.67335,5.06601171 27.8491043,5.48928476 27.8491043,5.9527835 L27.8423622,26.2034189 C27.8019126,26.6705153 27.5829639,27.0874903 27.2536461,27.3847342 C26.9339536,27.6732901 26.5106791,27.8490481 26.0471603,27.8490481 L5.79648143,27.842306 C5.32941322,27.8018556 4.91244077,27.5828973 4.61519916,27.2535481 C4.32667327,26.933856 4.15092382,26.5105821 4.15092382,26.0470479 L4.15766593,5.79644918 C4.1981153,5.32937811 4.41706454,4.91241019 4.74638434,4.6151699 C5.06607298,4.32662258 5.48933907,4.15086762 5.95283969,4.15086762 L19.5480875,4.15086762 L19.5480875,17.2902861 L21.1989833,18.5675875 L21.1989833,2.50016158 Z M12.2729151,20.4239832 L11.5256776,20.4239832 L16.0225575,24.9315867 L20.497968,20.4239832 L19.757682,20.4239832 L17.5711321,22.626296 L14.4699455,22.626296 L12.2729151,20.4239832 Z M12.4714967,6.92491239 L10.820601,6.92491239 L11.1941954,18.5675594 L12.4714967,17.290258 L12.4714967,6.92491239 Z M17.6781768,6.92491239 L14.3143211,6.92491239 L14.3143211,17.2902607 L15.591597,18.5675594 L16.4008754,18.5675594 L17.6781768,17.290258 L17.6781768,6.92491239 Z" id="形状结合" stroke="#6CFF00" fill="url(#linearGradient-1)"></path>
    </g>
</svg>