<?xml version="1.0" encoding="UTF-8"?>
<svg width="32px" height="32px" viewBox="0 0 32 32" version="1.1" xmlns="http://www.w3.org/2000/svg" xmlns:xlink="http://www.w3.org/1999/xlink">
    <!-- Generator: Sketch 63.1 (92452) - https://sketch.com -->
    <title>设计变更备份</title>
    <desc>Created with Sketch.</desc>
    <defs>
        <linearGradient x1="50%" y1="0%" x2="50%" y2="100%" id="linearGradient-1">
            <stop stop-color="#4CD964" offset="0%"></stop>
            <stop stop-color="#F2FCFE" offset="100%"></stop>
        </linearGradient>
    </defs>
    <g id="设计变更备份" stroke="none" stroke-width="1" fill="none" fill-rule="evenodd">
        <path d="M26.1894911,13.1052789 L26.1894911,6.15790474 C26.1894911,5.81053603 26.0736925,5.5789388 25.8421224,5.34736871 C25.6105252,5.11579861 25.3789551,5 25.0315864,5 L17.1579047,5 C16.810536,5 16.5789388,5.11579861 16.3473687,5.34736871 C16.1157986,5.5789388 16,5.92630751 16,6.15790474 L16,13.1052789 C16,13.4526476 16.1157986,13.6842177 16.3473687,13.9157878 C16.5789388,14.147385 16.810536,14.2631565 17.1579047,14.2631565 L25.0315864,14.2631565 C25.3789551,14.2631565 25.6105252,14.147385 25.8421224,13.9157878 C26.0736925,13.6842177 26.1894911,13.4526476 26.1894911,13.1052789 L26.1894911,13.1052789 Z M14.8420953,17.9684408 L6.96841363,17.9684408 C6.62104492,17.9684408 6.38947483,18.0842122 6.1578776,18.3158095 C5.92630751,18.5473796 5.81050889,18.7789497 5.81050889,19.1263184 L5.81050889,26.0736925 C5.81050889,26.6526584 6.27367621,27.2315972 6.96841363,27.2315972 L14.8420953,27.2315972 C15.4210612,27.2315972 16,26.7684299 16,26.0736925 L16,19.1263184 C16,18.4315809 15.5368327,17.9684408 14.8420953,17.9684408 Z M7.89472113,15.1894911 L10.7894694,11.4842068 L9.05262587,11.4842068 C9.05262587,9.39999457 10.5578993,7.66315104 12.4105143,7.66315104 L13.2210503,7.66315104 L13.2210503,5.11579861 L12.4105143,5.11579861 C9.28419596,5.11579861 6.85261501,8.01051975 6.85261501,11.4842068 L5,11.4842068 L7.89472113,15.1894911 L7.89472113,15.1894911 Z M27,20.7473904 L24.1052789,17.0421061 L21.2105306,20.7473904 L22.9473741,20.7473904 C22.9473741,22.8316027 21.4421007,24.5684462 19.5894857,24.5684462 L18.7789497,24.5684462 L18.7789497,27.1157986 L19.5894857,27.1157986 C22.715804,27.1157986 25.147385,24.2210775 25.147385,20.7473904 L27,20.7473904 Z" id="形状" fill="url(#linearGradient-1)" fill-rule="nonzero"></path>
    </g>
</svg>