<?xml version="1.0" encoding="UTF-8"?>
<svg width="32px" height="32px" viewBox="0 0 32 32" version="1.1" xmlns="http://www.w3.org/2000/svg" xmlns:xlink="http://www.w3.org/1999/xlink">
    <!-- Generator: Sketch 63.1 (92452) - https://sketch.com -->
    <title>设计质量备份 </title>
    <desc>Created with Sketch.</desc>
    <defs>
        <linearGradient x1="50%" y1="0%" x2="50%" y2="100%" id="linearGradient-1">
            <stop stop-color="#4CD964" offset="0%"></stop>
            <stop stop-color="#F2FCFE" offset="100%"></stop>
        </linearGradient>
    </defs>
    <g id="设计质量备份-" stroke="none" stroke-width="1" fill="none" fill-rule="evenodd">
        <path d="M15.8325125,5.04088056 C17.3102221,5.94926429 18.9013968,6.65857194 20.5647896,7.15041652 C22.1279212,7.60690627 23.6357206,7.81440161 25.0826548,7.77843575 C25.1572207,7.77657102 25.2293804,7.80489379 25.2827699,7.85698118 C25.3361595,7.90906856 25.3662318,7.98050706 25.3662318,8.05509621 L25.3662318,17.3979197 C25.3662318,21.0249383 22.2455019,24.2065335 16.004042,26.9427054 C15.8026053,27.0302302 15.571572,27.0168817 15.381556,26.9067395 C9.12626315,23.2907874 6,20.1230252 6,17.3979197 L6,8.05647951 C6,7.98164366 6.03025097,7.90998634 6.08394408,7.85785711 C6.13763718,7.80572789 6.21015812,7.77757397 6.2849603,7.77981905 C7.82734232,7.82408473 9.39324049,7.61382278 10.9840381,7.15041652 C12.6163348,6.67456054 14.1338174,5.97460959 15.5364859,5.04503047 C15.6260587,4.98652581 15.7413349,4.98490978 15.8325125,5.04088056 Z M21.2774054,11.62703 C20.9786378,11.62703 20.6928925,11.742742 20.4871411,11.9473773 L20.4871411,11.9473773 L15.3161929,17.1149769 L12.3813506,14.1808787 C12.1659254,13.9643373 11.8612049,13.8478812 11.5468106,13.8623917 C11.2632977,13.8720654 10.9954115,13.9866611 10.8000778,14.1808787 C10.3740643,14.6307043 10.3740643,15.3112097 10.8000778,15.7610353 L10.8000778,15.7610353 L14.5263007,19.4846537 C14.7294477,19.6937538 15.0159371,19.8124422 15.3161929,19.8124422 C15.6168208,19.8124422 15.9033102,19.6937538 16.1064573,19.4846537 L16.1064573,19.4846537 L22.0672977,13.5264177 C22.4933112,13.0769642 22.4933112,12.3968309 22.0672977,11.9473773 C21.8615462,11.742742 21.5758009,11.62703 21.2774054,11.62703 Z" id="形状结合" fill="url(#linearGradient-1)" fill-rule="nonzero"></path>
    </g>
</svg>