<?xml version="1.0" encoding="UTF-8"?>
<svg width="32px" height="32px" viewBox="0 0 32 32" version="1.1" xmlns="http://www.w3.org/2000/svg" xmlns:xlink="http://www.w3.org/1999/xlink">
    <!-- Generator: Sketch 63.1 (92452) - https://sketch.com -->
    <title>投资管理备份</title>
    <desc>Created with Sketch.</desc>
    <defs>
        <linearGradient x1="50%" y1="0%" x2="50%" y2="100%" id="linearGradient-1">
            <stop stop-color="#64C41D" offset="0%"></stop>
            <stop stop-color="#F8FFF3" offset="100%"></stop>
        </linearGradient>
    </defs>
    <g id="投资管理备份" stroke="none" stroke-width="1" fill="none" fill-rule="evenodd">
        <path d="M22.374,11.86 C24.6163126,11.86 26.6458319,12.7908297 28.1152815,14.2933275 C29.5891923,15.8003868 30.5,17.8823128 30.5,20.18 C30.5,22.4790964 29.5896278,24.5606679 28.1162431,26.0671892 C26.6467075,27.5697748 24.61678,28.5 22.374,28.5 C20.13122,28.5 18.1012924,27.5697748 16.6317569,26.0671892 C15.1583722,24.5606679 14.248,22.4790964 14.248,20.18 C14.248,17.881363 15.1582875,15.7994018 16.6319789,14.2925668 C18.1012036,12.7902991 20.1307517,11.86 22.374,11.86 Z M21.2833992,15.884 L18.3281095,15.884 L20.2621095,19.6 L19.15,19.6 L19.15,23.904 L21.404,23.904 L21.404,25.81 L23.788,25.81 L23.788,23.95 L26.064,23.95 L26.064,19.648 L25.0877538,19.648 L26.7957538,15.928 L23.8400262,15.928 L22.6604635,18.6861655 L21.2833992,15.884 Z M2.9407303,22.2601305 L3.38061346,25.1886683 C3.88560672,25.4590762 4.62386411,25.6984756 5.4794789,25.9072456 C7.6070975,26.4263845 10.4436369,26.74 12.386,26.74 C13.1470128,26.74 13.8883671,26.7230223 14.6004606,26.6926678 C13.9223154,25.8340223 13.3799568,24.871139 12.9945101,23.8377792 L12.0284306,23.8371755 C9.45856711,23.8200394 7.13151833,23.5615123 5.38468212,23.1529747 C4.34750583,22.9104074 3.5274148,22.599619 2.9407303,22.2601305 Z M1.5546871,14.349525 L1.99475051,17.2807319 C2.49984816,17.5511582 3.23825769,17.7905712 4.09407105,17.9993479 C6.22186972,18.518427 9.05865903,18.832 11.002,18.832 L11.9300457,18.832 C12.0447723,17.8274994 12.3014761,16.8443559 12.6871445,15.9073659 C12.1309265,15.9313572 11.573463,15.944 11.016,15.944 C8.36389879,15.9409612 5.94378997,15.6864127 4.12480666,15.2737999 C3.02895054,15.0252191 2.1655657,14.7027926 1.5546871,14.349525 Z M3.08923635,11.2604604 C2.63799243,11.4128337 2.2769616,11.5754047 2.0056197,11.7488522 C1.75580555,11.9085388 1.55599999,12.060455 1.83396582,12.6008818 C2.12376958,12.8182496 2.55549987,13.0147877 3.09975279,13.1975476 C3.37924584,13.2914013 3.68680174,13.3804646 3.59845179,13.10503 C3.3085755,12.6784641 3.12199729,12.1836693 3.08923635,11.2604604 Z M22.0615895,9.40942029 C22.6094326,9.36652709 23.1635914,9.36363042 23.72,9.40245637 L23.72,8.71355663 C23.2923973,8.96577498 22.7364871,9.20279679 22.0615895,9.40942029 Z M19.2504004,9.9979691 C17.7667031,10.207707 16.0517513,10.328 14.224,10.328 C11.5783756,10.328 9.14445068,10.0806746 7.31450544,9.67235776 C6.18925014,9.42127886 5.30773457,9.09159814 4.69400001,8.72899067 L4.69400001,11.2986917 C4.70967685,11.5978263 4.919658,11.843843 5.22477703,12.0682371 C5.66823914,12.3943731 6.31830483,12.6624864 7.12402213,12.8849878 C8.88254494,13.3706093 11.3531871,13.6189225 14.1386136,13.6241622 C15.4844693,11.9293971 17.2667432,10.687406 19.2504004,9.9979691 Z M14.204,3.5 C11.4798762,3.5 9.01231302,3.80048463 7.22617505,4.29071342 C6.36136719,4.52807119 5.66168579,4.80629865 5.18580016,5.12154671 C4.88887145,5.31824565 4.64799999,5.51418518 4.64799999,5.75999999 C4.64799999,6.00586387 4.88867657,6.20191294 5.18553452,6.39867736 C5.66112459,6.71390962 6.36038737,6.99211445 7.22476687,7.22944906 C9.0098567,7.71958514 11.4761855,8.02 14.2,8.02 C16.9241238,8.02 19.391687,7.71951537 21.1778249,7.22928657 C22.0426328,6.99192881 22.7423142,6.71370134 23.2181998,6.39845328 C23.5151285,6.20175433 23.756,6.0058148 23.756,5.75999999 C23.756,5.5141361 23.5153234,5.31808704 23.2184655,5.12132263 C22.7428754,4.80609037 22.0436126,4.52788554 21.1792331,4.29055093 C19.3941433,3.80041485 16.9278145,3.5 14.204,3.5 Z" id="形状" stroke="#6CFF00" fill="url(#linearGradient-1)"></path>
    </g>
</svg>