<?xml version="1.0" encoding="UTF-8"?>
<svg width="32px" height="32px" viewBox="0 0 32 32" version="1.1" xmlns="http://www.w3.org/2000/svg" xmlns:xlink="http://www.w3.org/1999/xlink">
    <!-- Generator: Sketch 63.1 (92452) - https://sketch.com -->
    <title>三维导览</title>
    <desc>Created with Sketch.</desc>
    <defs>
        <linearGradient x1="50%" y1="0%" x2="50%" y2="100%" id="linearGradient-1">
            <stop stop-color="#BECFFF" offset="0%"></stop>
            <stop stop-color="#E0E8FF" offset="72.9940878%"></stop>
            <stop stop-color="#BECFFF" offset="100%"></stop>
        </linearGradient>
    </defs>
    <g id="三维导览" stroke="none" stroke-width="1" fill="none" fill-rule="evenodd">
        <path d="M16,5 L27,9.97502181 L27,22.7864639 L16,27.7614857 L5,22.7864639 L5,9.97502181 L16,5 Z M6.61839711,11.7510906 L6.61839711,21.742266 L16,25.9851427 L16,15.9939673 L6.61839711,11.7510906 Z M24.5968187,17.4780007 C24.5924218,14.9752711 23.2559142,14.3755702 21.1017076,15.2980182 L21.1017076,15.2980182 L19.166596,16.1266858 L19.1792098,23.5345133 L21.1905522,22.6732145 C23.268528,21.7833977 24.6009223,19.9705846 24.5968187,17.4780007 Z M9.0136358,15.1658482 C9.63883834,14.8601022 10.332868,14.7860651 11.1829241,15.1142964 C12.5803066,15.6539449 13.5282563,16.7039013 13.5282563,17.9449832 C13.5282563,18.7264864 13.0884208,19.1235448 12.316515,19.1284806 L12.316515,19.1284806 L12.316515,19.1772903 C13.1372305,19.7191325 13.7627072,20.5664465 13.7629814,21.5138477 C13.7629814,22.8429515 12.6000499,23.1659728 11.2221364,22.6340022 C10.078948,22.1925215 9.30676804,21.4644896 8.79865387,20.6917612 L8.79865387,20.6917612 L9.4729403,20.0432507 C9.90290415,20.6295151 10.4304873,21.1557273 11.0853047,21.4085504 C11.8182725,21.6915368 12.316515,21.5223482 12.316515,20.8774025 C12.316515,20.164178 11.8964228,19.5620092 10.3229964,18.9546304 L10.3229964,18.9546304 L10.3229964,17.9186589 C11.6521002,18.431983 12.0820641,18.1385766 12.0820641,17.4936308 C12.0820641,16.9268353 11.7302505,16.4587561 11.1146454,16.2114172 C10.5966596,16.0213885 10.1765674,16.1033778 9.74660351,16.3282313 L9.74660351,16.3282313 Z M21.0177988,16.5160663 C22.3331921,15.9525614 23.1541817,16.282438 23.1572064,18.0944285 C23.1602144,19.8962732 22.3416926,20.988184 21.0262994,21.5514147 L21.0262994,21.5514147 L20.587835,21.7392497 L20.5793344,16.7039013 Z M16,6.7760688 L7.77282812,10.4971208 L16,14.2178985 L24.2271719,10.4971208 L16,6.7760688 Z" id="形状结合" fill="url(#linearGradient-1)" fill-rule="nonzero"></path>
    </g>
</svg>