<?xml version="1.0" encoding="UTF-8"?>
<svg width="32px" height="32px" viewBox="0 0 32 32" version="1.1" xmlns="http://www.w3.org/2000/svg" xmlns:xlink="http://www.w3.org/1999/xlink">
    <!-- Generator: Sketch 63.1 (92452) - https://sketch.com -->
    <title>综合展示备份</title>
    <desc>Created with Sketch.</desc>
    <defs>
        <linearGradient x1="50%" y1="0%" x2="50%" y2="100%" id="linearGradient-1">
            <stop stop-color="#64C41D" offset="0%"></stop>
            <stop stop-color="#F8FFF3" offset="100%"></stop>
        </linearGradient>
    </defs>
    <g id="综合展示备份" stroke="none" stroke-width="1" fill="none" fill-rule="evenodd">
        <path d="M28,7.5 L28.5,25 L22.6647682,25.5 L24.9245716,27.7598034 L24.2183216,29.1745716 L19.8352318,25.5 L11.8991432,25.5 L8.47457161,28.9245716 L7.05980339,28.2183216 L9.06960678,25.5 L4,25.5 L3.5,8 L28,7.5 Z M23.2296875,11.5101562 C22.8454125,11.5101562 22.461193,11.6567002 22.1683216,11.9495716 L18.2854358,15.8295939 L16.2669813,13.800502 L14.8066784,12.3401966 C14.5303467,12.0638649 14.169993,11.9211424 13.7811649,11.9343379 C13.4432556,11.9458054 13.0759861,12.0776757 12.7319294,12.3733694 L11.3077766,13.8069955 L7.07157705,18.0400662 C6.77857523,18.333068 6.63203125,18.7172875 6.63203125,19.1015625 C6.63203125,19.4858375 6.77857523,19.870057 7.07144661,20.1629284 L7.77769661,20.8691784 C8.07056799,21.1620498 8.45478752,21.3085937 8.8390625,21.3085937 C9.22333748,21.3085937 9.60755701,21.1620498 9.90042839,20.8691784 L13.7833142,16.9891561 L15.8017687,19.018248 L17.2183216,20.4348034 C17.511193,20.7276748 17.8954125,20.8742187 18.2796875,20.8742187 C18.6639625,20.8742187 19.048182,20.7276748 19.3410534,20.4348034 L24.9973034,14.7785534 C25.2901748,14.485682 25.4367188,14.1014625 25.4367187,13.7171875 C25.4367187,13.3329125 25.2901748,12.948693 24.9973034,12.6558216 L24.2910534,11.9495716 C23.998182,11.6567002 23.6139625,11.5101562 23.2296875,11.5101562 Z M23,2.5 L8.5,3 L9,4.5 L23.5,4 L23,2.5 Z" id="形状" stroke="#6CFF00" fill="url(#linearGradient-1)"></path>
    </g>
</svg>