<?xml version="1.0" encoding="UTF-8"?>
<svg width="32px" height="32px" viewBox="0 0 32 32" version="1.1" xmlns="http://www.w3.org/2000/svg" xmlns:xlink="http://www.w3.org/1999/xlink">
    <!-- Generator: Sketch 63.1 (92452) - https://sketch.com -->
    <title>进度监控备份</title>
    <desc>Created with Sketch.</desc>
    <defs>
        <linearGradient x1="50%" y1="0%" x2="50%" y2="100%" id="linearGradient-1">
            <stop stop-color="#4CD964" offset="0%"></stop>
            <stop stop-color="#F2FCFE" offset="100%"></stop>
        </linearGradient>
    </defs>
    <g id="进度监控备份" stroke="none" stroke-width="1" fill="none" fill-rule="evenodd">
        <path d="M8.83866848,8.47062798 L8.83866848,11.5529013 C8.83866848,11.8122663 9.05075275,12.0214703 9.31582412,12.0214703 L24.4405711,12.0214703 C24.7042295,12.0214703 24.9148736,11.8108262 24.9148736,11.5529013 L24.9148736,8.47062798 C24.9148736,8.21270307 24.7042295,8.00202977 24.4405711,8.00202977 L9.31441113,8.00202977 C9.0536059,7.99917864 8.83866848,8.20982275 8.83866848,8.47062798 L8.83866848,8.47062798 L8.83866848,8.47062798 Z M27.9971468,14.4001292 C27.9971468,14.1422043 27.7850626,13.9315602 27.5185239,13.9315602 L9.31438396,13.9315602 C9.05213857,13.9315602 8.83722832,14.1422043 8.83722832,14.4001292 L8.83722832,17.4824025 C8.83722832,17.7417675 9.04931259,17.9495313 9.31438396,17.9495313 L27.521377,17.9495313 C27.7850354,17.9495313 28,17.7403002 28,17.4824025 L28,14.4001292 L27.9971197,14.4001292 L27.9971468,14.4001292 Z M21.3081367,20.3296576 C21.3081367,20.0717327 21.0960524,19.8610886 20.832394,19.8610886 L9.31441113,19.8610886 C9.05216574,19.8610886 8.83725549,20.0717327 8.83725549,20.3296576 L8.83725549,23.4119309 C8.83725549,23.6712959 9.04933976,23.8804999 9.31441113,23.8804999 L20.832394,23.8804999 C21.0960524,23.8804999 21.3081367,23.6712959 21.3081367,23.4119309 L21.3081367,20.3296576 Z M7.58483062,26.2161985 L7.58483062,5.77953537 C7.58483062,5.34966052 7.23087678,5 6.79241531,5 C6.35395384,5 6,5.34963335 6,5.77953537 L6,26.2161985 C6,26.6503938 6.35536683,26.9971468 6.79241531,26.9971468 C7.22946379,26.9971468 7.58483062,26.6503938 7.58483062,26.2161985 L7.58483062,26.2161985 Z" id="形状" fill="url(#linearGradient-1)" fill-rule="nonzero"></path>
    </g>
</svg>