<?xml version="1.0" encoding="UTF-8"?>
<svg width="32px" height="32px" viewBox="0 0 32 32" version="1.1" xmlns="http://www.w3.org/2000/svg" xmlns:xlink="http://www.w3.org/1999/xlink">
    <!-- Generator: Sketch 63.1 (92452) - https://sketch.com -->
    <title>合同变更索赔</title>
    <desc>Created with Sketch.</desc>
    <defs>
        <linearGradient x1="50%" y1="0%" x2="50%" y2="100%" id="linearGradient-1">
            <stop stop-color="#BECFFF" offset="0%"></stop>
            <stop stop-color="#E0E8FF" offset="72.9940878%"></stop>
            <stop stop-color="#BECFFF" offset="100%"></stop>
        </linearGradient>
    </defs>
    <g id="合同变更索赔" stroke="none" stroke-width="1" fill="none" fill-rule="evenodd">
        <path d="M23.7026343,6 C25.1028427,6 26.2280101,7.12516744 26.2280101,8.5253758 L26.2280101,21.449174 C26.2280101,22.4993303 25.5779134,23.4494716 24.5777646,23.8245275 L16.1265069,27 L7.65024557,23.8245275 C6.67510046,23.4494716 6,22.4993303 6,21.449174 L6,8.5253758 C6,7.12516744 7.12516744,6 8.5253758,6 L23.7026343,6 Z M15.1013544,9.69898794 L10.7006995,9.69898794 L10.7006995,18.0002232 L11.8508707,18.0002232 L11.8508707,10.8741628 L13.9761869,10.8741628 L13.9761869,17.8251972 L15.0763506,17.8251972 L15.0763506,9.69898794 L15.1013544,9.69898794 Z M12.4259562,11.6492782 L12.4259562,15.7748921 C12.3759488,16.8500521 12.2259265,17.750186 11.9258818,18.4252865 C11.6258372,19.0503795 11.0507516,19.5754577 10.1756214,20.0005209 L10.8507218,21.0506772 C11.7258521,20.6006102 12.3509451,20.0005209 12.7510046,19.2004018 C13.1510641,18.3502753 13.3760976,17.2001042 13.4011013,15.7748921 L13.4011013,11.6492782 L12.4259562,11.6492782 Z M13.9261795,18.0752344 L13.1510641,18.825346 C13.8511683,19.550454 14.3762465,20.2505581 14.7513023,20.8756511 L15.6264325,20.0005209 C15.1763655,19.3754279 14.60128,18.7253312 13.9261795,18.0752344 Z M15.6014288,11.6492782 L21.6023218,11.6492782 L21.6023218,10.3990921 L19.251972,10.3990921 C19.1269534,9.97402888 18.9769311,9.57396935 18.8519125,9.22391724 L17.5267153,9.44895074 C17.6767376,9.7489954 17.8267599,10.04904 17.9517785,10.3990921 L15.6014288,10.3990921 L15.6014288,11.6492782 Z M15.401399,15.0997916 L21.8773627,15.0997916 L21.8773627,13.8246019 L20.5021581,13.8246019 C20.7271915,13.3495312 20.952225,12.824453 21.1522548,12.2493675 L19.9020687,11.7993005 C19.702039,12.4994047 19.4520018,13.1745051 19.2019646,13.8246019 L18.1268046,13.8246019 C17.9017711,13.0494865 17.6767376,12.3743861 17.4016967,11.8243042 L16.2015181,12.2993749 C16.4515553,12.7744456 16.6515851,13.2995237 16.8266111,13.8246019 L15.401399,13.8246019 L15.401399,15.0997916 Z M16.0764995,15.9249144 L16.0764995,20.9006549 L17.3266855,20.9006549 L17.3266855,20.3005656 L20.0020836,20.3005656 L20.0020836,20.9006549 L21.227266,20.9006549 L21.227266,15.9249144 L16.0764995,15.9249144 Z M17.3266855,19.0753832 L17.3266855,17.1751005 L20.0020836,17.1751005 L20.0020836,19.0753832 L17.3266855,19.0753832 Z" id="形状" fill="url(#linearGradient-1)" fill-rule="nonzero"></path>
    </g>
</svg>