<?xml version="1.0" encoding="UTF-8"?>
<svg width="32px" height="32px" viewBox="0 0 32 32" version="1.1" xmlns="http://www.w3.org/2000/svg" xmlns:xlink="http://www.w3.org/1999/xlink">
    <!-- Generator: Sketch 63.1 (92452) - https://sketch.com -->
    <title>试验检测备份</title>
    <desc>Created with Sketch.</desc>
    <defs>
        <linearGradient x1="50%" y1="0%" x2="50%" y2="100%" id="linearGradient-1">
            <stop stop-color="#4CD964" offset="0%"></stop>
            <stop stop-color="#F2FCFE" offset="100%"></stop>
        </linearGradient>
    </defs>
    <g id="试验检测备份" stroke="none" stroke-width="1" fill="none" fill-rule="evenodd">
        <path d="M7.20313915,7.32022415 C8.5873384,7.04539447 9.96196601,6.72438052 11.3247202,6.35771983 C12.5884655,6.01752462 13.8402185,5.63425082 15.0777888,5.20856916 C15.8711246,4.9336963 16.7333401,4.93042747 17.5287373,5.19927713 C18.7844335,5.62560388 20.0535346,6.01137849 21.3340668,6.35600107 C22.6824049,6.72028719 24.0420666,7.04128659 25.4109601,7.31850539 C26.1077553,7.45944353 26.608612,8.06479537 26.6099816,8.76843866 L26.6251013,14.8940912 L26.6251013,14.9666281 C26.6251013,19.527862 23.1910234,23.5401407 16.3201283,27 C9.44751446,23.8367876 6.01512845,19.8245357 6.01512845,14.9666281 L6.00000436,8.7777307 C5.99828999,8.07030076 6.501886,7.46014177 7.20313915,7.32022415 Z M14.5353596,13.1492298 L17.0117403,20.9788426 C17.1062211,21.2817604 17.3827538,21.4911617 17.6999416,21.4999753 C18.0161931,21.5085691 18.3032256,21.3143495 18.4142466,21.0166553 L20.050504,16.6599536 L23.2907114,16.6599536 C23.6221093,16.6599536 23.9283705,16.4825724 24.0940695,16.1941702 C24.259772,15.9057538 24.259772,15.55102 24.0940695,15.2626036 C23.9289963,14.9747023 23.6225792,14.797043 23.2907114,14.7968202 L19.2805005,14.7968202 C18.970775,14.7964711 18.6933836,14.9893211 18.5851019,15.281162 L17.809593,17.3457379 L15.2623941,9.29781604 C15.1647732,8.99206063 14.8817436,8.78364252 14.5607918,8.78116198 C14.2396741,8.7798588 13.9541036,8.98512715 13.8530128,9.28992049 L12.1094942,14.5819755 L9.33439872,14.5819755 C9.00300075,14.5819755 8.69673961,14.7597058 8.53104062,15.0477588 C8.36533807,15.3361753 8.36533807,15.6909091 8.53104062,15.9793255 C8.69602466,16.2673613 9.00245862,16.4451634 9.33439872,16.445458 L13.4504743,16.445458 L14.5353596,13.1468128 L14.5353596,13.1488807 L14.5353596,13.1492298 Z" id="形状" fill="url(#linearGradient-1)" fill-rule="nonzero"></path>
    </g>
</svg>