<?xml version="1.0" encoding="UTF-8"?>
<svg width="32px" height="32px" viewBox="0 0 32 32" version="1.1" xmlns="http://www.w3.org/2000/svg" xmlns:xlink="http://www.w3.org/1999/xlink">
    <!-- Generator: Sketch 63.1 (92452) - https://sketch.com -->
    <title>概算管理备份</title>
    <desc>Created with Sketch.</desc>
    <defs>
        <linearGradient x1="50%" y1="0%" x2="50%" y2="100%" id="linearGradient-1">
            <stop stop-color="#4CD964" offset="0%"></stop>
            <stop stop-color="#F2FCFE" offset="100%"></stop>
        </linearGradient>
    </defs>
    <g id="概算管理备份" stroke="none" stroke-width="1" fill="none" fill-rule="evenodd">
        <path d="M16.0000126,5 C9.9248576,5 5,9.9248576 5,15.9999874 C5,22.0751172 9.9248576,26.9999497 16.0000126,26.9999497 C22.0751172,26.9999497 27,22.0750921 27,15.9999874 C27,9.9248576 22.0751172,5 16.0000126,5 Z M23.5958745,16.0542256 L22.2553661,16.0542256 C22.1322233,16.0542256 22.0318978,15.9525668 22.0318978,15.8266818 L22.0318978,15.5982072 L22.0206526,15.5982072 C21.9022393,12.3053002 19.25609,9.67135193 16.0000377,9.67135193 C12.6684898,9.67135193 9.96807711,12.4268833 9.96807711,15.8266567 C9.96807711,19.2258011 12.6684898,21.9813576 16.0000377,21.9813576 C17.4378025,21.9813576 18.7499591,21.4590006 19.7852896,20.6009505 L18.1991497,19.0950106 L22.4788597,19.0950106 L22.4788597,23.3495385 L21.0544783,21.8959249 C19.691203,23.0812155 17.9317826,23.8053053 16.0000377,23.8053053 C11.6813598,23.8053053 8.18065713,20.2331571 8.18065713,15.8266566 C8.18065713,11.4198039 11.6813598,7.84737901 16.0000377,7.84737901 C20.1275739,7.84737901 23.4908698,11.1150285 23.7816076,15.2512689 C23.8034941,15.2862621 23.8193429,15.8266566 23.8193429,15.8266566 C23.8193429,15.9525667 23.7193192,16.0542256 23.5958745,16.0542256 Z M19.1305572,16.7010084 L19.1305572,18.0578939 L16.7985164,18.0578939 L16.7985164,20.1704915 L15.2563758,20.1704915 L15.2563758,18.0578939 L12.8707258,18.0578939 L12.8707258,16.7010084 L15.2563758,16.7010084 L15.2563758,15.4458321 L12.8707258,15.4458321 L12.8707258,14.0938271 L14.7567103,14.0938271 L12.8694176,11.8294834 L14.5086637,11.8294834 L15.98517,13.7853788 L17.5159397,11.8294834 L19.0869101,11.8294834 L17.2146109,14.0938271 L19.1305572,14.0938271 L19.1305572,15.4458321 L16.7984913,15.4458321 L16.7984913,16.7010084 L19.1305572,16.7010084 Z" id="形状" fill="url(#linearGradient-1)" fill-rule="nonzero"></path>
    </g>
</svg>