<?xml version="1.0" encoding="UTF-8"?>
<svg width="32px" height="32px" viewBox="0 0 32 32" version="1.1" xmlns="http://www.w3.org/2000/svg" xmlns:xlink="http://www.w3.org/1999/xlink">
    <!-- Generator: Sketch 63.1 (92452) - https://sketch.com -->
    <title>进度计划编制备份</title>
    <desc>Created with Sketch.</desc>
    <defs>
        <linearGradient x1="50%" y1="0%" x2="50%" y2="100%" id="linearGradient-1">
            <stop stop-color="#4CD964" offset="0%"></stop>
            <stop stop-color="#F2FCFE" offset="100%"></stop>
        </linearGradient>
    </defs>
    <g id="进度计划编制备份" stroke="none" stroke-width="1" fill="none" fill-rule="evenodd">
        <path d="M19.303732,7.05676648 L19.303732,7.70581844 C19.303732,8.95168755 20.3237204,10.2638046 21.5816287,10.2638046 C22.8394285,10.2638046 23.8594169,8.95168755 23.8594169,7.70581844 L23.8594169,7.70581844 L23.8594169,7.05676648 L25.1937901,7.05676648 C26.0326053,7.05676648 26.712612,7.62714087 26.712612,8.45788659 L26.712612,8.45788659 L26.712612,25.4959938 C26.712612,26.3267396 26.0325186,27 25.1937033,27 L25.1937033,27 L7.51890869,27 C6.67976809,27 6,26.3267396 6,25.4959938 L6,25.4959938 L6,8.56079433 C6,7.73004861 6.68039716,7.05676648 7.51890869,7.05676648 L7.51890869,7.05676648 L9.24647453,7.09149568 L9.24647453,7.80965894 C9.24647453,9.05489898 10.2662243,10.2638046 11.5241326,10.2638046 C12.7820408,10.2638046 13.8019424,8.95168755 13.8019424,7.70581844 L13.8019424,7.70581844 L13.8019424,7.05676648 L19.303732,7.05676648 Z M25.3950069,11.4476341 L7.36406985,11.4476341 L7.36406985,25.6866031 L25.3950069,25.6866031 L25.3950069,11.4476341 Z M21.7516954,21.2246502 C22.1346276,21.2246502 22.4463661,21.520293 22.4463661,21.8845483 L22.4463661,21.8845483 L22.4463661,23.7077333 C22.4463661,24.0719017 22.1346276,24.3675445 21.7516304,24.3675445 L21.7516304,24.3675445 L11.2188367,24.3675445 C10.8359262,24.3675445 10.5249904,24.0719017 10.5249904,23.7077333 L10.5249904,23.7077333 L10.5249904,21.8845483 C10.5249904,21.5203147 10.8359262,21.2246502 11.2188367,21.2246502 L11.2188367,21.2246502 Z M21.5788521,22.0496692 L17.1666611,22.0496692 L17.1666611,23.5425906 L21.5788521,23.5425906 L21.5788521,22.0496692 Z M21.7516954,17.1351305 C22.1346276,17.1351305 22.4463661,17.430795 22.4463661,17.7949201 L22.4463661,17.7949201 L22.4463661,19.6182786 C22.4463661,19.9823386 22.1346276,20.2788057 21.7516304,20.2788057 L21.7516304,20.2788057 L11.2188367,20.2788057 C10.8359262,20.2788057 10.5249904,19.9823386 10.5249904,19.6182786 L10.5249904,19.6182786 L10.5249904,17.7949201 C10.5249904,17.430795 10.8359262,17.1351305 11.2188367,17.1351305 L11.2188367,17.1351305 Z M21.5788521,17.9601495 L15.2352321,17.9601495 L15.2352321,19.4537868 L21.5788521,19.4537868 L21.5788521,17.9601495 Z M21.7516954,13.04637 C22.1346276,13.04637 22.4463661,13.3420779 22.4463661,13.7061813 L22.4463661,13.7061813 L22.4463661,15.529388 C22.4463661,15.8935781 22.1346276,16.1892426 21.7516304,16.1892426 L21.7516304,16.1892426 L11.2188367,16.1892426 C10.8359262,16.1892426 10.5249904,15.8935781 10.5249904,15.529388 L10.5249904,15.529388 L10.5249904,13.7061813 C10.5249904,13.3420779 10.8359262,13.04637 11.2188367,13.04637 L11.2188367,13.04637 Z M21.5789605,13.871389 L18.6841598,13.871389 L18.6841598,15.3643321 L21.5789605,15.3643321 L21.5789605,13.871389 Z M11.500423,5 C12.3258107,5 12.994993,5.6628048 12.994993,6.48053521 L12.994993,6.48053521 L12.994993,7.73529812 C12.994993,8.55302853 12.3259192,9.21578994 11.500423,9.21578994 C10.6749485,9.21578994 10.005636,8.55177038 10.005636,7.73401828 L10.005636,7.73401828 L10.005636,6.48053521 C10.005636,5.6628048 10.6749485,5 11.500423,5 Z M21.5578107,5 C22.3831984,5 23.0524892,5.6628048 23.0524892,6.48053521 L23.0524892,6.48053521 L23.0524892,7.73529812 C23.0524892,8.55302853 22.3832201,9.21578994 21.5578107,9.21578994 C20.7323145,9.21578994 20.0630454,8.55177038 20.0630454,7.73401828 L20.0630454,7.73401828 L20.0630454,6.48053521 C20.0630454,5.6628048 20.7323145,5 21.5578107,5 Z" id="形状结合" fill="url(#linearGradient-1)" fill-rule="nonzero"></path>
    </g>
</svg>