<?xml version="1.0" encoding="UTF-8"?>
<svg width="32px" height="32px" viewBox="0 0 32 32" version="1.1" xmlns="http://www.w3.org/2000/svg" xmlns:xlink="http://www.w3.org/1999/xlink">
    <!-- Generator: Sketch 63.1 (92452) - https://sketch.com -->
    <title>施工安全备份</title>
    <desc>Created with Sketch.</desc>
    <defs>
        <linearGradient x1="50%" y1="0%" x2="50%" y2="100%" id="linearGradient-1">
            <stop stop-color="#4CD964" offset="0%"></stop>
            <stop stop-color="#F2FCFE" offset="100%"></stop>
        </linearGradient>
    </defs>
    <g id="施工安全备份" stroke="none" stroke-width="1" fill="none" fill-rule="evenodd">
        <path d="M18.9857697,12.8360297 C19.1303006,12.9205354 19.0731871,13.0895898 19.0592322,13.2163698 C18.9684932,14.0404616 18.8921189,14.8712612 18.2197836,15.4845202 C18.1482622,15.5498298 18.1232643,15.6732452 18.0877193,15.7731292 C18.0338047,15.9234457 17.9740681,16.0687608 17.908675,16.2091637 C19.5262302,15.8404983 20.851145,14.6742475 20.8749819,14.6532245 C21.0459775,14.4995485 21.2615769,14.4226997 21.47819,14.4226997 C21.69476,14.4226997 21.9113299,14.4995269 22.0832961,14.6551226 C22.1015431,14.6719245 23.9849966,16.319612 25.9856536,16.319612 C26.4841463,16.319612 26.8865942,16.7210892 26.8865942,17.2176623 L26.8865942,17.2176623 L26.8865942,19.9343311 C26.8865942,22.3936005 25.4237493,24.4595887 21.992967,26.8386663 C21.8419321,26.943865 21.6622505,27.0001778 21.47819,26.9999996 C21.294268,26.9999996 21.1147393,26.9437926 20.9638228,26.8386663 C19.4403031,25.7818981 18.3046652,24.7868972 17.5129242,23.7917598 L6.95204121,23.7911142 C6.15292585,23.7911142 5.91377359,23.5529325 6.02614581,22.7605465 C6.16157484,21.8068061 6.33060769,20.8559559 6.53039732,19.9137115 C6.61779315,19.5007166 6.87232379,19.1712783 7.32086369,19.0348787 C8.53489356,18.6660562 9.74797442,18.2934161 10.9552749,17.9015153 C11.2165349,17.8170096 11.3769188,17.8496645 11.5373242,18.0725109 C12.6068589,19.5488527 14.5694599,19.9136789 16.0711549,19.150108 L16.0708563,18.2809443 C15.9346891,18.3680076 15.7933965,18.4502444 15.6471713,18.5277586 C14.7779366,18.9882906 13.899341,18.9153242 13.0675924,18.399059 C12.0211503,17.7493059 11.2280526,16.8839103 10.8248929,15.697251 C10.7960773,15.6132199 10.7643715,15.5157084 10.7021893,15.4590477 C10.0562971,14.86932 9.98906785,14.068285 9.87956424,13.2999049 C9.92518176,13.1236681 9.79503703,12.9190687 9.99482666,12.82352 C10.162436,12.742832 10.2750455,12.8941139 10.3900491,12.9916038 C10.5540564,13.129923 10.7485618,13.1419151 10.9519318,13.1414406 C13.2829977,13.1390465 15.6135675,13.1376014 17.9446334,13.1428857 C18.1866543,13.1433602 18.4027497,13.103976 18.5741983,12.9272648 C18.695694,12.8024043 18.8392975,12.7505319 18.9857697,12.8360297 Z M22.1068274,18.1959046 L20.8500702,18.1959046 L20.8500702,19.4526618 L19.5918464,19.4526618 L19.5918464,20.7108857 L20.8500702,20.7108857 L20.8500702,21.9691096 L22.1068274,21.9691096 L22.1068274,20.7108857 L23.3645768,20.7108857 L23.3645768,19.4526618 L22.1068274,19.4526618 L22.1068274,18.1959046 Z M16.0949995,5.28286891 C16.4952905,5.42213714 16.6535175,5.64929727 16.6369528,6.06276668 C16.5891784,7.23070453 16.3524203,8.37269539 16.2009011,9.52622544 C16.1855227,9.64340746 16.1720855,9.76153849 16.1874423,9.88447932 C16.5954118,8.8572548 16.8516248,7.79064607 17.0585967,6.71109621 C17.1565827,6.20253099 17.1541886,6.19724669 17.5455718,6.53052417 C18.6030139,7.43096867 19.2518395,8.56288701 19.4439507,9.94308111 C19.4727663,10.1481335 19.5476739,10.3018095 19.666754,10.474207 C20.0206942,10.9880566 19.9212846,11.5869078 19.8914984,12.1636728 C19.8847906,12.2981313 19.7455224,12.2971822 19.6359972,12.2976568 C19.359898,12.2981313 19.0837556,12.301992 18.8080878,12.2971822 C18.5919708,12.2938175 18.387889,12.2808548 18.2471757,12.5084895 C18.1697877,12.6336303 18.0267643,12.6327931 17.8910302,12.63 L17.8241083,12.6290146 C15.5705814,12.6294891 13.3166015,12.6294891 11.0628589,12.6280656 C10.9716239,12.6275911 10.8383517,12.6515969 10.7956028,12.6016441 C10.3845275,12.1290984 9.8389722,12.3231077 9.34410302,12.3063057 C9.06819793,12.2971822 8.95392766,12.2193844 8.97264918,11.9346147 C9.01058829,11.3641045 8.87539652,10.7604435 9.36524022,10.2907664 C9.4365459,10.2225666 9.42479103,10.0616867 9.4423047,9.94211053 C9.66801975,8.40632079 10.4268019,7.19899874 11.7248629,6.2371054 C11.993068,7.49867239 12.2322418,8.72135126 12.7338404,9.87535582 C12.6000937,8.93746829 12.4665843,8.00005528 12.3333337,7.06214619 C12.3184514,6.95602884 12.3040436,6.84939385 12.2951574,6.74278043 C12.1827851,5.43078613 12.2601084,5.30831982 13.5579322,5.07926165 C14.4139454,4.92797972 15.2615685,4.99186582 16.0949995,5.28286891 Z" id="形状结合" fill="url(#linearGradient-1)" fill-rule="nonzero"></path>
    </g>
</svg>