<?xml version="1.0" encoding="UTF-8"?>
<svg width="32px" height="32px" viewBox="0 0 32 32" version="1.1" xmlns="http://www.w3.org/2000/svg" xmlns:xlink="http://www.w3.org/1999/xlink">
    <!-- Generator: Sketch 63.1 (92452) - https://sketch.com -->
    <title>施工质量管理备份</title>
    <desc>Created with Sketch.</desc>
    <defs>
        <linearGradient x1="50%" y1="0%" x2="50%" y2="100%" id="linearGradient-1">
            <stop stop-color="#4CD964" offset="0%"></stop>
            <stop stop-color="#F2FCFE" offset="100%"></stop>
        </linearGradient>
    </defs>
    <g id="施工质量管理备份" stroke="none" stroke-width="1" fill="none" fill-rule="evenodd">
        <path d="M15.8325125,5.04088056 C17.3102221,5.94926429 18.9013968,6.65857194 20.5647896,7.15041652 C22.1279212,7.60690627 23.6357206,7.81440161 25.0826548,7.77843575 C25.1572207,7.77657102 25.2293804,7.80489379 25.2827699,7.85698118 C25.3361595,7.90906856 25.3662318,7.98050706 25.3662318,8.05509621 L25.3662318,17.3979197 C25.3662318,21.0249383 22.2455019,24.2065335 16.004042,26.9427054 C15.8026053,27.0302302 15.571572,27.0168817 15.381556,26.9067395 C9.12626315,23.2907874 6,20.1230252 6,17.3979197 L6,8.05647951 C6,7.98164366 6.03025097,7.90998634 6.08394408,7.85785711 C6.13763718,7.80572789 6.21015812,7.77757397 6.2849603,7.77981905 C7.82734232,7.82408473 9.39324049,7.61382278 10.9840381,7.15041652 C12.6163348,6.67456054 14.1338174,5.97460959 15.5364859,5.04503047 C15.6260587,4.98652581 15.7413349,4.98490978 15.8325125,5.04088056 Z M13.311805,11.4129225 C12.7336066,11.4411273 11.4150323,11.6338601 10.9931355,11.6973209 C10.9096963,11.7102481 10.8368339,11.7631321 10.795702,11.8359945 C10.6582036,12.0980641 10.2715628,12.7455992 10.0576764,13.2509352 C9.9718868,13.4507192 10.0188948,13.6810584 10.1716708,13.8350096 L10.1716708,13.8350096 L10.4584196,14.0665239 L11.4491131,14.8315791 L11.4952092,14.8776751 C11.548347,14.9454795 11.5673382,15.0362989 11.5419539,15.1218535 C11.4549891,15.3992007 11.5325523,15.1982415 11.4996467,15.3286887 C11.4655659,15.4603111 11.5372531,15.5978094 11.6653499,15.6436422 C12.1213275,15.8093454 13.3364842,16.4498294 13.8042138,16.582627 C13.9358362,16.6202334 13.9123322,16.4850854 13.964041,16.3581638 L13.964041,16.3581638 L13.9123322,16.288827 L16.8303536,18.5240573 L15.6669057,20.5042692 L15.6407949,20.5643591 C15.5928971,20.7271654 15.7143054,20.9026619 15.8960696,20.9026619 L15.8960696,20.9026619 L21.6004901,20.9026619 L21.6744155,20.8954237 C21.9359444,20.8453383 22.0871208,20.5454991 21.9459989,20.3009596 L21.9459989,20.3009596 L19.707243,16.065539 L19.6467582,15.9752285 C19.2656511,15.4852539 18.5693402,15.915299 18.2253159,16.5109398 L18.2253159,16.5109398 L17.255776,17.8706461 L16.7433888,17.3852885 L16.7503094,17.3173881 C16.7523987,17.2698578 16.7492648,17.2176267 16.7398632,17.1596502 C16.57416,16.200687 15.8431857,12.9218792 15.3061193,12.3942144 C15.2884913,12.3765864 15.2685129,12.362484 15.2461841,12.3519072 L15.2461841,12.3519072 L13.5856266,11.4728577 L13.4989665,11.4361653 C13.4392489,11.417101 13.3760493,11.4090052 13.311805,11.4129225 Z M11.5144172,16.0682115 L11.4567125,16.0744952 C11.3628678,16.0952068 11.283242,16.1655989 11.2563803,16.2629726 C11.0601219,16.9868958 10.25511,19.6522492 10.0094932,20.5336492 C9.9636604,20.7028779 10.0894068,20.8697563 10.2656868,20.8697563 L10.2656868,20.8697563 L10.7334164,20.8697563 L10.7964165,20.8622445 C10.8774959,20.8425387 10.9451874,20.785377 10.9790331,20.7064035 C11.2493291,20.0600436 12.0378883,17.6837893 12.1565835,17.6837893 C13.053261,17.6779133 13.8065642,18.8366605 13.7771842,19.1833444 C13.7395778,19.6122924 13.4963114,20.1282052 13.3035786,20.4748892 C13.206037,20.6511692 13.3341338,20.8697563 13.5362682,20.8697563 L13.5362682,20.8697563 L14.0721594,20.8697563 L14.1403577,20.8607771 C14.2065728,20.843094 14.2651859,20.8001257 14.3013233,20.7393091 C14.7855057,19.9260708 14.9453329,19.4230852 14.9476833,19.122234 C14.9547345,18.3736317 14.2214097,17.1960814 13.817141,17.0068742 C13.817141,17.0068742 12.2141683,16.224191 11.5736843,16.0749406 L11.5736843,16.0749406 L11.5144172,16.0682115 Z M14.626178,14.5329385 C14.7486044,14.3677394 15.0257166,14.4006333 15.0934081,14.6153423 C15.2861409,15.2358479 15.5540865,16.1736574 15.8420105,16.8023894 L15.8420105,16.8023894 L14.2355121,15.4744135 L14.5915977,14.5953639 Z M11.6218675,12.4964568 L12.1765619,12.5129096 L12.2397019,12.521452 C12.3994001,12.562979 12.4856394,12.7472967 12.4010251,12.9019008 C12.2729283,13.1369408 12.1554083,13.4107624 12.0038075,13.802104 C11.9356459,13.9783839 11.7100075,14.0277423 11.5736843,13.8984704 L11.5736843,13.8984704 L11.0436691,13.4001856 L11.0427678,13.3800015 C11.0606743,13.2821132 11.2549701,12.8667623 11.3797763,12.6351304 C11.4279595,12.5458152 11.5208003,12.4929312 11.6218675,12.4964568 L11.6218675,12.4964568 Z M15.3731057,9.00023704 C14.6151017,8.98613464 13.9981218,9.60311461 14.0122242,10.3611186 C14.0239762,11.0779905 14.6045249,11.6561889 15.3213969,11.6702913 C16.0794008,11.6843937 16.6963808,11.0674137 16.6822784,10.3094098 C16.6693512,9.59018741 16.0899776,9.01198904 15.3731057,9.00023704 Z" id="形状结合" fill="url(#linearGradient-1)" fill-rule="nonzero"></path>
    </g>
</svg>