<?xml version="1.0" encoding="UTF-8"?>
<svg width="32px" height="32px" viewBox="0 0 32 32" version="1.1" xmlns="http://www.w3.org/2000/svg" xmlns:xlink="http://www.w3.org/1999/xlink">
    <!-- Generator: Sketch 63.1 (92452) - https://sketch.com -->
    <title>实际进度反馈备份</title>
    <desc>Created with Sketch.</desc>
    <defs>
        <linearGradient x1="50%" y1="0%" x2="50%" y2="100%" id="linearGradient-1">
            <stop stop-color="#4CD964" offset="0%"></stop>
            <stop stop-color="#F2FCFE" offset="100%"></stop>
        </linearGradient>
    </defs>
    <g id="实际进度反馈备份" stroke="none" stroke-width="1" fill="none" fill-rule="evenodd">
        <path d="M10.6937521,7.96473996 L10.6937521,9.78189108 C10.6957191,10.4044724 11.1997829,10.908765 11.8223633,10.9110146 L11.8223633,10.9110146 L19.672948,10.9110146 C20.2957284,10.909046 20.8001029,10.4046715 20.8020715,9.78189108 L20.8020715,9.78189108 L20.8020715,7.96473996 L23.661254,7.96473996 C24.6876042,7.96783436 25.5188568,8.79908693 25.5219512,9.82543712 L25.5219512,9.82543712 L25.5219512,25.1393028 C25.5188568,26.165653 24.6876042,26.9969056 23.661254,27 L23.661254,27 L7.86069719,27 C6.83434698,26.9969056 6.0030944,26.165653 6,25.1393028 L6,25.1393028 L6,9.82543712 C6.00309441,8.79908693 6.83434699,7.96783436 7.86069719,7.96473996 L7.86069719,7.96473996 L10.6937521,7.96473996 Z M23.9819579,12.8321639 L20.0935516,12.8321639 L21.3866132,14.1252255 L16.1549393,19.3574117 L14.7261165,17.9285889 L13.5478116,16.750284 L7.75362513,22.5444704 L8.93193007,23.7227754 L13.5478116,19.1068939 L14.9766344,20.5357167 L16.1549393,21.7140216 L22.5654304,15.3035305 L23.981,16.72 L23.9819579,12.8321639 Z M15.7476556,4 C17.2563982,4 18.5043769,5.17471879 18.6216951,6.65528456 L18.6216951,6.65528456 L18.7482348,6.65528456 C19.2000891,6.65528454 19.5699744,7.02465753 19.5699744,7.47651186 L19.5699744,7.47651186 L19.5699744,8.75420426 C19.5699744,9.20605857 19.2000891,9.57543156 18.7482348,9.57543156 L18.7482348,9.57543156 L12.7465642,9.57543156 C12.2952222,9.57543156 11.9253369,9.20605859 11.9253369,8.75420426 L11.9253369,8.75420426 L11.9253369,7.47651186 C11.9253369,7.02465756 12.2952222,6.65528456 12.7465642,6.65528456 L12.7465642,6.65528456 L12.8736162,6.65528456 C12.9909344,5.17523108 14.238913,4 15.7476556,4 Z M16.9136652,6.07689052 L14.6000891,6.07689052 L14.6000891,7.96473996 L16.9136652,7.96473996 L16.9136652,6.07689052 Z" id="进度报表" fill="url(#linearGradient-1)" fill-rule="nonzero"></path>
    </g>
</svg>