<?xml version="1.0" encoding="UTF-8"?>
<svg width="32px" height="32px" viewBox="0 0 32 32" version="1.1" xmlns="http://www.w3.org/2000/svg" xmlns:xlink="http://www.w3.org/1999/xlink">
    <!-- Generator: Sketch 63.1 (92452) - https://sketch.com -->
    <title>劳务实名备份</title>
    <desc>Created with Sketch.</desc>
    <defs>
        <linearGradient x1="50%" y1="0%" x2="50%" y2="100%" id="linearGradient-1">
            <stop stop-color="#4CD964" offset="0%"></stop>
            <stop stop-color="#F2FCFE" offset="100%"></stop>
        </linearGradient>
    </defs>
    <g id="劳务实名备份" stroke="none" stroke-width="1" fill="none" fill-rule="evenodd">
        <path d="M5.01172949,9.38790601 C5.07060693,7.87426516 6.47139935,7.97484746 6.47139935,7.97484746 L7.27360447,7.97484746 L7.27388659,10.6081419 C7.27831466,10.711986 7.34916385,11.7504859 8.41190163,11.7528165 L8.41190163,11.7528165 L9.25608755,11.7520089 C9.57542766,11.751605 9.95416346,11.7514536 10.3548571,11.7528165 L10.6639637,11.7528165 C11.8047141,11.7160181 11.7507431,10.6292387 11.7507431,10.6292387 L11.7507431,7.97484746 L20.2438138,7.97484746 L20.2435096,10.6597053 C20.2454084,10.8360948 20.3061257,11.7196979 21.3305932,11.7528165 L21.3305932,11.7528165 L23.5826553,11.7528165 C24.7013266,11.7503633 24.7209524,10.5998 24.7209524,10.5998 L24.7209524,7.97484746 L25.5321477,7.97447441 C25.6353387,7.96938363 26.9264032,7.9348108 26.9852806,9.38790601 C26.9950935,9.44923668 27,9.48603508 27,9.48603508 C27,9.48603508 26.9986807,17.0007154 26.9979771,21.2523498 L26.9975468,24.0778272 C26.9975468,25.5767487 25.474093,25.5914681 25.474093,25.5914681 L6.51765609,25.5912974 C6.40106074,25.5878606 5.00191658,25.5166447 5.00191658,24.0778272 C5.00191658,23.8202384 5.00149068,21.2440097 5.00099378,18.3260613 L5,9.47932704 C5.00114995,9.46610261 5.00436981,9.43390401 5.01172949,9.38790601 Z M11.7556496,13.911656 C10.5167701,13.911656 9.45942942,14.7482063 9.45942942,16.34771 C9.45942942,17.3903314 9.94516829,18.4501253 10.5854605,19.1051368 C10.8332363,19.7601483 10.3867491,20.0030177 10.2935265,20.0373629 C8.9982228,20.503476 7.47967551,21.3571989 7.47967551,22.1986556 L7.47967551,22.1986556 L7.47967551,22.5151218 C7.47967551,23.6632319 9.70229885,23.9232739 11.7654625,23.9232739 C13.8286261,23.9232739 16.0267172,23.6607787 16.0267172,22.5151218 L16.0267172,22.5151218 L16.0291704,22.5151218 L16.0291704,22.1986556 C16.0291704,21.3326666 14.5032634,20.4863034 13.1441759,20.0373629 C13.0828452,20.0177371 12.6903289,19.8411048 12.9356516,19.0977771 L12.9356516,19.0977771 C13.5685841,18.4427656 14.0567762,17.3878781 14.0567762,16.34771 C14.0567762,14.7482063 12.9920758,13.911656 11.7556496,13.911656 Z M23.5777488,19.9269677 L18.7694246,19.9269677 C18.3965341,19.919608 18.0506292,20.1158662 17.8617307,20.4372389 C17.672832,20.758233 17.672832,21.1564128 17.8617307,21.477407 C18.0506292,21.7987797 18.3965341,21.9950378 18.7694246,21.9876781 L18.7694246,21.9876781 L23.5752956,21.9876781 C23.948186,21.9950378 24.294091,21.7987797 24.4829895,21.477407 C24.6718879,21.1560343 24.6718879,20.7586116 24.4854427,20.4372389 C24.2965442,20.1158662 23.9506393,19.919608 23.5777488,19.9269677 L23.5777488,19.9269677 Z M23.5777488,15.8472518 L18.7694246,15.8472518 C18.3965341,15.8398921 18.0506292,16.0361502 17.8617307,16.3575229 C17.672832,16.6785171 17.672832,17.0766969 17.8617307,17.397691 C18.0506292,17.7190637 18.3965341,17.9153219 18.7694246,17.9079622 L18.7694246,17.9079622 L23.5752956,17.9079622 C23.948186,17.9153219 24.294091,17.7190637 24.4829895,17.397691 C24.6718879,17.0738651 24.6718879,16.6764424 24.4854427,16.3575229 C24.2965442,16.0361502 23.9506393,15.8398921 23.5777488,15.8472518 L23.5777488,15.8472518 Z M22.4664371,6 C23.212218,6 23.8647763,6.73842122 23.8647763,7.65102154 L23.8647763,7.65102154 L23.8647763,9.50811412 C23.8647763,10.4207144 23.2612826,11.1615889 22.5179549,11.1615889 C21.772174,11.1615889 21.1711335,10.4207144 21.1711335,9.50811412 L21.1711335,9.50811412 L21.1711335,7.65102154 C21.1711335,6.74087445 21.7231095,6 22.4664371,6 Z M9.48396168,6 C10.2272894,6 10.8307831,6.73842122 10.8307831,7.65102154 L10.8307831,7.65102154 L10.8307831,9.50811412 C10.8307831,10.4207144 10.2272894,11.1591357 9.48396168,11.1615889 C8.74063401,11.1615889 8.13959348,10.4207144 8.13714025,9.50811412 L8.13714025,9.50811412 L8.13714025,7.65102154 C8.13714025,6.74087445 8.74063401,6 9.48396168,6 Z" id="形状结合" fill="url(#linearGradient-1)" fill-rule="nonzero"></path>
    </g>
</svg>