<?xml version="1.0" encoding="UTF-8"?>
<svg width="32px" height="32px" viewBox="0 0 32 32" version="1.1" xmlns="http://www.w3.org/2000/svg" xmlns:xlink="http://www.w3.org/1999/xlink">
    <!-- Generator: Sketch 63.1 (92452) - https://sketch.com -->
    <title>组织架构备份</title>
    <desc>Created with Sketch.</desc>
    <defs>
        <linearGradient x1="50%" y1="0%" x2="50%" y2="100%" id="linearGradient-1">
            <stop stop-color="#64C41D" offset="0%"></stop>
            <stop stop-color="#F8FFF3" offset="100%"></stop>
        </linearGradient>
    </defs>
    <g id="组织架构备份" stroke="none" stroke-width="1" fill="none" fill-rule="evenodd">
        <path d="M12.4758172,3.66724001 C12.3722988,3.77075835 12.3085772,3.91391225 12.3085772,4.07214653 L12.3085772,10.3576055 C12.3085772,10.5158398 12.3722988,10.6589937 12.4758172,10.7625121 C12.5803339,10.8670288 12.7252545,10.9309775 12.8853063,10.9297343 L15.3948298,10.9840055 L15.3942854,15.273509 L5.21822649,15.273509 C5.06268839,15.273509 4.92198142,15.336822 4.81946722,15.4383721 C4.71422953,15.5426201 4.65121595,15.6874722 4.64940088,15.8544411 L4.67136389,21.8638597 L2.07214653,21.8638597 C1.91391225,21.8638597 1.77075835,21.9275814 1.66724001,22.0310997 C1.56372167,22.1346181 1.5,22.277772 1.5,22.4360063 L1.5,28.7214653 C1.5,28.8796995 1.56372167,29.0228534 1.66724001,29.1263718 C1.77075835,29.2298901 1.91391225,29.2936118 2.07214653,29.2936118 L8.360956,29.2936118 C8.51902414,29.2936118 8.66209439,29.2300444 8.76525668,29.1265587 C8.86781386,29.02368 8.9306481,28.8814765 8.92976005,28.7242901 L8.92975207,22.4360063 C8.92975207,22.277772 8.8660304,22.1346181 8.76251206,22.0310997 C8.65899371,21.9275814 8.51583981,21.8638597 8.35760554,21.8638597 L5.81570662,21.8638597 L5.79518644,16.4178021 L15.3943489,16.4178021 L15.3943489,21.7097387 L12.8572705,21.7097387 C12.6990362,21.7097387 12.5558823,21.7734603 12.452364,21.8769787 C12.3488456,21.980497 12.285124,22.1236509 12.285124,22.2818852 L12.285124,28.5706947 C12.285124,28.7289289 12.3488456,28.8720828 12.452364,28.9756012 C12.5558823,29.0791195 12.6990362,29.1428412 12.8572705,29.1428412 L19.14608,29.1428412 C19.3032033,29.1428412 19.4457923,29.0780912 19.5489472,28.9742895 C19.651906,28.8706852 19.7157748,28.7278427 19.714884,28.570169 L19.714876,22.2818852 C19.714876,22.1236509 19.6511544,21.980497 19.547636,21.8769787 C19.4441177,21.7734603 19.3009638,21.7097387 19.1427295,21.7097387 L16.5386419,21.7097387 L16.5386419,16.4178021 L26.103881,16.4178021 L26.124404,21.8605093 L23.6423945,21.8605093 C23.4841602,21.8605093 23.3410063,21.9242309 23.2374879,22.0277493 C23.1339696,22.1312676 23.0702479,22.2744215 23.0702479,22.4326558 L23.0702479,28.7214653 C23.0702479,28.8796995 23.1339696,29.0228534 23.2374879,29.1263718 C23.3410063,29.2298901 23.4841602,29.2936118 23.6423945,29.2936118 L29.9278535,29.2936118 C30.0857584,29.2936118 30.2284508,29.2293312 30.331755,29.1257041 C30.4358103,29.0213236 30.5,28.87711 30.5,28.7181148 L30.5,22.4326558 C30.5,22.2744215 30.4362783,22.1312676 30.33276,22.0277493 C30.2292416,21.9242309 30.0860877,21.8605093 29.9278535,21.8605093 L27.2674153,21.8605093 L27.2601076,15.8462631 C27.2601072,15.6874213 27.1963855,15.5442674 27.0928672,15.4407491 C26.9893489,15.3372307 26.846195,15.273509 26.6879607,15.273509 L16.5391427,15.273509 L16.5347902,10.9297521 L19.1661827,10.9297521 C19.324417,10.9297521 19.4675709,10.8660304 19.5710892,10.7625121 C19.6724072,10.6611941 19.7356023,10.5219077 19.7382431,10.3676752 L19.4305873,3.89774191 C19.246084,3.83965096 18.997761,3.78884942 18.6667849,3.74061974 C17.6255741,3.58889504 15.8613452,3.5 12.4758172,3.66724001 Z" id="路径" stroke="#6CFF00" fill="url(#linearGradient-1)"></path>
    </g>
</svg>