<?xml version="1.0" encoding="UTF-8"?>
<svg width="32px" height="32px" viewBox="0 0 32 32" version="1.1" xmlns="http://www.w3.org/2000/svg" xmlns:xlink="http://www.w3.org/1999/xlink">
    <!-- Generator: Sketch 63.1 (92452) - https://sketch.com -->
    <title>可研阶段</title>
    <desc>Created with Sketch.</desc>
    <defs>
        <linearGradient x1="50%" y1="0%" x2="50%" y2="100%" id="linearGradient-1">
            <stop stop-color="#1C92D2" offset="0%"></stop>
            <stop stop-color="#F2FCFE" offset="100%"></stop>
        </linearGradient>
    </defs>
    <g id="可研阶段" stroke="none" stroke-width="1" fill="none" fill-rule="evenodd">
        <path d="M21.7606072,15.7419697 C22.8448882,15.6811616 23.9508069,16.0061774 24.8574225,16.7294077 C25.7640381,17.4526381 26.3266851,18.4586797 26.5083469,19.5293626 C26.7104354,20.7204373 26.4410427,21.9915078 25.6492086,23.0422232 L25.6492086,23.0422232 L26.9188097,24.3151306 C27.2234295,24.2811385 27.5221248,24.3886188 27.7345663,24.6018039 L27.7345663,24.6018039 L30.1761974,27.0445137 C30.3130563,27.171558 30.4095158,27.3305029 30.4597972,27.5026883 C30.509245,27.6720194 30.5140017,27.8541188 30.4687298,28.0309123 C30.4234696,28.2076601 30.3318314,28.3650421 30.2073213,28.4895522 C30.0828111,28.6140623 29.9254291,28.7057005 29.7486813,28.7509607 C29.5719335,28.7962209 29.3898774,28.7915034 29.2208484,28.7421605 C29.0495655,28.6921596 28.8916593,28.5963354 28.7662083,28.4602572 L28.7662083,28.4602572 L26.324357,26.0141743 C26.1115591,25.8020865 26.0039822,25.5026871 26.0385128,25.1977197 L26.0385128,25.1977197 L24.7670197,23.9245732 C23.7161777,24.7167885 22.4448269,24.986335 21.253505,24.7842045 C20.182822,24.6025427 19.1767805,24.0398957 18.4535501,23.1332801 C17.7303197,22.2266645 17.4053039,21.1207459 17.466112,20.0364648 C17.5269202,18.9521838 17.9735522,17.8895403 18.7936175,17.0694751 C19.6136827,16.2494098 20.6763262,15.8027778 21.7606072,15.7419697 Z M22.0068004,16.2566814 C20.9769902,16.2481937 19.9439714,16.6290018 19.1470227,17.4010779 C18.6205974,17.9110736 18.2519892,18.5431098 18.0614023,19.2249092 C17.8708154,19.9067087 17.8582497,20.6382713 18.0439094,21.3473197 C18.229569,22.0563682 18.5990505,22.6878943 19.0993202,23.1887975 C19.59959,23.6897007 20.2306481,24.0599809 20.939461,24.2465376 C21.6482739,24.4330943 22.3798519,24.4214544 23.0618919,24.2317304 C23.743932,24.0420063 24.3764342,23.6741983 24.8870955,23.1484187 C25.6601794,22.3524476 26.0422944,21.3199115 26.0351098,20.2900914 C26.0279252,19.2602712 25.631441,18.2331671 24.8473266,17.4480599 C24.0632123,16.6629526 23.0366106,16.2651691 22.0068004,16.2566814 Z M8.39743878,4.49999178 C10.6448052,4.51287581 12.8430372,5.15892063 14.7400169,6.36403055 C17.1734536,5.15856322 19.3720927,4.51250397 21.6170278,4.5 C22.5100278,4.5 23.7419271,4.8739334 24.925643,5.33657397 C25.8129768,5.68337731 26.6735575,6.08440073 27.3538484,6.43613447 C27.6898181,6.60984229 27.9811964,6.77113089 28.2086695,6.90744555 L28.2086695,6.90744555 L28.4449053,18.964691 C28.1892377,17.7111405 27.575613,16.5309642 26.6320939,15.5843164 C26.337817,15.2902007 26.0228292,15.0294317 25.6918268,14.8020093 C25.9164924,14.8860654 26.1558487,14.90292 26.383808,14.8596843 C26.7137139,14.797113 27.0197496,14.6086869 27.2237191,14.3092369 C27.4276885,14.0097869 27.4909721,13.6560108 27.4284008,13.3261049 C27.3658296,12.996199 27.1774034,12.6901632 26.8779534,12.4861937 C25.288389,11.3987644 23.115659,11.2202529 21.9592406,11.2202529 C20.8039112,11.2202529 18.6311524,11.3987908 17.0275359,12.4961048 C16.7413349,12.7057932 16.563772,13.0093838 16.5072619,13.3333544 C16.450558,13.6584361 16.5156179,14.0040961 16.7151333,14.2969879 C16.9147779,14.5900692 17.2128898,14.7771432 17.5357516,14.8431411 C17.7375811,14.8843981 17.9490824,14.8783405 18.1556618,14.819019 C17.8306477,15.0404254 17.5218841,15.2970437 17.2329651,15.5858058 C15.9233473,16.9057608 15.2215808,18.7194638 15.3053984,20.5834789 C15.377261,22.1816272 16.02085,23.6911513 17.1037722,24.8448707 C16.3135008,25.2066948 15.3264273,25.715818 14.93655,25.9190051 C13.2655594,25.1761793 10.1406016,23.8574609 8.4003052,23.8574609 C7.16758168,23.8574609 4.92568184,24.3652379 3.20185532,24.761057 C2.75348651,24.8640099 2.34146996,24.9587669 1.99465821,25.0331581 L1.99465821,25.0331581 L1.500171,6.89177726 C2.03608032,6.7710761 2.32751113,6.60973451 2.66355394,6.43597025 C3.34374858,6.08424865 4.20418797,5.68325897 5.09143363,5.33649008 C6.27505723,4.87388559 7.50696385,4.5 8.39743878,4.49999178 Z M8.05916842,18.2296351 C6.90378691,18.2296351 4.73094377,18.4081595 3.12375513,19.5092651 C2.84263996,19.7192404 2.66917422,20.0213061 2.61539796,20.3433575 C2.5616217,20.6654089 2.62753492,21.0074462 2.82517766,21.2973646 C3.02282039,21.5872831 3.31711524,21.7736284 3.63654467,21.8412586 C3.95597411,21.9088889 4.30053813,21.8578041 4.6178429,21.6603879 C5.38646075,21.1336078 6.65425504,20.8506039 8.06338969,20.8506039 C9.4717325,20.8506039 10.7296451,21.1340963 11.5012294,21.660891 C11.7873364,21.8569397 12.1405678,21.9312311 12.4822387,21.8668859 C12.8239096,21.8025406 13.12592,21.6048506 13.3215914,21.3174623 C13.5244811,21.0188518 13.5878929,20.6660369 13.5259191,20.3366438 C13.4640169,20.0076311 13.2771089,19.7020993 12.9794553,19.4976872 C11.3884481,18.4081734 9.21563661,18.2296351 8.05916842,18.2296351 Z M8.05916842,14.7270546 C6.81421439,14.7270546 4.51332853,14.9523186 3.84992782,17.6227147 C3.72051933,18.1436244 3.68971689,18.6114687 3.73214145,19.0314532 C4.01261787,18.6650254 4.31141362,18.3660927 4.61819169,18.1554576 C5.38673174,17.6277747 6.65444306,17.3459128 8.06338969,17.3459128 C9.47154481,17.3459128 10.7293746,17.6282642 11.5008806,18.1559616 C11.7873364,18.3522486 12.1405678,18.42654 12.4822387,18.3621947 C12.8239096,18.2978495 13.12592,18.1001595 13.3215914,17.8127711 C13.5241973,17.5138717 13.5873373,17.1614711 13.5253765,16.8324618 C13.4634872,16.5038319 13.2768757,16.1986522 12.9797643,15.9942844 C11.3883168,14.9055662 9.21558678,14.7270546 8.05916842,14.7270546 Z M8.05916842,11.2255501 C6.81421439,11.2255501 4.51332853,11.4508141 3.84992782,14.1212102 C3.71979049,14.6450538 3.68937306,15.1152323 3.73286522,15.5370402 C4.01262022,15.167329 4.31145398,14.8657379 4.61926217,14.6532161 C5.38756342,14.1227533 6.65496012,13.8412216 8.06338969,13.8412216 C9.47086447,13.8412216 10.7282885,14.1231262 11.4984862,14.6535523 C11.7879783,14.8511492 12.142203,14.9246754 12.4843709,14.8590156 C12.8265388,14.7933558 13.1283864,14.5939335 13.3230104,14.3049498 C13.5235199,14.0067299 13.5855223,13.6561772 13.5236701,13.3289761 C13.4618519,13.0019554 13.2762924,12.6981842 12.9811185,12.4937147 C11.3883168,11.4040617 9.21558678,11.2255501 8.05916842,11.2255501 Z M8.05916842,7.71345111 C6.90383906,7.71345111 4.73108024,7.89198903 3.12375513,8.99204651 C2.84263996,9.20202181 2.66917422,9.50408746 2.61539796,9.8261389 C2.5616217,10.1481903 2.62753492,10.4902276 2.82517766,10.780146 C3.02282039,11.0700645 3.31711524,11.2564098 3.63654467,11.32404 C3.95597411,11.3916703 4.30053813,11.3405855 4.61712947,11.1436574 C5.38590647,10.6187192 6.65375067,10.327012 8.06338969,10.327012 C9.47189333,10.327012 10.7296451,10.6189883 11.5012294,11.1457831 C11.7873364,11.3418318 12.1405678,11.4161232 12.4822387,11.3517779 C12.8239096,11.2874326 13.12592,11.0897426 13.3215914,10.8023543 C13.5247215,10.5016852 13.5877403,10.1488862 13.5259664,9.81994036 C13.4640909,9.49045316 13.2771365,9.18489965 12.9794553,8.98046856 C11.3883168,7.89196265 9.21558678,7.71345111 8.05916842,7.71345111 Z M21.9592406,7.71452712 C20.8038591,7.71452712 18.631016,7.89305151 17.0405354,8.98220405 C16.7466296,9.17966401 16.5592281,9.48386002 16.4982577,9.81385963 C16.4379703,10.1401623 16.5016696,10.4914566 16.7044415,10.7887917 C16.906958,11.0857523 17.2101877,11.2734211 17.5375079,11.336931 C17.8648281,11.400441 18.2162389,11.3397921 18.5151176,11.1401173 C19.2888072,10.6089476 20.5484887,10.327012 21.9592406,10.327012 C23.3717506,10.327012 24.6296456,10.6189393 25.4155097,11.1551333 C25.7138541,11.344278 26.0603148,11.3981503 26.3819725,11.3317932 C26.7036302,11.2654361 27.000485,11.0788497 27.1996174,10.7870769 C27.3987499,10.4953042 27.4643157,10.1508649 27.4088816,9.82714591 C27.3534476,9.50342687 27.1770137,9.200428 26.8789805,8.98220405 C25.2885203,7.89306547 23.1157088,7.71452712 21.9592406,7.71452712 Z" id="形状" stroke="#32C5FF" fill="url(#linearGradient-1)"></path>
    </g>
</svg>