<?xml version="1.0" encoding="UTF-8"?>
<svg width="32px" height="32px" viewBox="0 0 32 32" version="1.1" xmlns="http://www.w3.org/2000/svg" xmlns:xlink="http://www.w3.org/1999/xlink">
    <!-- Generator: Sketch 63.1 (92452) - https://sketch.com -->
    <title>合同审批</title>
    <desc>Created with Sketch.</desc>
    <defs>
        <linearGradient x1="50%" y1="0%" x2="50%" y2="100%" id="linearGradient-1">
            <stop stop-color="#BECFFF" offset="0%"></stop>
            <stop stop-color="#E0E8FF" offset="72.9940878%"></stop>
            <stop stop-color="#BECFFF" offset="100%"></stop>
        </linearGradient>
    </defs>
    <g id="合同审批" stroke="none" stroke-width="1" fill="none" fill-rule="evenodd">
        <path d="M15.8165234,5 L16.1834766,5 C17.9812891,5.0309375 19.771582,5.50359375 21.3414453,6.38251953 C22.7491016,7.16498047 23.9816602,8.26068359 24.9231055,9.56736328 C25.7098633,10.6533984 26.2929492,11.8857422 26.635625,13.1821094 C26.8627148,14.0416992 26.9819531,14.9283594 27,15.8169531 L27,16.1383594 C26.9780859,17.9252148 26.5168164,19.705625 25.6563672,21.2722656 C24.8782031,22.6958203 23.7809961,23.9432031 22.4687305,24.8968945 C21.0825586,25.9092383 19.4551172,26.5892188 17.7597852,26.8592773 C17.2396484,26.945 16.7130664,26.9860352 16.1864844,27 L15.8163086,27 C14.5547461,26.975293 13.2957617,26.7421875 12.1154102,26.2938086 C10.7530859,25.7809766 9.49710938,24.9905664 8.44007813,23.9900391 C7.36070313,22.9691016 6.48908203,21.7285938 5.90041016,20.3641211 C5.32763672,19.0482031 5.02728516,17.6179883 5,16.1839062 L5,15.8167383 C5.01482422,15.1786523 5.07648437,14.5412109 5.19830078,13.9142969 C5.49972656,12.3308984 6.16058594,10.8177539 7.11298828,9.51773437 C8.19945312,8.02650391 9.66748047,6.81564453 11.3389648,6.03447266 C12.7356641,5.37597656 14.2737305,5.02835937 15.8165234,5 M14.6316602,10.3975195 C14.2082031,10.6615625 13.8592969,11.0448437 13.6410156,11.4938672 C13.3969531,11.9875781 13.3148828,12.5594922 13.4094141,13.1019727 C13.535957,13.8640234 14.0154883,14.5571094 14.6817188,14.9472656 C14.5951367,15.6470117 14.5061914,16.346543 14.4213281,17.0465039 C13.694082,17.0469336 12.9668359,17.0462891 12.2395898,17.0467188 C12.0442969,17.0486523 11.8477148,17.1146094 11.6994727,17.2437305 C11.5166406,17.395625 11.4040625,17.6304492 11.4068047,17.8689258 C11.4072852,18.4494336 11.4068047,19.0297266 11.4070703,19.6102344 C11.4083594,19.8817969 11.5602539,20.145625 11.7907813,20.2880664 C11.924903,20.3728608 12.0804839,20.4175149 12.2391602,20.4167578 C14.7461719,20.4169189 17.2531836,20.4169189 19.7601953,20.4167578 C20.0188672,20.4195508 20.2760352,20.2934375 20.4294336,20.0846094 C20.5368555,19.9432422 20.5961523,19.7655664 20.5931445,19.5881055 C20.5927148,19.0078125 20.5933594,18.4275195 20.5927148,17.8472266 C20.589707,17.5131445 20.3544531,17.2005469 20.0394922,17.0941992 C19.8669727,17.03125 19.6815625,17.0488672 19.5019531,17.0467187 C18.8956641,17.0469336 18.2891602,17.0460742 17.6828711,17.0471484 C17.5973633,16.3476172 17.5073438,15.6485156 17.4233398,14.9489844 C17.7664453,14.74875 18.0616406,14.4681641 18.2837891,14.1388086 C18.6992969,13.5284375 18.8410938,12.7406055 18.6610547,12.0238867 C18.468125,11.2203711 17.8751562,10.5296484 17.1150391,10.208457 C16.3220508,9.86191406 15.3629883,9.93431641 14.6316602,10.3975195 M11.6262109,21.105332 C11.4661523,21.1427148 11.3316602,21.273125 11.290625,21.4323242 C11.2609766,21.5479102 11.2751562,21.675957 11.3366016,21.779082 C11.417168,21.9228125 11.5808789,22.0143359 11.7456641,22.0076758 C14.5824609,22.0074609 17.4192578,22.0074609 20.2560547,22.0074609 C20.4251367,22.0143359 20.5925,21.9163672 20.6704883,21.7661914 C20.7596484,21.6039844 20.7362305,21.3869922 20.6111914,21.2494922 C20.5185938,21.1394922 20.3737891,21.0875 20.2324219,21.0894336 C17.4749023,21.0887891 14.7173828,21.0894336 11.9598633,21.0892187 C11.8485742,21.0905078 11.7357812,21.0819141 11.6262109,21.105332 Z" id="形状" fill="url(#linearGradient-1)" fill-rule="nonzero"></path>
    </g>
</svg>