<?xml version="1.0" encoding="UTF-8"?>
<svg width="32px" height="32px" viewBox="0 0 32 32" version="1.1" xmlns="http://www.w3.org/2000/svg" xmlns:xlink="http://www.w3.org/1999/xlink">
    <!-- Generator: Sketch 63.1 (92452) - https://sketch.com -->
    <title>防洪度汛</title>
    <desc>Created with Sketch.</desc>
    <defs>
        <linearGradient x1="50%" y1="0%" x2="50%" y2="100%" id="linearGradient-1">
            <stop stop-color="#BECFFF" offset="0%"></stop>
            <stop stop-color="#E0E8FF" offset="72.9940878%"></stop>
            <stop stop-color="#BECFFF" offset="100%"></stop>
        </linearGradient>
    </defs>
    <g id="防洪度汛" stroke="none" stroke-width="1" fill="none" fill-rule="evenodd" transform="translate(0.000000, 0.000000)">
        <path d="M17.1453772,24.2649398 C19.0116233,23.0219978 21.6203347,23.0219978 23.4884141,24.2649398 L24.9669283,25.2420608 C25.1410869,25.3520556 25.3583267,25.3520556 25.5324852,25.2420608 C25.9416636,24.9740991 26.4847847,25.042426 26.814842,25.4033866 C27.1182445,25.7590366 27.0394148,26.265013 26.6342671,26.535417 C25.8184719,27.076225 24.6781918,27.076225 23.8642299,26.535417 L22.3884655,25.5555461 C21.1274917,24.7444952 19.5090495,24.7444952 18.2480757,25.5555461 L16.7677282,26.535417 C15.9537662,27.076225 14.8144028,27.076225 13.997691,26.535417 L12.5191767,25.5555461 C11.2592857,24.7464589 9.64326105,24.7464589 8.38337002,25.5555461 L6.46945944,26.8342364 C6.30446716,26.9442312 6.11289276,27.0010619 5.91765191,27.0001562 C5.64083152,27.0001562 5.3676776,26.8874005 5.18710272,26.6765771 C4.87911712,26.320927 4.96069663,25.8149506 5.36309449,25.5454632 L7.27700504,24.2676896 C9.14691764,23.0229145 11.7537958,23.0229145 13.6237084,24.2676896 L15.0994728,25.2429774 C15.2736313,25.3529722 15.4917878,25.3529722 15.6659463,25.2429774 L17.1453772,24.2649398 Z M14.253429,5.00012675 C15.1673416,4.98987671 15.9712634,5.60226264 16.2040045,6.48610396 C16.4478265,7.58238607 15.8281888,8.68141804 14.6970749,8.91607372 C14.453253,9.04806755 14.3203425,9.04806755 14.0765206,9.04806755 C14.5861635,9.54121117 14.8299854,10.1443497 14.8299854,10.7474881 C14.9628959,10.9839771 14.9628959,11.3506266 14.9628959,11.5871156 C14.9628959,12.190254 15.3396283,12.6641486 15.7191105,13.1572922 C15.852021,13.3937811 16.0949263,13.6522691 16.2287534,13.8905912 C16.6054858,14.4928131 17.2260401,14.8594626 17.8465944,14.8594626 C18.0904164,14.8594626 18.5248961,14.9181266 18.6669728,15.1133674 C18.7604684,15.2426114 18.776051,15.4011873 18.7109707,15.5900118 C18.6421843,15.898049 18.5222805,16.1923866 18.3562373,16.4608045 C18.6110587,16.4553047 18.8402147,16.3288106 18.8402147,16.0996547 C18.8402147,15.8659156 18.9722085,15.7375883 18.9722085,15.5038492 C19.0822034,15.1417828 19.2123639,14.673388 19.2123639,14.1839109 C19.2123639,14.0555835 19.3443578,13.9492552 19.3443578,13.8218445 C19.4268539,13.7411816 19.4470196,13.6513524 19.5066002,13.6091877 L19.5863465,13.5881054 L19.5863465,13.3534497 L19.4543526,13.1197106 C19.3241921,12.9913833 19.2141972,12.7576442 19.0822034,12.6302335 C18.9502095,12.5019062 18.8182157,12.1407564 18.9502095,11.9061007 C18.9502095,11.6503626 19.2123639,11.4166235 19.4543526,11.4166235 C19.6935915,11.4166235 20.0657407,11.4166235 20.4369734,11.5449509 C20.5359687,11.5449509 20.5607176,11.6164475 20.5689672,11.6723616 L26.7378456,20.2932087 C26.8615898,20.4444516 26.9431693,20.6241099 26.9761678,20.8147677 L27,21.0164249 L27,21.2510806 C26.8698394,21.357409 26.7378456,21.4848197 26.4958569,21.4848197 C12.8381618,21.5040688 5.90390256,21.5040688 5.69491231,21.4848197 C5.38509346,21.4554877 4.95794675,21.2189988 5.00469458,20.7909354 C5.04869252,20.3628721 5.47492259,20.1859637 5.69491231,20.1859637 L6.00198129,20.2033796 C5.91025311,20.0601825 5.89188702,19.8819634 5.95248362,19.7230687 C6.088132,18.7278816 6.34199663,17.752426 6.70869826,16.8173711 C7.19634213,15.7183392 7.705985,14.6422228 8.34853831,13.5450241 C8.54561243,13.3397003 8.73902006,12.9950498 8.87834687,12.6769813 L8.96725939,12.4469087 L8.96725939,11.7988557 C8.96450953,11.7044434 8.94801029,11.6091145 8.83434893,11.6091145 C8.63452493,11.527535 8.52361344,11.5082859 8.42370146,11.4487054 L8.32378947,11.3726256 L7.32650273,11.0059761 C6.98551868,10.8611495 6.78111154,10.7337388 6.71236476,10.6264938 C6.62986861,10.4926667 6.75727932,10.2625941 6.80127729,10.1883476 L6.81685989,10.1663486 L7.19359227,9.7996991 C7.94705705,9.19931048 8.81418321,8.83266095 9.72347404,8.55400731 C10.5869337,8.18552453 11.7198807,8.18552453 12.5870069,8.42293009 C12.4540964,8.05628056 12.2102745,7.6923809 12.2102745,7.32573137 C12.0984464,6.35686 12.9142416,5.17074875 13.9601094,5.02317232 L13.9747754,5.02225568 L14.1095191,5.00667308 L14.2057646,5.00208996 L14.253429,5.00012675 Z M13.0755674,13.8896746 L13.0755674,14.0170853 C13.3533044,14.3745686 13.5292962,14.7980488 13.5852103,15.2453613 C13.6677064,16.3306439 13.7135376,17.4177597 13.7190373,18.5057922 L13.7190373,19.7230687 C13.6081258,20.0897182 13.4752154,20.3243739 13.0975664,20.4536179 C13.0471536,20.5078706 12.9827758,20.5471949 12.9114917,20.5672792 L15.5367024,20.6332761 L17.9657555,20.6332761 C18.0977494,20.6332761 18.2297432,20.5269478 18.0977494,20.3995371 C18.0977494,20.3032916 18.0363356,20.2189622 17.9483397,20.129133 L17.8566773,20.0374707 L17.4863613,19.6754042 C17.3543674,19.5479935 17.3543674,19.4416652 17.3543674,19.3142544 C17.462529,18.9732704 17.462529,18.7184489 17.5926896,18.4837933 C17.7237668,18.2491376 17.8337617,17.8879878 17.9657555,17.6533321 C18.0959161,17.419593 18.0959161,17.0575266 18.0959161,16.8237875 C18.0934253,16.8217024 18.0909804,16.8195631 18.0885831,16.8173711 C17.976755,16.9466151 17.8502609,17.0630263 17.7127674,17.1620217 C17.2031245,17.5286712 17.092213,17.1840207 17.092213,17.0538601 C17.092213,16.9823634 17.0033005,16.7999553 16.8309752,16.5103021 L16.7154806,16.3214776 L16.5825702,16.1931503 L13.0755674,13.888758 L13.0755674,13.8896746 Z M10.4494401,15.0941183 C10.0827906,15.0941183 9.72439067,15.7403381 9.59148021,15.9777437 C9.00300772,16.8137046 8.57769425,17.7422446 8.17621302,18.681784 L7.83522896,19.4865797 C7.7023185,19.7230687 7.59140703,19.8532293 7.4594132,20.0897182 C7.41375028,20.1631183 7.35392195,20.2266859 7.2834214,20.2767095 C8.45669991,20.3417898 9.62997842,20.4142031 10.8032569,20.4911995 L11.3596476,20.5278644 L11.4238112,20.5296976 C11.3467062,20.4761988 11.2754301,20.4147539 11.2111545,20.3463729 C11.0782441,20.2162123 11.0782441,19.9797234 11.0782441,19.8523126 C11.0828272,17.9008205 11.0874103,16.7293753 11.0828272,16.3398101 C11.0782441,15.7531709 10.8170063,15.0932017 10.4494401,15.0932017 L10.4494401,15.0941183 Z" id="形状" fill="url(#linearGradient-1)" fill-rule="nonzero"></path>
    </g>
</svg>