<?xml version="1.0" encoding="UTF-8"?>
<svg width="32px" height="32px" viewBox="0 0 32 32" version="1.1" xmlns="http://www.w3.org/2000/svg" xmlns:xlink="http://www.w3.org/1999/xlink">
    <!-- Generator: Sketch 63.1 (92452) - https://sketch.com -->
    <title>考勤绩效</title>
    <desc>Created with Sketch.</desc>
    <defs>
        <linearGradient x1="50%" y1="0%" x2="50%" y2="100%" id="linearGradient-1">
            <stop stop-color="#BECFFF" offset="0%"></stop>
            <stop stop-color="#E0E8FF" offset="72.9940878%"></stop>
            <stop stop-color="#BECFFF" offset="100%"></stop>
        </linearGradient>
    </defs>
    <g id="考勤绩效" stroke="none" stroke-width="1" fill="none" fill-rule="evenodd">
        <path d="M27,12.7 L27,24.8 C27,26.01 26.01,27 24.8,27 L7.20000002,27 C5.99000003,27 5,26.01 5,24.8 L5,12.7 L27,12.7 Z M20.95,16.55 C20.62,16.22 20.18,16.22 19.85,16.55 L14.9,21.5 L12.15,18.75 C11.82,18.42 11.38,18.42 11.05,18.75 C10.72,19.08 10.72,19.52 11.05,19.85 L14.13,22.93 C14.57,23.37 15.23,23.37 15.67,22.93 L20.95,17.65 C21.28,17.32 21.28,16.88 20.95,16.55 Z M8.3,7.20000002 C8.3,8.41000001 9.29,9.40000001 10.5,9.40000001 C11.71,9.40000001 12.59,8.52000001 12.7,7.31 L12.7,7.20000002 L19.3,7.20000002 C19.3,8.41000001 20.29,9.40000001 21.5,9.40000001 C22.71,9.40000001 23.59,8.52000001 23.7,7.31 L23.7,7.20000002 L24.8,7.20000002 C26.01,7.20000002 27,8.19000001 27,9.40000001 L27,11.6 L5,11.6 L5,9.40000001 C5,8.19000001 5.99,7.20000002 7.20000002,7.20000002 L8.3,7.20000002 Z M10.5,5 C11.16,5 11.6,5.44000001 11.6,6.10000001 L11.6,7.20000002 C11.6,7.86000001 11.16,8.3 10.5,8.3 C9.84000004,8.3 9.40000001,7.85999999 9.40000001,7.20000002 L9.40000001,6.10000001 C9.40000001,5.55000002 9.84000001,5 10.5,5 Z M21.5,5 C22.16,5 22.6,5.44000001 22.6,6.10000001 L22.6,7.20000002 C22.6,7.86000001 22.16,8.3 21.5,8.3 C20.84,8.3 20.4,7.85999999 20.4,7.20000002 L20.4,6.10000001 C20.4,5.55000002 20.84,5 21.5,5 Z" id="形状" fill="url(#linearGradient-1)" fill-rule="nonzero"></path>
    </g>
</svg>