<?xml version="1.0" encoding="UTF-8"?>
<svg width="32px" height="32px" viewBox="0 0 32 32" version="1.1" xmlns="http://www.w3.org/2000/svg" xmlns:xlink="http://www.w3.org/1999/xlink">
    <!-- Generator: Sketch 63.1 (92452) - https://sketch.com -->
    <title>进度对比分析</title>
    <desc>Created with Sketch.</desc>
    <defs>
        <linearGradient x1="50%" y1="0%" x2="50%" y2="100%" id="linearGradient-1">
            <stop stop-color="#BECFFF" offset="0%"></stop>
            <stop stop-color="#E0E8FF" offset="72.9940878%"></stop>
            <stop stop-color="#BECFFF" offset="100%"></stop>
        </linearGradient>
    </defs>
    <g id="进度对比分析" stroke="none" stroke-width="1" fill="none" fill-rule="evenodd">
        <path d="M16.6531261,15.9716152 C17.6977782,15.9760923 18.542257,16.8242155 18.542257,17.8688772 L18.542257,17.8688772 L18.542257,24.102738 C18.542257,25.1473997 17.6977782,25.9955229 16.6531261,26 L16.6531261,26 L15.0675571,26 C14.0229051,25.9955229 13.1784263,25.1473997 13.1784263,24.102738 L13.1784263,24.102738 L13.1784263,17.8688772 C13.1784263,16.8242155 14.0229051,15.9760923 15.0675571,15.9716152 L15.0675571,15.9716152 Z M9.47469984,15.0595742 C10.487634,15.0322155 11.3321146,15.8288382 11.3638307,16.8416453 L11.3638307,16.8416453 L11.3638307,24.2179289 C11.3313855,25.2302008 10.4871218,26.0260133 9.47469984,25.9986448 L9.47469984,25.9986448 L7.88913088,25.9986448 C6.87670896,26.0260133 6.03244518,25.2302009 6,24.2179289 L6,24.2179289 L6,16.8402901 C6.03244518,15.8280182 6.87670896,15.0322057 7.88913088,15.0595742 L7.88913088,15.0595742 Z M23.8776287,12.7178108 C24.9196314,12.7259982 25.7599837,13.573038 25.7599837,14.6150728 L25.7599837,14.6150728 L25.7599837,24.1013828 C25.7599837,25.1460445 24.9155049,25.9941677 23.8708528,25.9986448 L23.8708528,25.9986448 L22.2852838,25.9986448 C21.2406318,25.9941677 20.396153,25.1460445 20.396153,24.1013828 L20.396153,24.1013828 L20.396153,14.6150728 C20.396153,13.5704112 21.2406318,12.722288 22.2852838,12.7178108 L22.2852838,12.7178108 Z M25.451001,4.02564054 C25.6060659,3.971288 25.7783864,4.00469519 25.9019066,4.11305605 C26.0254267,4.22141691 26.0809847,4.38792138 26.0472834,4.54874277 L26.0472834,4.54874277 L24.6351784,9.51008288 C24.5786366,9.6646849 24.4488879,9.78102807 24.2890588,9.82044169 C24.1292298,9.85985532 23.9602659,9.81717425 23.8383283,9.70658502 L23.8383283,9.70658502 L22.626791,8.61294899 L17.9202261,11.9900754 C17.5840718,12.2249882 17.1369958,12.2249882 16.8008415,11.9900754 L16.8008415,11.9900754 L13.7719983,9.82177594 L7.71973249,14.1583748 C7.55614298,14.2741049 7.36042394,14.3357114 7.16004019,14.3346195 C6.89149765,14.3378362 6.63443236,14.2258327 6.45398768,14.0269216 C6.30644276,13.8623681 6.23765596,13.6418368 6.26548551,13.4225815 C6.29331507,13.2033262 6.41501603,13.0069731 6.59899272,12.8844989 L6.59899272,12.8844989 L13.2109508,8.14134387 C13.5469796,7.90603278 13.9943065,7.90603278 14.3303353,8.14134387 L14.3303353,8.14134387 L17.3591786,10.3096433 L21.344784,7.45019843 L19.9150615,6.15870509 C19.7979521,6.05301861 19.7509477,5.89004046 19.7937903,5.73822229 C19.8366329,5.58640413 19.9619022,5.47204111 20.1169844,5.44316628 L20.1169844,5.44316628 Z" id="形状结合" fill="url(#linearGradient-1)" fill-rule="nonzero"></path>
    </g>
</svg>