<?xml version="1.0" encoding="UTF-8"?>
<svg width="32px" height="32px" viewBox="0 0 32 32" version="1.1" xmlns="http://www.w3.org/2000/svg" xmlns:xlink="http://www.w3.org/1999/xlink">
    <!-- Generator: Sketch 63.1 (92452) - https://sketch.com -->
    <title>工程组成</title>
    <desc>Created with Sketch.</desc>
    <defs>
        <linearGradient x1="50%" y1="0%" x2="50%" y2="100%" id="linearGradient-1">
            <stop stop-color="#BECFFF" offset="0%"></stop>
            <stop stop-color="#E0E8FF" offset="72.9940878%"></stop>
            <stop stop-color="#BECFFF" offset="100%"></stop>
        </linearGradient>
    </defs>
    <g id="工程组成" stroke="none" stroke-width="1" fill="none" fill-rule="evenodd">
        <path d="M16,5 C9.92486775,5 5,9.92486775 5,16 C5,22.0751322 9.92486775,27 16,27 C22.0751322,27 27,22.0751322 27,16 C27,13.0826186 25.8410748,10.2847256 23.7781746,8.22182541 C21.7152744,6.15892524 18.9173814,5 16,5 Z M21.81625,11.125625 C22.1900635,11.5077384 22.1900635,12.1185116 21.81625,12.500625 L19.4375,14.85875 C19.2078347,15.1693677 18.8175455,15.3166974 18.4399098,15.2353289 C18.0622742,15.1539603 17.7672897,14.8589758 17.6859211,14.4813402 C17.6045526,14.1037045 17.7518823,13.7134153 18.0625,13.48375 L20.406875,11.139375 C20.5901015,10.9472954 20.8432162,10.8374736 21.1086589,10.8348839 C21.3741017,10.8322942 21.6293108,10.9371567 21.81625,11.125625 Z M16.59125,19.09375 L13.476875,22.1875 C13.1521021,22.5118185 12.6260229,22.5118185 12.30125,22.1875 L10.561875,20.475625 C10.2375565,20.1508521 10.2375565,19.6247729 10.561875,19.3 L13.683125,16.17875 C14.0078979,15.8544315 14.5339771,15.8544315 14.85875,16.17875 L16.59125,17.91125 C16.9155685,18.2360229 16.9155685,18.7621021 16.59125,19.086875 L16.59125,19.09375 Z M22.435,21.905625 C22.0344301,22.261 21.4231232,22.2304346 21.06,21.836875 L13.4425,13.3875 C12.8643329,13.9583001 12.397987,14.63217 12.0675,15.374375 L9.241875,12.418125 C11.5918037,9.84842648 15.2367682,8.90752958 18.536875,10.01875 C17.2545203,10.565944 16.0389207,11.2579361 14.91375,12.08125 L22.47625,20.51 C22.8479626,20.9050314 22.8295038,21.5264775 22.435,21.89875 L22.435,21.905625 Z" id="形状" fill="url(#linearGradient-1)" fill-rule="nonzero"></path>
    </g>
</svg>