<?xml version="1.0" encoding="UTF-8"?>
<svg width="32px" height="32px" viewBox="0 0 32 32" version="1.1" xmlns="http://www.w3.org/2000/svg" xmlns:xlink="http://www.w3.org/1999/xlink">
    <!-- Generator: Sketch 63.1 (92452) - https://sketch.com -->
    <title>招标设计阶段备份</title>
    <desc>Created with Sketch.</desc>
    <defs>
        <linearGradient x1="50%" y1="0%" x2="50%" y2="100%" id="linearGradient-1">
            <stop stop-color="#64C41D" offset="0%"></stop>
            <stop stop-color="#F8FFF3" offset="100%"></stop>
        </linearGradient>
    </defs>
    <g id="招标设计阶段备份" stroke="none" stroke-width="1" fill="none" fill-rule="evenodd">
        <path d="M21.0376287,6.25603562 C18.4936179,4.81606282 15.6097222,4.36239648 12.8757877,4.81946521 C9.97202162,5.30492699 7.23740408,6.81786411 5.25878801,9.26788853 C3.24416098,11.7625036 2.34426937,14.8188192 2.52195872,17.8111464 C2.69964807,20.8034735 3.95491837,23.7318121 6.25061517,25.970473 C8.54631197,28.2091338 11.5052982,29.3903497 14.501148,29.4927161 C17.4969979,29.5950825 20.5297114,28.6185993 22.9728627,26.541862 C25.416014,24.4651247 26.8682423,21.6292997 27.2497708,18.6560807 C27.6047042,15.8901148 27.0330049,13.0052418 25.4704433,10.5019989 L23.9782578,12.3345893 C24.7397722,13.7670073 25.1425769,15.3669292 25.1467529,16.9964066 C25.1467545,19.7905651 24.0147174,22.3190407 22.184461,24.1492971 C20.3542047,25.9795535 17.825729,27.1115906 15.0328519,27.1115906 C12.2399749,27.1115906 9.71149923,25.9795535 7.88124286,24.1492971 C6.05098649,22.3190407 4.91894938,19.7905651 4.91894938,16.997688 C4.91894938,14.2048109 6.05098649,11.6763353 7.88124286,9.84607892 C9.71149923,8.01582255 12.2399749,6.88378544 15.0328519,6.88378544 C16.6255805,6.88784364 18.1908717,7.27386639 19.599034,8.00672973 L21.0376287,6.25603562 Z M17.0448965,10.3189859 C15.6905763,9.8949911 14.2693579,9.89817401 12.957194,10.2804707 C11.4315102,10.724976 10.0532489,11.6820963 9.09894772,13.0764456 C8.11983065,14.5070539 7.7313346,16.1870642 7.90120441,17.8085801 C8.07107422,19.4300961 8.79930988,20.9931177 10.0536562,22.1897487 C11.3080026,23.3863797 12.9035695,24.0402373 14.5312839,24.1335946 C16.1589983,24.2269519 17.8188601,23.759809 19.2017961,22.7144389 C20.5847321,21.6690688 21.4868981,20.1995586 21.8410477,18.6080978 C22.1459429,17.237974 22.0446556,15.777462 21.4942755,14.41939 L18.7180985,17.392654 C18.6293125,18.2593602 18.2411772,19.0406753 17.6559056,19.627647 C17.0321962,20.2531684 16.1847762,20.6580444 15.2377147,20.7104886 C14.2529191,20.7650224 13.3331162,20.4289334 12.6333452,19.8340272 C11.9335742,19.2391211 11.4538351,18.3853977 11.349167,17.4046628 C11.244499,16.4239279 11.533259,15.4881871 12.091717,14.7589975 C12.6156455,14.0748938 13.376952,13.5725888 14.2734673,13.3854868 L17.0448965,10.3189859 Z M26.2724952,3.20710678 L24.4421499,5.03745207 L24.5169247,6.44749113 L15.6071959,17.0515075 L25.3698068,7.34311633 L26.7469843,7.34311633 L28.5777445,5.51235614 L27.4413218,5.51235614 L26.2724952,4.34352957 L26.2724952,3.20710678 Z" id="形状结合" stroke="#6CFF00" fill="url(#linearGradient-1)"></path>
    </g>
</svg>