<?xml version="1.0" encoding="UTF-8"?>
<svg width="32px" height="32px" viewBox="0 0 32 32" version="1.1" xmlns="http://www.w3.org/2000/svg" xmlns:xlink="http://www.w3.org/1999/xlink">
    <!-- Generator: Sketch 63.1 (92452) - https://sketch.com -->
    <title>质量监控</title>
    <desc>Created with Sketch.</desc>
    <defs>
        <linearGradient x1="50%" y1="0%" x2="50%" y2="100%" id="linearGradient-1">
            <stop stop-color="#BECFFF" offset="0%"></stop>
            <stop stop-color="#E0E8FF" offset="72.9940878%"></stop>
            <stop stop-color="#BECFFF" offset="100%"></stop>
        </linearGradient>
    </defs>
    <g id="质量监控" stroke="none" stroke-width="1" fill="none" fill-rule="evenodd">
        <path d="M22.8928696,5 C23.209302,5 23.5013935,5.17038669 23.6474392,5.45030769 L27.9071066,13.5923576 C28.0653228,13.8966195 28.0166409,14.2860748 27.7975723,14.5416549 L16.6494143,27.2232931 C16.4668571,27.4058503 16.235618,27.5153846 15.9922085,27.5153846 C15.7487989,27.5153846 15.5175598,27.4058503 15.3593436,27.2232931 L4.21118561,14.5416549 C3.97994653,14.2860748 3.93126462,13.8966195 4.10165131,13.5923576 L8.36131867,5.45030769 C8.50736441,5.17038669 8.79945588,5 9.11588831,5 L22.8928696,5 Z M16.170765,8.80327443 L15.0298543,12.2260063 L11.6065489,12.2260063 L13.8889437,14.5078276 L12.7480331,17.931133 L16.170765,15.6493118 L19.5940705,17.931133 L18.4525862,14.5078276 L20.7344075,12.2260063 L17.3116756,12.2260063 L16.170765,8.80327443 Z" id="形状结合" fill="url(#linearGradient-1)" fill-rule="nonzero"></path>
    </g>
</svg>