<?xml version="1.0" encoding="UTF-8"?>
<svg width="32px" height="32px" viewBox="0 0 32 32" version="1.1" xmlns="http://www.w3.org/2000/svg" xmlns:xlink="http://www.w3.org/1999/xlink">
    <!-- Generator: Sketch 63.1 (92452) - https://sketch.com -->
    <title>设计进度</title>
    <desc>Created with Sketch.</desc>
    <defs>
        <linearGradient x1="50%" y1="0%" x2="50%" y2="100%" id="linearGradient-1">
            <stop stop-color="#BECFFF" offset="0%"></stop>
            <stop stop-color="#E0E8FF" offset="72.9940878%"></stop>
            <stop stop-color="#BECFFF" offset="100%"></stop>
        </linearGradient>
    </defs>
    <g id="设计进度" stroke="none" stroke-width="1" fill="none" fill-rule="evenodd">
        <path d="M15.0246759,5.04059917 C17.8439147,4.7977404 20.6705144,5.65142579 22.882476,7.41399175 C23.283647,7.73412377 24.2700125,8.72027757 24.5902133,9.12136252 C27.8032622,13.1542901 27.8032622,18.8467526 24.5902133,22.8833598 C24.2700125,23.2844447 23.283647,24.2705985 22.882476,24.5907306 C18.8450021,27.8030898 13.1549979,27.8030898 9.11752404,24.5907306 C8.716353,24.2705985 7.72998745,23.2844447 7.4097867,22.8833598 C4.19673777,18.8467526 4.19673777,13.1542901 7.4097867,9.12136252 C7.72998745,8.72027759 8.71635298,7.73412377 9.11752404,7.41399175 C10.7994981,6.0745888 12.9157675,5.22458308 15.0246759,5.04059917 Z M20.9612714,15.6564714 C19.8608114,15.432011 18.679381,15.8625334 18.0095358,16.7346172 C17.2660811,17.7023726 17.1593476,18.9019477 17.7224592,19.9948122 C17.862317,20.2671084 17.9543287,20.3885378 18.2598076,20.6939511 C18.6830615,21.1134345 18.9995818,21.3047777 19.551652,21.4703633 C19.8387286,21.5549959 19.9491426,21.5660349 20.3613551,21.5660349 C20.7735675,21.5660349 20.8876621,21.5549959 21.1636972,21.4703633 C21.7525721,21.2937387 22.1353409,21.0582393 22.5622752,20.6019592 C23.5007946,19.608446 23.6148892,18.0629811 22.8419908,16.9149214 C22.411376,16.278337 21.7084065,15.8073382 20.9612714,15.6564714 Z M20.5637809,16.8118904 L20.5711418,17.720771 L20.5821832,18.6333312 L21.476537,18.6443703 L22.3708908,18.6517296 L22.3598494,19.0859317 L22.348808,19.516454 L21.0606441,19.5274931 C19.8828942,19.5348524 19.7687997,19.5311728 19.7283145,19.4722979 C19.6915098,19.4244621 19.6804684,19.1043301 19.6804684,18.1696917 L19.6806594,18.0137802 C19.6821671,17.3990713 19.6923592,16.9013349 19.7025512,16.8707653 C19.7209536,16.8229294 19.794563,16.8118904 20.1442075,16.8118904 L20.1442075,16.8118904 L20.5637809,16.8118904 Z M16,18.1733714 L12.1489455,18.1737421 C10.2297345,18.175931 9.7343198,18.188217 9.72112088,18.2212072 C9.71375993,18.246965 9.71007945,18.5413393 9.71375993,18.8725103 L9.71375993,18.8725103 L9.72480133,19.4796573 L15.9815977,19.4796573 L15.9926391,18.8246745 L16,18.1733714 Z M17.398578,14.6408801 L13.3338114,14.6409287 C11.3425033,14.6417347 9.74277902,14.6524853 9.73216228,14.6666379 C9.7174404,14.6776769 9.706399,14.9757309 9.706399,15.32898 L9.706399,15.9655644 L13.5635299,15.958205 L17.4169804,15.947166 L17.4280218,15.3768158 C17.4317022,15.0640432 17.4280218,14.7696689 17.4169804,14.7218331 L17.4169804,14.7218331 L17.398578,14.6408801 Z M22.1095776,11.5867471 L9.706399,11.5867471 L9.706399,12.8746345 L22.1095776,12.8746345 L22.1095776,11.5867471 Z" id="形状结合" fill="url(#linearGradient-1)" fill-rule="nonzero"></path>
    </g>
</svg>