<?xml version="1.0" encoding="UTF-8"?>
<svg width="32px" height="32px" viewBox="0 0 32 32" version="1.1" xmlns="http://www.w3.org/2000/svg" xmlns:xlink="http://www.w3.org/1999/xlink">
    <!-- Generator: Sketch 63.1 (92452) - https://sketch.com -->
    <title>质量管理备份</title>
    <desc>Created with Sketch.</desc>
    <defs>
        <linearGradient x1="50%" y1="0%" x2="50%" y2="100%" id="linearGradient-1">
            <stop stop-color="#64C41D" offset="0%"></stop>
            <stop stop-color="#F8FFF3" offset="100%"></stop>
        </linearGradient>
    </defs>
    <g id="质量管理备份" stroke="none" stroke-width="1" fill="none" fill-rule="evenodd">
        <path d="M16.1680413,2.63404815 C18.3520913,3.73749693 20.3302267,4.60597678 22.3954893,5.21664646 C24.2589907,5.76085484 26.0623767,6.03307974 27.79991,6.04083112 L27.79991,6.04083112 L28.1461294,17.7852687 C28.144018,19.9703179 27.1872335,22.0132383 25.3105205,23.9265538 C23.3601499,25.9149636 20.4303634,27.7575692 16.5322328,29.46646 C8.51358702,25.0092187 4.5,21.1545021 4.5,17.7780192 L4.5,17.7780192 L4.5,6.32995556 C6.66884072,6.05111195 8.56151975,5.77638838 10.4827959,5.21671228 C12.5144076,4.62444581 14.4093925,3.76551463 16.1680413,2.63404815 Z M16.3125039,6.71539085 C13.9184832,6.71539085 12.0568186,7.46879622 10.7099394,8.9873364 C9.42073749,10.4072769 8.78131423,12.2437304 8.78131423,14.5282506 C8.78131423,16.7925212 9.42044506,18.6295373 10.7138124,20.0541159 C12.0606435,21.5273347 13.9214071,22.3006202 16.3125039,22.3006202 C17.694207,22.3006202 18.9200524,22.0334967 20.0055304,21.5867076 C20.486417,22.1929373 21.046491,22.8134571 22.0961837,23.4873124 L23.6752509,21.5095174 C23.219533,20.8828514 22.7553006,20.2624366 22.2826839,19.6484455 C23.3188842,18.3111346 23.8648187,16.6037437 23.8648187,14.5282506 C23.8648187,12.2219958 23.203675,10.3627234 21.9082748,8.96046674 C20.5437874,7.4661053 18.6829203,6.71539085 16.3125039,6.71539085 Z M16.3125039,9.73989463 C17.641071,9.73989463 18.6769191,10.1215557 19.3955176,10.9569979 C20.1207222,11.8227209 20.4741438,13.0181925 20.4741438,14.5264901 C20.4741438,15.4747552 20.3293183,16.3002012 20.0473084,16.9921745 C19.5027595,16.3909264 18.9488949,15.7981508 18.3859132,15.2140634 L18.3859132,15.2140634 L16.2567516,16.4624764 C16.9139268,17.6709675 17.4696312,18.4231435 17.9159104,18.9713125 C17.4704504,19.1957544 16.9215452,19.2761164 16.3125039,19.2761164 C14.9836206,19.2761164 13.9304073,18.8574266 13.2101253,18.0009187 C12.4865856,17.1371832 12.1526243,15.9817676 12.1526243,14.5282506 C12.1526243,13.0564957 12.4862459,11.9003587 13.2088664,11.0377144 C13.9487234,10.1614854 14.9823424,9.73989463 16.3125039,9.73989463 Z" id="Shape" stroke="#6CFF00" fill="url(#linearGradient-1)"></path>
    </g>
</svg>