<?xml version="1.0" encoding="UTF-8"?>
<svg width="32px" height="32px" viewBox="0 0 32 32" version="1.1" xmlns="http://www.w3.org/2000/svg" xmlns:xlink="http://www.w3.org/1999/xlink">
    <!-- Generator: Sketch 63.1 (92452) - https://sketch.com -->
    <title>移民管理备份</title>
    <desc>Created with Sketch.</desc>
    <defs>
        <linearGradient x1="50%" y1="0%" x2="50%" y2="100%" id="linearGradient-1">
            <stop stop-color="#64C41D" offset="0%"></stop>
            <stop stop-color="#F8FFF3" offset="100%"></stop>
        </linearGradient>
    </defs>
    <g id="移民管理备份" stroke="none" stroke-width="1" fill="none" fill-rule="evenodd">
        <path d="M25.9593277,2.5 C26.6346995,2.5 27.2487718,2.75926927 27.7042405,3.1830952 C28.1568283,3.60424031 28.4528919,4.18795681 28.4948428,4.84001606 L28.4948428,4.84001606 L28.5,27.0054083 C28.5,27.6685428 28.2377455,28.2711251 27.8105668,28.7182707 C27.3817278,29.1671543 26.7869328,29.4597298 26.1230432,29.5011689 L26.1230432,29.5011689 L6.70317121,29.5062596 C6.01779116,29.5062596 5.36552433,29.2151799 4.87264541,28.761602 C4.38733306,28.3149873 4.05238039,27.7070333 4.00668461,27.0472921 L4.00668461,27.0472921 L4.00326768,26.1449288 L5.98343189,26.1449288 C6.63691212,26.1449288 7.22845914,25.8801008 7.65664126,25.4519186 C8.08482338,25.0237365 8.34965144,24.4321895 8.34965144,23.7787093 C8.34965144,23.158705 8.11122723,22.5944708 7.7211382,22.1725827 C7.3237009,21.7427473 6.76871029,21.4609249 6.14800966,21.4181426 L6.14800966,21.4181426 L4.00137078,21.4135567 L4.00137078,18.6800785 L5.98343189,18.6800785 C6.63691212,18.6800785 7.22845914,18.4152505 7.65664126,17.9870684 C8.08482338,17.5588862 8.34965144,16.9673392 8.34965144,16.313859 C8.34965144,15.6938547 8.11122723,15.1296205 7.7211382,14.7077324 C7.3237009,14.277897 6.76871029,13.9960746 6.14800966,13.9532924 L6.14800966,13.9532924 L4.00137078,13.9487065 L4.00137078,11.2152283 L5.98343189,11.2152283 C6.63691212,11.2152283 7.22845914,10.9504002 7.65664126,10.5222181 C8.08482338,10.094036 8.34965144,9.50248895 8.34965144,8.84900872 C8.34965144,8.22900442 8.11122723,7.66477026 7.7211382,7.24288214 C7.3237009,6.81304674 6.76871029,6.53122438 6.14800966,6.4884421 L6.14800966,6.4884421 L4.00137078,6.48385619 L4.00137078,5.11159548 C4.00137078,4.44713781 4.30028587,3.82521359 4.75844622,3.35529473 C5.22649993,2.8752286 5.86445077,2.54942925 6.54565629,2.5051327 L6.54565629,2.5051327 Z M18.9624344,7.10125191 C18.3500439,7.10125191 17.7857921,7.35677941 17.3759172,7.77063365 C16.9693662,8.18113175 16.7159169,8.74616439 16.7159169,9.36472596 C16.7159169,9.98586501 16.9670791,10.5524326 17.3737642,10.9630661 L17.3932023,10.979594 C17.1902017,11.0114481 16.9787569,11.0673758 16.7594343,11.1490322 L12.9131939,12.4614579 C12.5479773,12.614894 12.2439015,12.9505333 12.0788726,13.4987666 L11.7043428,16.6146611 C11.6866196,16.9377415 11.798527,17.2614142 12.0021876,17.5239499 C12.184511,17.7589802 12.4191742,17.9769057 13.2559136,18.0802134 C13.5655122,18.0475245 13.8414616,17.9214803 14.0496712,17.731464 C14.1688358,17.622712 14.272648,17.4950451 14.3477075,17.3122428 C14.3910323,17.5273808 14.4539165,17.7480692 14.5382962,17.972841 L12.1098719,23.6672859 C11.9822373,24.0624729 12.0096267,24.4974923 12.1698451,24.8696282 C12.3152291,25.2073084 12.4925821,25.5742805 13.7398383,25.7359921 C14.0561205,25.7359921 14.3445021,25.6582458 14.5883823,25.5121833 C14.8180606,25.3746264 15.0211696,25.183682 15.2262547,24.7375143 L16.7285144,21.6524747 C17.6066702,23.22107 18.4624344,24.6951809 18.530545,25.0131461 C18.8670579,25.5900254 19.4267439,25.9055569 19.9967798,25.9055569 C20.1985684,25.9055569 20.5162028,25.8075213 20.8058259,25.6862598 C21.2037107,25.4571745 21.4846878,25.0870977 21.6070592,24.6762794 C21.719567,24.2985747 21.7313041,23.8794614 21.3302399,23.1586927 C20.8939744,22.3413923 19.5113453,19.7518563 18.3363869,17.7276526 L18.9939195,16.2507333 L19.434175,16.8204756 L22.4246307,17.9327793 C22.7710094,17.9553375 23.0861897,17.8590712 23.3444613,17.6666335 C23.5632881,17.5035861 23.7431858,17.2687057 23.8802898,16.8795599 C23.9380587,16.5560536 23.8925007,16.2048063 23.7543832,15.9019622 C23.6196037,15.6064372 23.4085213,15.3463112 22.9509985,15.1420477 L20.9641196,14.4009104 L19.3024876,11.6016772 C19.7818144,11.5263727 20.2162432,11.2947569 20.5489516,10.9588182 C20.9555026,10.5483201 21.208952,9.9832875 21.208952,9.36472596 C21.208952,8.75448176 20.9545879,8.18656559 20.5447306,7.77272907 C20.1350003,7.35902082 19.5722838,7.10125191 18.9624344,7.10125191 Z" id="形状结合" stroke="#6CFF00" fill="url(#linearGradient-1)"></path>
    </g>
</svg>