<?xml version="1.0" encoding="UTF-8"?>
<svg width="48px" height="48px" viewBox="0 0 48 48" version="1.1" xmlns="http://www.w3.org/2000/svg" xmlns:xlink="http://www.w3.org/1999/xlink">
    <!-- Generator: Sketch 63.1 (92452) - https://sketch.com -->
    <title>系统管理</title>
    <desc>Created with Sketch.</desc>
    <defs>
        <linearGradient x1="50%" y1="0%" x2="50%" y2="100%" id="linearGradient-1">
            <stop stop-color="#BECFFF" offset="0%"></stop>
            <stop stop-color="#E0E8FF" offset="72.9940878%"></stop>
            <stop stop-color="#BECFFF" offset="100%"></stop>
        </linearGradient>
    </defs>
    <g id="系统管理" stroke="none" stroke-width="1" fill="none" fill-rule="evenodd">
        <path d="M39.4564181,36.5363144 C39.7580069,36.5363144 40,36.8879164 40,37.321758 L40,39.1729688 C40,39.6065479 39.7580069,39.9582155 39.4564181,39.9582155 L26.3131829,39.9582155 C26.0132349,39.9582155 25.7712418,39.6065807 25.7712418,39.1730344 L25.7712418,37.321758 C25.7712418,36.8901151 26.0132677,36.5363144 26.3131829,36.5363144 L39.4564181,36.5363144 Z M26.2216889,8.00001843 C27.2680282,7.99895405 28.1301654,8.8208903 28.1781768,9.86509655 L28.1781768,9.86509655 L28.4984713,12.207185 C29.4557447,12.6112804 30.3599685,13.1310057 31.1909804,13.7547722 L31.1909804,13.7547722 L33.3762689,12.862148 C34.3073875,12.3854473 35.4496512,12.7216909 35.9722958,13.6269169 L35.9722958,13.6269169 L38.7039228,18.3544123 C39.2271253,19.2581287 38.9487053,20.4129941 38.0710456,20.979712 L38.0710456,20.979712 L36.198832,22.429209 C36.3157035,23.3224271 36.3318193,24.2259505 36.2468762,25.1227682 L36.2468762,25.1227682 L30.0801883,25.1227682 C30.4137687,23.1793752 29.8729108,21.1878076 28.6021076,19.6801233 C27.3314308,18.1717853 25.4592171,17.2992451 23.4855987,17.2954055 C19.7902986,17.3003937 16.796496,20.2912428 16.7926564,23.9816204 C16.7951505,27.6702587 19.7870169,30.6611077 23.4809715,30.6674742 L23.4809715,30.6674742 L23.4809715,39.9581872 L20.7493117,39.9581872 C19.701594,39.9604143 18.8382755,39.136509 18.792791,38.0908916 L18.792791,38.0908916 L18.4705274,35.7466045 C17.5057713,35.3358004 16.6008407,34.8173892 15.7777886,34.1987875 L15.7777886,34.1987875 L13.5905311,35.0914445 C13.1594663,35.3173139 12.6592075,35.3727602 12.1891439,35.2467677 C11.681628,35.1097236 11.2610116,34.7832923 10.9958826,34.3336 L10.9958826,34.3336 L8.26451809,29.6038403 C7.73918248,28.6998942 8.01947305,27.5432566 8.90018467,26.978639 L8.90018467,26.978639 L10.7696089,25.5360007 C10.640049,24.5052025 10.640049,23.4622389 10.7696089,22.4314406 L10.7696089,22.4314406 L8.90454934,20.9819764 C8.02492068,20.4190652 7.74246419,19.2662017 8.26231935,18.3614351 L8.26231935,18.3614351 L10.9958497,13.6269169 C11.5165581,12.7212643 12.6582639,12.3844628 13.5882996,12.862148 L13.5882996,12.862148 L15.7777558,13.7547722 C16.6097614,13.1323716 17.5139,12.612746 18.4705274,12.207185 L18.4705274,12.207185 L18.7927582,9.86509655 C18.83693,8.81931509 19.7013315,7.99550826 20.7493117,8.00001843 L20.7493117,8.00001843 Z M39.4564181,31.859226 C39.7580069,31.859226 40,32.2105983 40,32.644243 L40,34.4956507 C40,34.9294923 39.7580069,35.2808646 39.4564181,35.2808646 L26.3131829,35.2808646 C26.0132349,35.2808646 25.7712418,34.9294267 25.7712418,34.4956507 L25.7712418,32.644243 C25.7712418,32.2082683 26.0132677,31.859226 26.3131829,31.859226 L39.4564181,31.859226 Z M39.4564181,27.1796764 C39.7580069,27.1796764 40,27.5333459 40,27.9648575 L40,29.816101 C40,30.2476783 39.7580069,30.5990506 39.4564181,30.5990506 L26.3131829,30.5990506 C26.0132349,30.5990506 25.7712418,30.2476783 25.7712418,29.8138367 L25.7712418,27.9648575 C25.7712418,27.5332802 26.0132677,27.1796764 26.3131829,27.1796764 L39.4564181,27.1796764 Z M22.9872388,19.6442871 C24.2245914,19.5038126 25.4632171,19.8969042 26.3931252,20.7251828 C27.3223844,21.5527382 27.8546107,22.7373189 27.8562413,23.9816532 C27.8549717,24.3674071 27.8017339,24.7512314 27.6979646,25.1227682 L27.6979646,25.1227682 L25.3577796,25.1228011 C24.8607672,25.1226929 24.3841314,25.320323 24.0330202,25.6720931 C23.6822351,26.0235334 23.4860124,26.5003071 23.4877975,26.9968525 L23.4877975,26.9968525 L23.4877975,28.3483249 C22.2423734,28.3467172 21.0565339,27.8149542 20.2269296,26.8860621 C19.3979545,25.9579685 19.0042792,24.7203074 19.144754,23.4838511 C19.3823496,21.4705241 20.9712207,19.8827031 22.9872388,19.6442871 Z" id="形状结合" fill="url(#linearGradient-1)" fill-rule="nonzero"></path>
    </g>
</svg>