<?xml version="1.0" encoding="UTF-8"?>
<svg width="32px" height="32px" viewBox="0 0 32 32" version="1.1" xmlns="http://www.w3.org/2000/svg" xmlns:xlink="http://www.w3.org/1999/xlink">
    <!-- Generator: Sketch 63.1 (92452) - https://sketch.com -->
    <title>大屏集成展示备份</title>
    <desc>Created with Sketch.</desc>
    <defs>
        <linearGradient x1="50%" y1="0%" x2="50%" y2="100%" id="linearGradient-1">
            <stop stop-color="#4CD964" offset="0%"></stop>
            <stop stop-color="#F2FCFE" offset="100%"></stop>
        </linearGradient>
    </defs>
    <g id="大屏集成展示备份" stroke="none" stroke-width="1" fill="none" fill-rule="evenodd">
        <path d="M16,21.5157895 C18.3092083,21.5442542 20.5759008,22.1407523 22.6,23.2526316 C22.7306412,23.3492382 22.8146742,23.4962959 22.8315789,23.6578948 L22.8315789,25.2210527 C22.8315789,25.4768477 22.6242161,25.6842106 22.3684211,25.6842106 L9.63157893,25.6842106 C9.3757839,25.6842106 9.16842106,25.4768477 9.16842106,25.2210527 L9.16842106,23.6578948 C9.18532581,23.4962959 9.26935878,23.3492382 9.39999999,23.2526316 C11.4240992,22.1407523 13.6907917,21.5442542 16,21.5157895 Z M26.2473684,6 C26.4469787,6 26.6384135,6.07929489 26.7795593,6.22044069 C26.892476,6.33335734 26.965808,6.47845893 26.9906242,6.63418338 L27,6.7526316 L27,21.0526316 C27,21.3084266 26.8156775,21.5211708 26.5726072,21.5652894 L26.4789474,21.5736842 L26.3052632,21.5736842 C22.9506339,20.6312348 19.4844542,20.1444118 16,20.1263158 C12.5155458,20.1444118 9.04936611,20.6312348 5.69473684,21.5736842 C5.4295116,21.6152296 5.17076998,21.4861037 5.04196849,21.2583227 L5,21.1684211 L5,6.7526316 C5,6.55302129 5.07929487,6.3615865 5.22044067,6.22044069 C5.33335731,6.10752405 5.47845891,6.03419199 5.63418336,6.00937583 L5.75263157,6 L26.2473684,6 Z M11.8,14.6 L10.4,14.6 L10.4,18.2 L11.8,18.2 L11.8,14.6 Z M15,13.6 L13.6,13.6 L13.6,18.2 L15,18.2 L15,13.6 Z M18.4,13.2 L17,13.2 L17,18.2 L18.4,18.2 L18.4,13.2 Z M21.6,12 L20.2,12 L20.2,18.2 L21.6,18.2 L21.6,12 Z M20,8 L20.4,9 L14.8,11.8 L12.8,10.4 L10,12.6 L10,14 L12.8,11.6 L15,13 L21,10 L21.4,10.6 L22.4,8.4 L20,8 Z" id="形状结合" fill="url(#linearGradient-1)" fill-rule="nonzero"></path>
    </g>
</svg>