<?xml version="1.0" encoding="UTF-8"?>
<svg width="32px" height="32px" viewBox="0 0 32 32" version="1.1" xmlns="http://www.w3.org/2000/svg" xmlns:xlink="http://www.w3.org/1999/xlink">
    <!-- Generator: Sketch 63.1 (92452) - https://sketch.com -->
    <title>资金计划备份</title>
    <desc>Created with Sketch.</desc>
    <defs>
        <linearGradient x1="50%" y1="0%" x2="50%" y2="100%" id="linearGradient-1">
            <stop stop-color="#4CD964" offset="0%"></stop>
            <stop stop-color="#F2FCFE" offset="100%"></stop>
        </linearGradient>
    </defs>
    <g id="资金计划备份" stroke="none" stroke-width="1" fill="none" fill-rule="evenodd">
        <path d="M21.5,17.8333333 L21.5,22.1111111 L25.7777778,22.1105 C25.7781452,24.416229 23.9510401,26.3073909 21.6466667,26.3864444 L21.5,26.3888889 C19.1375764,26.388708 17.2225497,24.4735347 17.2225497,22.1111111 C17.2225497,19.7486875 19.1375764,17.8335142 21.5,17.8333333 Z M5,19.0268333 C6.71538888,20.433 10.3246111,21.1767222 13.7773889,21.1767222 C14.5516667,21.1767222 15.3332778,21.1388333 16.0996111,21.0655 C16.0330004,21.410043 15.9996434,21.7601884 16,22.1111111 C16,22.9287777 16.1784444,23.7042778 16.4980556,24.4015555 C15.6547222,24.5005555 14.7435556,24.5555555 13.7773889,24.5555555 C8.60555555,24.5555555 5,22.9801111 5,21.5666111 L5,19.0268333 Z M22.7222222,16.6111111 C25.0277142,16.6111111 26.9185101,18.4380857 26.9975556,20.7422222 L27,20.8888889 L22.7222222,20.8888889 L22.7222222,16.6111111 L22.7222222,16.6111111 Z M22.5547778,14.2552778 L22.5547778,16.7119444 C19.9853966,16.2101114 17.4182508,17.5882526 16.4167778,20.0070555 C15.540412,20.1050114 14.659211,20.1533663 13.7773889,20.1519217 C8.68805556,20.1519217 5.11672222,18.6277778 5.00305556,17.232 L5,17.1635555 L5,14.2546666 C6.71538888,15.6614444 10.3246111,16.4051666 13.7773889,16.4051667 C17.2301667,16.4051667 20.8393889,15.6614444 22.5547778,14.2552778 Z M22.5547778,9.8522222 L22.5547778,12.3913889 C22.5547778,13.8055 18.9498333,15.3803333 13.7773889,15.3803333 C8.68805556,15.3803333 5.11672222,13.8562222 5.00305556,12.4604444 L5,12.3913889 L5,9.8522222 C6.71538888,11.2577777 10.3246111,12.0015 13.7773889,12.0015 C17.2301667,12.0015 20.8393889,11.2583889 22.5547778,9.8522222 Z M13.7773889,5 C18.9498333,5 22.5547778,6.57483333 22.5547778,7.98833333 C22.5547778,9.40183333 18.9498333,10.9772778 13.7773889,10.9772778 C8.60555555,10.9772778 5,9.40183333 5,7.98894444 C5,6.57422221 8.60494444,5 13.7773889,5 Z" id="形状" fill="url(#linearGradient-1)" fill-rule="nonzero"></path>
    </g>
</svg>