<?xml version="1.0" encoding="UTF-8"?>
<svg width="32px" height="32px" viewBox="0 0 32 32" version="1.1" xmlns="http://www.w3.org/2000/svg" xmlns:xlink="http://www.w3.org/1999/xlink">
    <!-- Generator: Sketch 63.1 (92452) - https://sketch.com -->
    <title>安全监测备份</title>
    <desc>Created with Sketch.</desc>
    <defs>
        <linearGradient x1="50%" y1="0%" x2="50%" y2="100%" id="linearGradient-1">
            <stop stop-color="#4CD964" offset="0%"></stop>
            <stop stop-color="#F2FCFE" offset="100%"></stop>
        </linearGradient>
        <linearGradient x1="50%" y1="0%" x2="50%" y2="100%" id="linearGradient-2">
            <stop stop-color="#4CD964" offset="0%"></stop>
            <stop stop-color="#F2FCFE" offset="100%"></stop>
        </linearGradient>
        <linearGradient x1="50%" y1="0%" x2="50%" y2="100%" id="linearGradient-3">
            <stop stop-color="#4CD964" offset="0%"></stop>
            <stop stop-color="#F2FCFE" offset="100%"></stop>
        </linearGradient>
    </defs>
    <g id="安全监测备份" stroke="none" stroke-width="1" fill="none" fill-rule="evenodd">
        <g id="编组" transform="translate(5.000000, 5.000000)" fill-rule="nonzero">
            <path d="M3.11142857,15.9971429 C4.68285714,18.6371429 7.57428571,20.2714286 10.9685714,20.2714286 C14.2685714,20.2714286 17.5685714,18.7 18.7628571,16.0914286 C16.1542857,15.62 13.2314286,15.9028571 10.7171429,16.0914286 C8.20285716,16.28 5.65714286,16.2485714 3.11142857,15.9971429 M8.36,14.08 C8.36,13.7971429 8.58,13.5457143 8.86285714,13.5457143 L13.3257143,13.5457143 C13.6085714,13.5457143 13.8285714,13.7657143 13.8285714,14.0485714 C13.8285714,14.3314286 13.6085714,14.5514286 13.3257143,14.5514286 L8.86285714,14.5514286 C8.58,14.5828571 8.36,14.3628571 8.36,14.08 Z" id="形状" fill="url(#linearGradient-1)"></path>
            <path d="M11,0 C4.93428571,0 0,4.93428571 0,11 C0,17.0657143 4.93428571,22 11,22 C17.0657143,22 22,17.0657143 22,11 C22,4.93428571 17.0657143,0 11,0 Z M11,20.0828571 C7.26,20.0828571 3.86571429,17.7885714 2.51428571,14.2685714 L4.58857143,13.5771429 C4.84,13.4514286 4.96571429,13.1685714 4.87142857,12.8857143 C4.77714286,12.6657143 4.52571427,12.54 4.27428571,12.5714286 L2.2,13.3257143 C1.79142857,11.8171429 1.79142857,10.2142857 2.2,8.70571429 L4.27428571,9.39714286 C4.55714284,9.49142857 4.84,9.33428573 4.93428571,9.05142857 C5.02857141,8.76857143 4.87142857,8.48571427 4.62,8.39142857 L2.51428571,7.7 C3.08,6.25428571 4.02285714,4.96571429 5.24857143,3.96 L6.53714286,5.72 C6.69428573,5.94 7.04,6.00285714 7.26,5.84571429 C7.48,5.68857145 7.54285714,5.34285716 7.38571429,5.12285714 L6.12857143,3.36285714 C7.44857143,2.51428571 8.95714286,2.01142857 10.5285714,1.91714286 L10.5285714,4.11714286 C10.4971429,4.4 10.7171429,4.65142857 11,4.68285714 C11.2828571,4.71428571 11.5342857,4.49428571 11.5657143,4.21142857 L11.5657143,1.91714286 C13.1371429,2.01142857 14.6457143,2.51428573 15.9657143,3.36285714 L14.6771429,5.12285714 C14.52,5.34285714 14.5514286,5.68857143 14.8028571,5.84571429 C15.0228571,6.00285716 15.3685714,5.97142859 15.5257143,5.72 L16.7828571,3.96 C18.0085714,4.96571429 18.92,6.25428571 19.5171429,7.7 L17.4428571,8.36 C17.16,8.45428571 17.0342857,8.73714286 17.1285714,9.02 C17.2228571,9.30285714 17.5057143,9.42857143 17.7885714,9.33428571 L19.8628571,8.67428571 C20.2714286,10.1828571 20.2714286,11.7857143 19.8628571,13.2942857 L17.7885714,12.6028571 C17.5057143,12.54 17.2228571,12.7285714 17.16,13.0114286 C17.0971429,13.2628571 17.2228571,13.5142857 17.4742857,13.6085714 L19.5485714,14.3 C18.1342857,17.7885714 14.74,20.0828571 11,20.0828571 Z" id="形状" fill="url(#linearGradient-2)"></path>
            <path d="M12.6971429,11.0314286 C12.6971429,11.9114286 11.9742857,12.6342857 11.0942857,12.6342857 C10.2142857,12.6342857 9.49142857,11.9114286 9.49142857,11.0314286 C9.49142857,10.1514286 11.0942857,5.81428571 11.0942857,5.81428571 C11.0942857,5.81428571 12.6971429,10.12 12.6971429,11.0314286 Z" id="路径" fill="url(#linearGradient-3)"></path>
        </g>
    </g>
</svg>