<?xml version="1.0" encoding="UTF-8"?>
<svg width="32px" height="32px" viewBox="0 0 32 32" version="1.1" xmlns="http://www.w3.org/2000/svg" xmlns:xlink="http://www.w3.org/1999/xlink">
    <!-- Generator: Sketch 63.1 (92452) - https://sketch.com -->
    <title>验收管理</title>
    <desc>Created with Sketch.</desc>
    <defs>
        <linearGradient x1="50%" y1="0%" x2="50%" y2="100%" id="linearGradient-1">
            <stop stop-color="#BECFFF" offset="0%"></stop>
            <stop stop-color="#E0E8FF" offset="72.9940878%"></stop>
            <stop stop-color="#BECFFF" offset="100%"></stop>
        </linearGradient>
    </defs>
    <g id="验收管理" stroke="none" stroke-width="1" fill="none" fill-rule="evenodd">
        <path d="M21.4277609,16.8640321 C24.2253742,16.8640321 26.4957449,19.1322508 26.4957449,21.932016 C26.4957449,24.7317813 24.2275262,27 21.4277609,27 C18.6279957,27 16.359777,24.7317813 16.359777,21.932016 C16.359777,19.1322508 18.6301477,16.8640321 21.4277609,16.8640321 Z M15.516189,5 C15.9831752,5 16.359777,5.37875379 16.359777,5.84358799 L17.8188399,5.84358799 C18.6899055,5.84358799 19.4107362,6.449893 19.5362115,7.24020914 L21.7720826,7.24024259 C22.5769344,7.24024259 23.2289934,7.90521373 23.2268467,8.72512961 L23.2268467,8.72512961 L23.2268467,15.7320747 C22.5683263,15.5018096 21.862467,15.374841 21.1286315,15.374841 C17.5799667,15.374841 14.7005771,18.3101829 14.7005771,21.927712 C14.7005771,23.4836154 15.2321236,24.9103981 16.1187518,26.0337474 L16.1187518,26.0337474 L7.45691089,26.0337474 C6.65421109,26.0337474 6,25.3709283 6,24.5488604 L6,24.5488604 L6,8.72512961 C6,7.90521373 6.65205908,7.24024259 7.45691089,7.24024259 L7.45691089,7.24024259 L10.0344301,7.24020914 C10.1582749,6.449893 10.8791056,5.84358799 11.7501712,5.84358799 L11.7501712,5.84358799 L13.2070821,5.84358799 L13.2070821,5.84358799 C13.2070821,5.37660178 13.5858359,5 14.0506701,5 L15.516189,5 Z M24.827937,19.5153086 C24.5653918,19.2527634 24.1414458,19.2527634 23.8789005,19.5153086 L23.8789005,19.5153086 L20.4658124,22.9283968 L18.9766213,21.4392057 C18.7140761,21.1766605 18.2901301,21.1766605 18.0275849,21.4392057 C17.7650396,21.701751 17.7650396,22.125697 18.0275849,22.3882422 L18.0275849,22.3882422 L19.9902181,24.3508755 C20.1214908,24.4821481 20.2936516,24.5467084 20.4658124,24.5467084 C20.6379732,24.5467084 20.810134,24.4821481 20.9414066,24.3508755 L20.9414066,24.3508755 L24.827937,20.4621931 C25.0904822,20.1996479 25.0904822,19.7757018 24.827937,19.5153086 Z M13.0456813,20.231928 L9.31839969,20.231928 C8.80622127,20.231928 8.3908833,20.653722 8.3908833,21.1766605 C8.3908833,21.6974469 8.80622127,22.1213929 9.31839969,22.1213929 L9.31839969,22.1213929 L13.0456813,22.1213929 C13.5578597,22.1213929 13.9731977,21.6995989 13.9731977,21.1766605 C13.9731977,20.655874 13.5557077,20.231928 13.0456813,20.231928 L13.0456813,20.231928 Z M15.4021324,15.583586 L9.31839969,15.583586 C8.80622127,15.583586 8.3908833,16.00538 8.3908833,16.5283185 C8.3908833,17.051257 8.80837328,17.473051 9.31839969,17.473051 L9.31839969,17.473051 L15.4042845,17.473051 C15.9143109,17.473051 16.3296488,17.051257 16.3296488,16.5283185 C16.3296488,16.007532 15.9143109,15.583586 15.4021324,15.583586 L15.4021324,15.583586 Z M19.7212169,10.9373961 L9.31839969,10.9373961 C8.80622127,10.9373961 8.3908833,11.3591901 8.3908833,11.8821285 C8.3908833,12.405067 8.80837328,12.826861 9.31839969,12.826861 L9.31839969,12.826861 L19.7212169,12.826861 C20.2333953,12.826861 20.6487332,12.405067 20.6487332,11.8821285 C20.6487332,11.3613421 20.2333953,10.9373961 19.7212169,10.9373961 L19.7212169,10.9373961 Z M15.048908,6.68746301 L14.5201135,6.68746301 C14.1023358,6.77825558 13.763637,7.07976164 13.62242,7.4748117 L13.62242,7.4748117 C13.5708079,7.60551832 13.5449477,7.74675348 13.5449477,7.89445368 C13.5449477,8.57879292 14.0980143,9.13185953 14.7823535,9.13185953 C15.4666928,9.13185953 16.0197594,8.57879292 16.0197594,7.89445368 C16.0197594,7.65558055 15.950895,7.42961949 15.8325345,7.24024259 L15.8325345,7.24024259 C15.6602987,6.96272345 15.379238,6.7592424 15.048908,6.68746301 Z" id="形状结合" fill="url(#linearGradient-1)" fill-rule="nonzero"></path>
    </g>
</svg>