<?xml version="1.0" encoding="UTF-8"?>
<svg width="32px" height="32px" viewBox="0 0 32 32" version="1.1" xmlns="http://www.w3.org/2000/svg" xmlns:xlink="http://www.w3.org/1999/xlink">
    <!-- Generator: Sketch 63.1 (92452) - https://sketch.com -->
    <title>专家会商备份</title>
    <desc>Created with Sketch.</desc>
    <defs>
        <linearGradient x1="50%" y1="0%" x2="50%" y2="100%" id="linearGradient-1">
            <stop stop-color="#64C41D" offset="0%"></stop>
            <stop stop-color="#F8FFF3" offset="100%"></stop>
        </linearGradient>
    </defs>
    <g id="专家会商备份" stroke="none" stroke-width="1" fill="none" fill-rule="evenodd">
        <path d="M6.22217272,12.0372424 C5.57771143,12.0372424 4.99424265,12.2983759 4.57186469,12.7206356 C4.14951766,13.1428644 3.88824483,13.7261934 3.88811416,14.370609 L3.89306693,21.206141 C3.93142178,21.7838101 4.19090075,22.3008897 4.58734933,22.6738669 C4.98467663,23.0476707 5.51978683,23.2766433 6.10840418,23.2766433 L9.84170835,23.2766433 L10.1112481,28.500476 L13.3656101,28.2316576 L13.3602777,21.4692324 C13.3245963,21.0011944 13.1113759,20.5828727 12.7881371,20.2810681 C12.4634267,19.9778897 12.0274623,19.7923855 11.5481908,19.7923855 L8.55626253,19.7921951 L8.55060006,14.2141785 C8.51046139,13.6067426 8.23768133,13.0629807 7.82082067,12.670799 C7.40321465,12.2779161 6.84080351,12.0372424 6.22217272,12.0372424 Z M25.777986,12.0372424 C25.1336995,12.0372424 24.5503763,12.298401 24.1280903,12.7206398 C23.7057901,13.1428927 23.4445341,13.7262378 23.4444034,14.370609 L23.4444034,19.7912231 L20.3121236,19.7975176 C19.8439439,19.8330689 19.4254617,20.0462626 19.1235235,20.369554 C18.8218377,20.6925752 18.6365944,21.125737 18.6345654,21.6021616 L18.9036367,28.500476 L22.15784,28.2317053 L22.15784,23.277368 L26.0411062,23.2717359 C26.6188664,23.2335467 27.1360854,22.9741075 27.5091841,22.5776447 C27.8830688,22.1803468 28.112141,21.6452377 28.1122032,21.0566179 L28.1069755,14.2136064 C28.0665646,13.6062902 27.7936422,13.0627011 27.3767385,12.6706482 C26.9590371,12.2778452 26.3965937,12.0372424 25.777986,12.0372424 Z M15.7999343,17.2712167 L13.6635882,10.8645632 L12.6541588,11.1875747 C12.2336766,11.3626211 11.8852205,11.6533291 11.641957,12.0143003 C11.399182,12.3745466 11.2613265,12.8047577 11.2613265,13.2590032 L11.2048224,17.2462758 L15.7999343,17.2712167 Z M16.2156723,17.2734732 L20.7389909,17.2980245 L20.733356,13.1002444 C20.7015312,12.652704 20.5359953,12.2346011 20.2703082,11.8917891 C20.0047262,11.5491126 19.6390667,11.2817036 19.2065793,11.1348182 L18.567295,10.7522803 L16.2156723,17.2734732 Z M6.10459602,5.44041218 C5.38652989,5.44041218 4.73548242,5.73269881 4.26387859,6.20425444 C3.79231823,6.67576659 3.5,7.32668901 3.5,8.04469086 C3.5,8.7627319 3.79234522,9.41375258 4.26393976,9.88534713 C4.7355343,10.3569417 5.38655499,10.6492869 6.10459602,10.6492869 C6.82261255,10.6492869 7.4735801,10.3569598 7.94513387,9.88540605 C8.41671027,9.41382965 8.70903338,8.76283444 8.70903338,8.04484954 C8.70903338,7.32681554 8.41673095,6.6758306 7.94517295,6.20427261 C7.47361496,5.73271461 6.82263002,5.44041218 6.10459602,5.44041218 Z M25.8955626,5.44041218 C25.1775287,5.44041218 24.5265437,5.73271461 24.0549857,6.20427261 C23.5834277,6.6758306 23.2911253,7.32681554 23.2911253,8.04484954 C23.2911253,8.76283444 23.5834484,9.41382965 24.0550248,9.88540605 C24.5265786,10.3569598 25.1775461,10.6492869 25.8955626,10.6492869 C26.6135792,10.6492869 27.2645467,10.3569598 27.7361005,9.88540605 C28.2076769,9.41382965 28.5,8.76283444 28.5,8.04484954 C28.5,7.32681554 28.2076976,6.6758306 27.7361396,6.20427261 C27.2645816,5.73271461 26.6135966,5.44041218 25.8955626,5.44041218 Z M16.1941364,3.5 C15.4761024,3.5 14.8251175,3.79230243 14.3535595,4.26386042 C13.8820015,4.73541841 13.5896991,5.38640336 13.5896991,6.10443735 C13.5896325,6.82248216 13.881919,7.47343331 14.3534609,7.9449752 C14.8250422,8.41655651 15.4760797,8.7088747 16.1941364,8.7088747 C16.9121704,8.7088747 17.5631554,8.41657227 18.0347134,7.94501428 C18.5062713,7.47345629 18.7985738,6.82247134 18.7985738,6.10443735 C18.7985738,5.38640336 18.5062713,4.73541841 18.0347134,4.26386042 C17.5631554,3.79230243 16.9121704,3.5 16.1941364,3.5 Z" id="形状结合" stroke="#6CFF00" fill="url(#linearGradient-1)"></path>
    </g>
</svg>