<?xml version="1.0" encoding="UTF-8"?>
<svg width="48px" height="48px" viewBox="0 0 48 48" version="1.1" xmlns="http://www.w3.org/2000/svg" xmlns:xlink="http://www.w3.org/1999/xlink">
    <!-- Generator: Sketch 63.1 (92452) - https://sketch.com -->
    <title>规划设计备份 2</title>
    <desc>Created with Sketch.</desc>
    <defs>
        <linearGradient x1="50%" y1="0%" x2="50%" y2="100%" id="linearGradient-1">
            <stop stop-color="#4CD964" offset="0%"></stop>
            <stop stop-color="#F2FCFE" offset="100%"></stop>
        </linearGradient>
    </defs>
    <g id="规划设计备份-2" stroke="none" stroke-width="1" fill="none" fill-rule="evenodd">
        <path d="M38.3109716,17.5450516 C39.2319899,16.6240334 39.2285143,15.1295509 38.3074961,14.2050571 L33.7927688,9.69380541 C32.868275,8.76931161 31.3737926,8.76931161 30.4527743,9.69032986 L25.8546341,14.2849945 L33.7024048,22.1501429 L38.3109716,17.5450516 L38.3109716,17.5450516 Z M12.0671646,28.0689885 C11.58754,28.5486131 11.2295593,29.1359795 11.0245024,29.7859056 L9.07819966,36.8968617 C8.68893912,38.1341541 9.85672076,39.3019357 11.0940132,38.9126752 L18.2049693,36.9663725 C18.8514198,36.7613156 19.4422617,36.4068104 19.9218863,35.9271858 L21.6909365,34.1581357 L13.8466414,26.2895118 L12.0671646,28.0689885 L12.0671646,28.0689885 Z M17.6627849,10.211661 C16.6548782,9.20375418 15.0213741,9.20375418 14.0134673,10.211661 L9.75593008,14.4691982 C8.74802331,15.477105 8.74802331,17.110609 9.75593008,18.1185158 L11.7717436,20.1343294 L15.5114253,16.3911721 C16.0119032,15.8872187 16.8286552,15.8872187 17.329133,16.3911721 C17.8296109,16.8951255 17.8296109,17.708402 17.329133,18.2123554 L13.5894514,21.9555126 L15.4106346,23.7766959 L17.6315051,21.5488744 C18.1319829,21.044921 18.948735,21.044921 19.4492128,21.5488744 C19.9496906,22.0528278 19.9496906,22.8661043 19.4492128,23.3700577 L17.2283424,25.5978792 L19.0460501,27.4155869 L22.7822562,23.6759052 C23.2827341,23.1719518 24.0994861,23.1719518 24.599964,23.6759052 C25.1004418,24.1798586 25.1004418,24.9931351 24.599964,25.4970885 L20.8672334,29.2367702 L22.6884166,31.0579534 L22.7057943,31.0405757 L24.9092871,28.8336075 C25.4097649,28.3296541 26.226517,28.3296541 26.7269948,28.8336075 C27.2274727,29.3375609 27.2274727,30.1508374 26.7269948,30.6547907 L24.5235021,32.861759 C24.5200265,32.8652346 24.5130755,32.8721856 24.5061244,32.8756612 L26.3238321,34.6933689 L30.0565627,30.9571628 C30.5570405,30.4532094 31.3737926,30.4532094 31.8742704,30.9571628 C32.3747483,31.4611162 32.3747483,32.2743927 31.8742704,32.778346 L28.1415398,36.5145522 L30.3311304,38.7041428 C31.3390372,39.7120495 32.9725413,39.7120495 33.980448,38.7041428 L38.2379853,34.4466055 C39.245892,33.4386988 39.245892,31.8051947 38.2379853,30.7972879 L17.6627849,10.211661 Z" id="形状" fill="url(#linearGradient-1)" fill-rule="nonzero"></path>
    </g>
</svg>