<?xml version="1.0" encoding="UTF-8"?>
<svg width="32px" height="32px" viewBox="0 0 32 32" version="1.1" xmlns="http://www.w3.org/2000/svg" xmlns:xlink="http://www.w3.org/1999/xlink">
    <!-- Generator: Sketch 63.1 (92452) - https://sketch.com -->
    <title>人员设备备份</title>
    <desc>Created with Sketch.</desc>
    <defs>
        <linearGradient x1="50%" y1="0%" x2="50%" y2="100%" id="linearGradient-1">
            <stop stop-color="#64C41D" offset="0%"></stop>
            <stop stop-color="#F8FFF3" offset="100%"></stop>
        </linearGradient>
    </defs>
    <g id="人员设备备份" stroke="none" stroke-width="1" fill="none" fill-rule="evenodd">
        <path d="M11.2331015,21.8983333 L7.51166666,21.8983333 C5.85758711,21.8983333 4.36272192,22.6507103 3.27940042,23.8579746 C2.17780671,25.0856017 1.5,26.7824868 1.5,28.655 L1.93,29.71 L17.245,29.1716667 L17.245,28.655 C17.245,26.7827078 16.5673436,25.0863941 15.4659673,23.8590093 C14.3825515,22.6516399 12.8874442,21.8991002 11.2331015,21.8983333 Z M28.9066667,3.5 L7.79074246,3.5099871 C7.39601536,3.55636276 7.0455931,3.74632779 6.7930478,4.0259635 C6.53827946,4.30806071 6.38333334,4.6816813 6.38333334,5.09166666 L6.81451514,10.6092081 L7.52691149,3.895 L28.905,3.895 C29.2353515,3.89499904 29.5345407,4.02869136 29.7513386,4.24497193 C29.9709692,4.46407826 30.1060416,4.76794502 30.1032943,5.10343779 L29.383762,21.638941 L15.6885249,21.6692704 C15.8471164,21.7854865 16.0020212,21.9068967 16.1529789,22.0333333 L23.825,22.0333333 L23.825,26.5233333 L19.2718178,26.9183333 L25.6166667,26.5233333 L24.22,26.5233333 L24.22,22.034468 L29.0942059,22.0233944 C29.4882272,21.9778134 29.8382151,21.7881924 30.090495,21.5088265 C30.3450897,21.2268974 30.5,20.8532901 30.5,20.4433333 L30.4900176,4.90583432 C30.4436386,4.51191814 30.2533197,4.16206825 29.9735419,3.90982058 C29.6909893,3.65507115 29.3168738,3.5 28.9066667,3.5 Z M9.63333335,12.57 C8.54261198,12.57 7.55525417,13.007291 6.84071301,13.7151367 C6.1278362,14.4213336 5.68666667,15.3969327 5.68666667,16.475 C5.68666667,17.5530673 6.1278362,18.5286664 6.84071301,19.2348633 C7.55525417,19.942709 8.54261198,20.38 9.63333335,20.38 C10.7242334,20.38 11.7121053,19.9425829 12.4270798,19.2345734 C13.1401843,18.5284155 13.5816667,17.5529419 13.5816667,16.475 C13.5816667,15.3970581 13.1401843,14.4215845 12.4270798,13.7154266 C11.7121053,13.0074171 10.7242334,12.57 9.63333335,12.57 Z M26.122428,6.14999919 L10.2,6.15000001 C9.89058077,6.15000001 9.59383453,6.27291631 9.37504208,6.49170876 C9.15624964,6.7105012 9.03333332,7.00724743 9.03333332,7.31666667 L9.03333332,10.175891 C10.0886556,10.1486094 11.1208947,10.3685589 12.0548059,10.8009059 C13.1515363,11.3086287 14.1126651,12.1092638 14.8163335,13.1463977 C15.520002,14.1835315 15.9087678,15.3725001 15.9752447,16.5792232 C16.0273517,17.5250977 15.8814441,18.4818805 15.5339648,19.385 L26.1233333,19.385 C26.4454995,19.385 26.7371661,19.2544164 26.9482913,19.0432913 C27.1594164,18.8321661 27.29,18.5404994 27.29,18.2183333 L27.29,7.31833333 C27.29,6.99614813 27.1593948,6.70448184 26.9482981,6.49317395 C26.7369622,6.28162679 26.444963,6.15058319 26.122428,6.14999919 Z" id="形状" stroke="#6CFF00" fill="url(#linearGradient-1)"></path>
    </g>
</svg>