<?xml version="1.0" encoding="UTF-8"?>
<svg width="32px" height="32px" viewBox="0 0 32 32" version="1.1" xmlns="http://www.w3.org/2000/svg" xmlns:xlink="http://www.w3.org/1999/xlink">
    <!-- Generator: Sketch 63.1 (92452) - https://sketch.com -->
    <title>安全监控备份</title>
    <desc>Created with Sketch.</desc>
    <defs>
        <linearGradient x1="50%" y1="0%" x2="50%" y2="100%" id="linearGradient-1">
            <stop stop-color="#4CD964" offset="0%"></stop>
            <stop stop-color="#F2FCFE" offset="100%"></stop>
        </linearGradient>
    </defs>
    <g id="安全监控备份" stroke="none" stroke-width="1" fill="none" fill-rule="evenodd">
        <path d="M15.8325125,5.04088056 C17.3102221,5.94926429 18.9013968,6.65857194 20.5647896,7.15041652 C22.1279212,7.60690627 23.6357206,7.81440161 25.0826548,7.77843575 C25.1572207,7.77657102 25.2293804,7.80489379 25.2827699,7.85698118 C25.3361595,7.90906856 25.3662318,7.98050706 25.3662318,8.05509621 L25.3662318,17.3979197 C25.3662318,21.0249383 22.2455019,24.2065335 16.004042,26.9427054 C15.8026053,27.0302302 15.571572,27.0168817 15.381556,26.9067395 C9.12626315,23.2907874 6,20.1230252 6,17.3979197 L6,8.05647951 C6,7.98164366 6.03025097,7.90998634 6.08394408,7.85785711 C6.13763718,7.80572789 6.21015812,7.77757397 6.2849603,7.77981905 C7.82734232,7.82408473 9.39324049,7.61382278 10.9840381,7.15041652 C12.6163348,6.67456054 14.1338174,5.97460959 15.5364859,5.04503047 C15.6260587,4.98652581 15.7413349,4.98490978 15.8325125,5.04088056 Z M15.7129101,9.32611824 C14.4258005,9.32611824 13.2340324,9.70748403 12.2210295,10.3510388 L12.2210295,10.3510388 L13.5677275,12.0671849 C14.1993646,11.6977368 14.9263431,11.4951362 15.7129101,11.4951362 C18.0845286,11.4951362 20.0271107,13.4258005 20.0271107,15.8093368 C20.0271107,18.1809553 18.0845286,20.1235373 15.7129101,20.1235373 C13.3412916,20.1235373 11.3987095,18.192873 11.3987095,15.8093368 C11.3987095,14.5937333 11.8992521,13.4973066 12.7096545,12.7107397 L12.7096545,12.7107397 L11.3748742,11.0065113 C10.0520116,12.1863617 9.24160926,13.8905901 9.24160926,15.7974191 C9.24160926,19.3727234 12.1256881,22.2687199 15.7129101,22.2687199 C19.3001321,22.2687199 22.1842109,19.3727234 22.1842109,15.7974191 C22.1842109,12.2221147 19.3001321,9.32611824 15.7129101,9.32611824 Z M15.7248278,12.5915629 C15.1885321,12.5915629 14.6879895,12.7107397 14.2470353,12.9371756 L14.2470353,12.9371756 L15.6652394,14.7367455 L15.7129101,14.7367455 C16.2968765,14.7367455 16.7855014,15.2134527 16.7855014,15.8093368 C16.7855014,16.3933031 16.3087942,16.8819281 15.7129101,16.8819281 C15.117026,16.8819281 14.6403188,16.3933031 14.6403188,15.8212544 C14.6403188,15.6544069 14.6760718,15.4756417 14.7594956,15.3326295 L14.7594956,15.3326295 L13.3889623,13.5926481 C12.8288313,14.1766144 12.4832185,14.9631814 12.4832185,15.8331721 C12.4832185,17.6208243 13.9371756,19.0747814 15.7248278,19.0747814 C17.5124799,19.0747814 18.966437,17.6208243 18.966437,15.8331721 C18.966437,14.04552 17.5124799,12.5915629 15.7248278,12.5915629 Z" id="形状结合" fill="url(#linearGradient-1)" fill-rule="nonzero"></path>
    </g>
</svg>