<?xml version="1.0" encoding="UTF-8"?>
<svg width="32px" height="32px" viewBox="0 0 32 32" version="1.1" xmlns="http://www.w3.org/2000/svg" xmlns:xlink="http://www.w3.org/1999/xlink">
    <!-- Generator: Sketch 63.1 (92452) - https://sketch.com -->
    <title>合同结算备份</title>
    <desc>Created with Sketch.</desc>
    <defs>
        <linearGradient x1="50%" y1="0%" x2="50%" y2="100%" id="linearGradient-1">
            <stop stop-color="#4CD964" offset="0%"></stop>
            <stop stop-color="#F2FCFE" offset="100%"></stop>
        </linearGradient>
    </defs>
    <g id="合同结算备份" stroke="none" stroke-width="1" fill="none" fill-rule="evenodd">
        <path d="M6.66187384,21.5040016 C6.89111224,21.316667 7.27317624,21.2427191 7.61087152,21.5533002 C7.95349666,21.8638812 10.8719726,24.4717761 11.1677641,24.7503131 C11.4684855,25.0263852 11.5054594,25.3739402 11.0765618,25.6771264 C10.6451992,25.9827776 9.9772034,26.5645009 9.68634178,26.8109938 C9.39794508,27.0574867 9.00355643,27.0993905 8.61656257,26.7148616 C8.23203364,26.3303326 5.62906858,23.8900529 5.38750553,23.6583496 C5.14594248,23.4291112 4.76634341,22.9336604 5.19277614,22.6378689 C5.46638326,22.4456045 6.42770558,21.6888713 6.66187384,21.5040016 Z M12.5924931,18.4746038 C14.3154785,18.3587521 19.4425309,18.708772 20.5739333,18.7482109 C21.7078007,18.7901147 21.8507666,19.7908759 20.8475405,19.9067276 C19.7284627,20.0349039 16.3909488,20.2197736 16.1148767,20.2961864 C15.8412696,20.3701342 15.1609492,21.0849636 16.903654,21.2501139 C18.4442347,21.3955447 20.6084424,21.5557651 21.4095443,21.4522381 C22.218041,21.3487111 24.4660563,19.4014171 25.2153947,18.9503351 C25.7009857,18.6545436 26.6943522,18.4154455 27.081346,19.0193531 C27.1676185,19.1475294 26.8866166,19.6207958 26.492228,19.9535612 C25.6837312,20.6338816 22.0035922,23.747087 20.5714684,23.954141 C19.1442745,24.1661249 15.0056586,23.7051832 14.2563202,23.8629387 C13.5069818,24.0206941 12.6072827,24.545724 12.6072827,24.545724 L12.6072827,24.545724 L12.1167618,24.5851629 L8.44155261,21.2870878 L8.34788531,20.9173485 C8.34788531,20.9173485 10.8670428,18.5904555 12.5924931,18.4746038 Z M18.6118498,5.35378651 C18.6907276,5.23793485 18.9717295,4.91009928 19.4080219,5.02348602 C19.6988835,5.0555301 19.9996049,5.27244385 20.1277812,5.53865619 L20.1277812,5.53865619 L23.0437922,11.5136442 C23.1621088,11.8094357 23.4505055,12.3024215 23.019143,13.0443651 C22.496578,13.9366694 21.2887628,14.4986732 20.1154565,14.9497553 C18.6857977,15.4994344 17.3029725,15.8913582 16.0852976,16.4114582 C14.3647771,17.146007 14.6482439,17.1755862 13.0066012,18.0185919 C11.7026537,18.6865877 11.1061409,16.8847246 10.9779646,16.6185122 L10.9779646,16.6185122 L8.18273506,10.9417806 C8.06195354,10.6435242 8.07674311,10.2861095 8.28133222,10.0322218 C8.86059055,9.25576918 9.59020954,8.68144071 10.5342774,8.25993785 C11.6213111,7.74230275 12.8168017,7.55743307 13.9802482,7.35777382 C15.096861,7.18029893 15.999025,6.93873588 16.8987241,6.53448752 C17.5716498,6.23376618 18.1928119,5.8960709 18.6118498,5.35378651 Z M13.3196472,8.04795395 C12.9942765,7.8482947 12.5752386,7.93949707 12.3805092,8.25007813 C12.1857798,8.56065919 12.2917718,8.97230234 12.6171424,9.16949666 L12.6171424,9.16949666 L14.6926127,10.6755683 L13.22105,11.1858086 C12.804477,11.3287745 12.5924931,11.7601371 12.7477836,12.1471309 C12.9006092,12.5341248 13.361551,12.7337841 13.7756591,12.5883532 L13.7756591,12.5883532 L15.6687246,11.9302172 L15.9768407,12.7115997 L14.3056188,13.290858 L14.2957591,13.2933229 C13.7362202,13.4905173 13.4108496,13.9711784 13.5735349,14.3729619 C13.7337553,14.7747453 14.3179434,14.9374306 14.8774823,14.7402363 L14.8774823,14.7402363 L16.5487042,14.160978 L16.9283033,15.1272302 C17.0712692,15.4895747 17.5075616,15.6670496 17.9068801,15.5314785 C18.3061986,15.3934425 18.5132527,14.9867292 18.3702868,14.6268496 C18.3702868,14.6268496 17.9906877,13.6605974 17.9906877,13.6630623 L17.9906877,13.6630623 L19.0136333,13.3056476 L19.023493,13.3031827 C19.5830319,13.1059883 19.9084025,12.6253272 19.7457172,12.2235437 C19.5854968,11.8217603 19.0013086,11.659075 18.4417697,11.8562693 L18.4417697,11.8562693 L17.4188242,12.213684 L17.110708,11.4323015 L18.4713489,10.9590351 C18.8879219,10.8160693 19.0999058,10.3847067 18.9446152,9.99771282 C18.7893247,9.61071896 18.3308479,9.41105971 17.9167398,9.55649052 L17.9167398,9.55649052 L16.2159388,10.1480735 L13.4108496,8.11450704 C13.3837353,8.08985774 13.3516913,8.06767338 13.3196472,8.04795395 Z M16.8420308,6.9313411 C16.5068004,6.82288422 16.1518506,6.99789418 16.0507886,7.32326481 L16.0507886,7.32326481 L15.6761193,9.03392557 C15.6490051,9.1473123 15.6588648,9.26809383 15.7032336,9.38148056 C15.8289449,9.70192134 16.1962194,9.87200144 16.5240549,9.76107963 C16.7261791,9.69206162 16.8740749,9.52691138 16.9159786,9.32478719 L16.9159786,9.32478719 L17.2881829,7.61412644 C17.3276218,7.31587003 17.1402872,7.02747333 16.8420308,6.9313411 Z" id="形状结合" fill="url(#linearGradient-1)" fill-rule="nonzero"></path>
    </g>
</svg>