<?xml version="1.0" encoding="UTF-8"?>
<svg width="32px" height="32px" viewBox="0 0 32 32" version="1.1" xmlns="http://www.w3.org/2000/svg" xmlns:xlink="http://www.w3.org/1999/xlink">
    <!-- Generator: Sketch 63.1 (92452) - https://sketch.com -->
    <title>分包管理</title>
    <desc>Created with Sketch.</desc>
    <defs>
        <linearGradient x1="50%" y1="0%" x2="50%" y2="100%" id="linearGradient-1">
            <stop stop-color="#BECFFF" offset="0%"></stop>
            <stop stop-color="#E0E8FF" offset="72.9940878%"></stop>
            <stop stop-color="#BECFFF" offset="100%"></stop>
        </linearGradient>
    </defs>
    <g id="分包管理" stroke="none" stroke-width="1" fill="none" fill-rule="evenodd">
        <path d="M19.61,23.5533333 C19.8666667,22.3066667 20.9666667,21.5 22.2133333,21.5 C23.7166667,21.5 24.9633333,22.7466667 24.9633333,24.25 C24.9633333,25.7533333 23.7166667,27 22.2133333,27 C20.9666667,27 19.8666667,26.1933333 19.61,24.9466667 L13.3033333,24.9466667 C11.3966667,24.9466667 9.85666665,23.4433333 9.85666667,21.5 L9.85666667,20.1433333 C8.06,19.8866667 6.85,18.4933333 6.41,16.6966667 L3.69666667,16.6966667 C3.29333333,16.6966667 3,16.44 3,16 C3,15.56 3.25666667,15.2666667 3.69666667,15.2666667 L6.44666667,15.2666667 C6.85,13.47 8.09666667,12.26 9.89333333,11.82 L9.89333333,10.5 C9.89333333,8.59333333 11.3966667,7.05333333 13.34,7.05333333 L19.6466667,7.05333333 C19.9033333,5.84333333 21.0033333,5 22.2133333,5 C23.7166667,5 24.9633333,6.24666667 24.9633333,7.75 C24.9633333,9.25333333 23.7166667,10.5 22.2133333,10.5 C20.9666667,10.5 19.8666667,9.69333333 19.61,8.44666667 L13.3033333,8.44666667 C12.2033333,8.44666667 11.25,9.4 11.25,10.5 L11.25,11.8566667 C13.0466667,12.1133333 14.2566667,13.5066667 14.6966667,15.3033333 L19.6466667,15.3033333 C19.9033333,14.0566667 21.0033333,13.25 22.25,13.25 C23.7533333,13.25 25,14.4966667 25,16 C25,17.5033333 23.7533333,18.75 22.25,18.75 C21.0033333,18.75 19.9033333,17.9433333 19.6466667,16.6966667 L14.66,16.6966667 C14.2566667,18.4933333 13.01,19.7033333 11.2133333,20.1433333 L11.2133333,21.5 C11.2133333,22.6 12.1666667,23.5533333 13.2666667,23.5533333 L19.61,23.5533333 Z M22.2133333,9.14333333 C23.02,9.14333333 23.57,8.59333333 23.57,7.78666667 C23.57,6.98000002 23.02,6.43 22.2133333,6.43 C21.4066667,6.43 20.8566667,6.98 20.8566667,7.78666667 C20.8566667,8.59333335 21.4066667,9.14333333 22.2133333,9.14333333 Z M22.2133333,17.3566667 C23.02,17.3566667 23.57,16.8066667 23.57,16 C23.57,15.1933333 23.02,14.6433333 22.2133333,14.6433333 C21.4066667,14.6433333 20.8566667,15.1933333 20.8566667,16 C20.8566667,16.8066667 21.4066667,17.3566667 22.2133333,17.3566667 Z M22.2133333,25.6066667 C23.02,25.6066667 23.57,25.0566667 23.57,24.25 C23.57,23.4433333 23.02,22.8933333 22.2133333,22.8933333 C21.4066667,22.8933333 20.8566667,23.4433333 20.8566667,24.25 C20.8566667,25.0566667 21.4066667,25.6066667 22.2133333,25.6066667 Z" id="形状" fill="url(#linearGradient-1)" fill-rule="nonzero"></path>
    </g>
</svg>