<?xml version="1.0" encoding="UTF-8"?>
<svg width="32px" height="32px" viewBox="0 0 32 32" version="1.1" xmlns="http://www.w3.org/2000/svg" xmlns:xlink="http://www.w3.org/1999/xlink">
    <!-- Generator: Sketch 63.1 (92452) - https://sketch.com -->
    <title>进度仿真备份</title>
    <desc>Created with Sketch.</desc>
    <defs>
        <linearGradient x1="50%" y1="0%" x2="50%" y2="100%" id="linearGradient-1">
            <stop stop-color="#4CD964" offset="0%"></stop>
            <stop stop-color="#F2FCFE" offset="100%"></stop>
        </linearGradient>
    </defs>
    <g id="进度仿真备份" stroke="none" stroke-width="1" fill="none" fill-rule="evenodd">
        <path d="M6,11.528777 L11.1043165,14.7338129 C10.9460432,15.2086331 10.8669065,15.6834532 10.8669065,16.1978417 C10.8669065,18.5719424 12.528777,20.5503597 14.7446043,21.0647482 L14.7446043,27 L6,21.618705 L6,11.528777 Z M25.5071942,11.5683453 L25.5071942,21.618705 L16.7625899,27 L16.7625899,21.1438849 C19.0971223,20.7086331 20.8381295,18.6906475 20.8381295,16.2374101 C20.8381295,15.6834532 20.7589928,15.1690647 20.6007194,14.6942446 L25.5071942,11.5683453 Z M16.0503597,13.0719424 L16.0503597,15.881295 L18.8201439,15.881295 L18.8201439,17.028777 L14.8633094,17.028777 L14.8633094,13.0719424 L16.0503597,13.0719424 Z M15.852518,5 L24.3597122,9.82733813 L19.4136691,12.7553957 C18.5035971,11.8057554 17.2374101,11.2122302 15.8129496,11.2122302 C14.4280576,11.2122302 13.1618705,11.7661871 12.2517986,12.676259 L7.06834532,9.47122302 L15.852518,5 Z" id="形状结合" fill="url(#linearGradient-1)" fill-rule="nonzero"></path>
    </g>
</svg>