<?xml version="1.0" encoding="UTF-8"?>
<svg width="32px" height="32px" viewBox="0 0 32 32" version="1.1" xmlns="http://www.w3.org/2000/svg" xmlns:xlink="http://www.w3.org/1999/xlink">
    <!-- Generator: Sketch 63.1 (92452) - https://sketch.com -->
    <title>安全标准化备份</title>
    <desc>Created with Sketch.</desc>
    <defs>
        <linearGradient x1="50%" y1="0%" x2="50%" y2="100%" id="linearGradient-1">
            <stop stop-color="#4CD964" offset="0%"></stop>
            <stop stop-color="#F2FCFE" offset="100%"></stop>
        </linearGradient>
    </defs>
    <g id="安全标准化备份" stroke="none" stroke-width="1" fill="none" fill-rule="evenodd">
        <path d="M15.8325125,5.04088056 C17.3102221,5.94926429 18.9013968,6.65857194 20.5647896,7.15041652 C22.1279212,7.60690627 23.6357206,7.81440161 25.0826548,7.77843575 C25.1572207,7.77657102 25.2293804,7.80489379 25.2827699,7.85698118 C25.3361595,7.90906856 25.3662318,7.98050706 25.3662318,8.05509621 L25.3662318,17.3979197 C25.3662318,21.0249383 22.2455019,24.2065335 16.004042,26.9427054 C15.8026053,27.0302302 15.571572,27.0168817 15.381556,26.9067395 C9.12626315,23.2907874 6,20.1230252 6,17.3979197 L6,8.05647951 C6,7.98164366 6.03025097,7.90998634 6.08394408,7.85785711 C6.13763718,7.80572789 6.21015812,7.77757397 6.2849603,7.77981905 C7.82734232,7.82408473 9.39324049,7.61382278 10.9840381,7.15041652 C12.6163348,6.67456054 14.1338174,5.97460959 15.5364859,5.04503047 C15.6260587,4.98652581 15.7413349,4.98490978 15.8325125,5.04088056 Z M15.5246425,10 C15.2621121,10 15.0492851,10.2500149 15.0492851,10.558418 L15.0492851,10.558418 L15.049,15 L10.5584169,15 C10.2500144,15 10,15.22386 10,15.5 C10,15.77614 10.2500144,16 10.5584169,16 L10.5584169,16 L15.049,16 L15.0490219,17.9331614 C15.0176379,18.0076946 15,18.0916384 15,18.1804211 L15,18.1804211 L15,21.441582 C15,21.7499851 15.212827,22 15.4753575,22 C15.7378879,22 15.9507149,21.7499851 15.9507149,21.441582 L15.9507149,21.441582 L15.9512762,19.8340625 C15.9824738,19.7597062 16,19.6760132 16,19.587512 L16,19.587512 L16,16 L21.4415831,16 C21.7499632,16 22,15.77614 22,15.5 C22,15.22386 21.7499856,15 21.4415831,15 L21.4415831,15 L16,15 L16,10.558418 C16,10.2500149 15.787173,10 15.5246425,10 Z" id="形状结合" fill="url(#linearGradient-1)" fill-rule="nonzero"></path>
    </g>
</svg>