<?xml version="1.0" encoding="UTF-8"?>
<svg width="32px" height="32px" viewBox="0 0 32 32" version="1.1" xmlns="http://www.w3.org/2000/svg" xmlns:xlink="http://www.w3.org/1999/xlink">
    <!-- Generator: Sketch 63.1 (92452) - https://sketch.com -->
    <title>设计成果备份 </title>
    <desc>Created with Sketch.</desc>
    <defs>
        <linearGradient x1="50%" y1="0%" x2="50%" y2="100%" id="linearGradient-1">
            <stop stop-color="#4CD964" offset="0%"></stop>
            <stop stop-color="#F2FCFE" offset="100%"></stop>
        </linearGradient>
    </defs>
    <g id="设计成果备份-" stroke="none" stroke-width="1" fill="none" fill-rule="evenodd">
        <path d="M22.8239988,14.9207971 C24.1968407,14.9205325 25.5135306,15.4657746 26.4842765,16.4365205 C27.4550224,17.4072664 28.0002645,18.7239563 27.9999999,20.0967982 C27.9999999,22.9554247 25.6826252,25.2727993 22.8239988,25.2727993 C19.9653723,25.2727993 17.6479977,22.9554247 17.6479977,20.0967982 C17.6479977,17.2381718 19.9653723,14.9207971 22.8239988,14.9207971 Z M8.38553448,6.00042811 L8.55707223,6.00346927 L11.6419209,6.00346927 C12.4650129,6.00346927 14.2359076,7.83322753 14.4234728,9.13022086 L14.4234728,9.13022086 L24.1628949,9.13022086 C25.3822743,9.13022086 26.3707766,10.1187232 26.3707766,11.3381026 L26.3707766,11.3381026 L26.3707766,14.7152736 C24.3915384,13.4102087 21.8554878,13.2975171 19.7682957,14.4218869 C17.6811035,15.5462567 16.379999,17.7260225 16.380935,20.0967982 C16.3793721,21.5987929 16.9047239,23.053749 17.8654935,24.2082671 L17.8654935,24.2082671 L8.22883315,24.2082671 C7.64335822,24.2082671 7.08187739,23.9756198 6.66797766,23.561533 C6.25407793,23.1474462 6.02168445,22.5858602 6.02194913,22.0003854 L6.02194913,22.0003854 L6.00997688,12.4225885 L6.00997688,9.00550997 L6,8.76606505 L6.00997688,8.5276178 L6.00997688,8.45079589 C6.00981717,8.03238999 6.13225538,7.62310646 6.36216044,7.27352502 C6.77656519,6.45176697 7.63810796,5.953247 8.55707223,6.00346927 Z M22.8230011,16.4741961 L21.6457302,18.8606638 L19.0108384,19.2437757 L20.9184163,21.0984761 L20.4684593,23.7223934 L22.8239988,22.483266 L25.1795382,23.7223934 L24.7285836,21.1014692 L26.6351638,19.2437757 L24.0002719,18.8606638 L22.8230011,16.4741961 Z" id="形状结合" fill="url(#linearGradient-1)" fill-rule="nonzero"></path>
    </g>
</svg>