<?xml version="1.0" encoding="UTF-8"?>
<svg width="32px" height="32px" viewBox="0 0 32 32" version="1.1" xmlns="http://www.w3.org/2000/svg" xmlns:xlink="http://www.w3.org/1999/xlink">
    <!-- Generator: Sketch 63.1 (92452) - https://sketch.com -->
    <title>档案管理</title>
    <desc>Created with Sketch.</desc>
    <defs>
        <linearGradient x1="50%" y1="0%" x2="50%" y2="100%" id="linearGradient-1">
            <stop stop-color="#1C92D2" offset="0%"></stop>
            <stop stop-color="#F2FCFE" offset="100%"></stop>
        </linearGradient>
    </defs>
    <g id="档案管理" stroke="none" stroke-width="1" fill="none" fill-rule="evenodd">
        <path d="M26.7171952,4.91250558 C26.3480203,4.6356244 25.9325491,4.53693429 25.4714358,4.61378651 L21.8906402,5.18552192 C21.6507235,5.23448881 21.4303025,5.31843761 21.2298919,5.43868393 C21.0412476,5.55187053 20.8858808,5.69461205 20.7650752,5.86827007 C20.6384295,6.0503232 20.5473357,6.24818078 20.4919261,6.46190359 C20.4376885,6.67110568 20.4272704,6.89184055 20.4575755,7.12389566 L23.5316215,26.5928539 C23.6085951,27.0545843 23.8369887,27.4240276 24.2177071,27.6959694 C24.5953501,27.9657144 25.0074737,28.0641115 25.4550197,27.9869484 L29.0794671,27.41303 C29.5422385,27.3358847 29.9130565,27.1118696 30.1856568,26.7380178 C30.456046,26.3671983 30.5504628,25.9497858 30.4733059,25.4868444 L27.3976066,6.03767941 C27.3199118,5.57161572 27.0935597,5.19477896 26.7171952,4.91250558 Z M15.8023671,4.5 C16.266426,4.5 16.6613209,4.66163897 16.9863305,4.98664852 C17.31134,5.31165807 17.472979,5.70655302 17.472979,6.17061188 L17.472979,6.17061188 L17.472979,26.3090665 C17.472979,26.7731254 17.31134,27.1680204 16.9863305,27.4930299 C16.6613209,27.8180395 16.266426,27.9796784 15.8023671,27.9796784 L15.8023671,27.9796784 L12.6670389,27.9796784 C12.20298,27.9796784 11.808085,27.8180395 11.4830755,27.4930299 C11.1580659,27.1680204 10.996427,26.7731254 10.996427,26.3090665 L10.996427,26.3090665 L10.996427,6.17061188 C10.996427,5.68823686 11.118306,5.27499776 11.376501,4.93611674 C11.6078114,4.63252187 11.9545608,4.5 12.3957124,4.5 L12.3957124,4.5 Z M15.8023671,16.7648504 L12.6670389,16.7648504 C12.3160563,16.7648504 12.0088874,16.9090248 11.7598572,17.2292066 C11.5568855,17.4901701 11.4435016,17.820587 11.4435016,18.2295668 C11.4435016,18.6062897 11.5498006,18.9300618 11.7520054,19.2044825 C12.003191,19.5453773 12.3147221,19.6942832 12.6670389,19.6942832 L15.8023671,19.6942832 C16.1546838,19.6942832 16.466215,19.5453773 16.7174006,19.2044825 C16.9196054,18.9300618 17.0259044,18.6062897 17.0259044,18.2295668 C17.0259044,17.820587 16.9125205,17.4901701 16.7095488,17.2292066 C16.4605186,16.9090248 16.1533497,16.7648504 15.8023671,16.7648504 Z M15.8023671,12.9059848 L12.6670389,12.9059848 C12.3160563,12.9059848 12.0088874,13.0501592 11.7598572,13.370341 C11.5568855,13.6313045 11.4435016,13.9617214 11.4435016,14.3707012 C11.4435016,14.7720646 11.5524184,15.1048963 11.7520054,15.3757643 C12.003191,15.7166592 12.3147221,15.865565 12.6670389,15.865565 L15.8023671,15.865565 C16.1546838,15.865565 16.466215,15.7166592 16.7174006,15.3757643 C16.9169876,15.1048963 17.0259044,14.7720646 17.0259044,14.3707012 C17.0259044,13.9617214 16.9125205,13.6313045 16.7095488,13.370341 C16.4605186,13.0501592 16.1533497,12.9059848 15.8023671,12.9059848 Z M6.33608754,4.5 C6.80339827,4.5 7.20443127,4.6636941 7.53930822,4.99078322 C7.87089405,5.31465776 8.03684681,5.70788915 8.03684681,6.17061188 L8.03684681,6.17061188 L8.03684681,26.3090665 C8.03684681,26.7717893 7.87089405,27.1650207 7.53930822,27.4888952 C7.20443127,27.8159843 6.80339827,27.9796784 6.33608754,27.9796784 L6.33608754,27.9796784 L3.20075927,27.9796784 C2.73344853,27.9796784 2.33241554,27.8159843 1.99753859,27.4888952 C1.66595276,27.1650207 1.5,26.7717893 1.5,26.3090665 L1.5,26.3090665 L1.5,6.17061188 C1.5,5.70788915 1.66595276,5.31465776 1.99753859,4.99078322 C2.33241554,4.6636941 2.73344853,4.5 3.20075927,4.5 L3.20075927,4.5 Z M6.33608754,18.6339884 L3.32134882,18.6339884 C2.94305907,18.6339884 2.63348357,18.7800448 2.39273073,19.0723876 C2.18611772,19.3232748 2.06766414,19.6512123 2.06766414,20.0685574 C2.06766414,20.4526418 2.17821702,20.7741667 2.38401974,21.0387702 C2.62703098,21.3512132 2.94084769,21.5031264 3.32134882,21.5031264 L6.33608754,21.5031264 C6.72661639,21.5031264 7.03799794,21.3444031 7.26900643,21.0245452 C7.45730706,20.7638212 7.55962483,20.4470737 7.55962483,20.0685574 C7.55962483,19.6572746 7.44997961,19.333845 7.26084573,19.0865161 C7.03185799,18.7870706 6.7247311,18.6339884 6.33608754,18.6339884 Z M6.33608754,14.865565 L3.32134882,14.865565 C2.94084769,14.865565 2.62703098,15.0174781 2.38401974,15.3299212 C2.1810481,15.5908847 2.06766414,15.9213016 2.06766414,16.3302814 C2.06766414,16.7392612 2.1810481,17.0696781 2.38401974,17.3306416 C2.62703098,17.6430846 2.94084769,17.7949978 3.32134882,17.7949978 L6.33608754,17.7949978 C6.72661639,17.7949978 7.03799794,17.6362745 7.26900643,17.3164166 C7.45480001,17.0591639 7.55962483,16.7333554 7.55962483,16.3302814 C7.55962483,15.9272073 7.45480001,15.6013988 7.26900643,15.3441462 C7.03799794,15.0242883 6.72661639,14.865565 6.33608754,14.865565 Z M6.21549799,11.0368468 L3.32134882,11.0368468 C2.94084769,11.0368468 2.62703098,11.18876 2.38401974,11.501203 C2.1810481,11.7621665 2.06766414,12.0925834 2.06766414,12.5015632 C2.06766414,12.8782862 2.17396318,13.2020582 2.37616793,13.4764789 C2.62121482,13.8090426 2.93918898,13.9662796 3.32134882,13.9662796 L6.21549799,13.9662796 C6.60733046,13.9662796 6.92291132,13.8024961 7.1557309,13.4622214 C7.34074654,13.1918139 7.43903528,12.8728666 7.43903528,12.5015632 C7.43903528,12.0984892 7.33421047,11.7726807 7.14841688,11.515428 C6.91740839,11.1955701 6.60602684,11.0368468 6.21549799,11.0368468 Z" id="形状" stroke="#32C5FF" fill="url(#linearGradient-1)"></path>
    </g>
</svg>