<?xml version="1.0" encoding="UTF-8"?>
<svg width="32px" height="32px" viewBox="0 0 32 32" version="1.1" xmlns="http://www.w3.org/2000/svg" xmlns:xlink="http://www.w3.org/1999/xlink">
    <!-- Generator: Sketch 63.1 (92452) - https://sketch.com -->
    <title>质量追溯</title>
    <desc>Created with Sketch.</desc>
    <defs>
        <linearGradient x1="50%" y1="0%" x2="50%" y2="100%" id="linearGradient-1">
            <stop stop-color="#BECFFF" offset="0%"></stop>
            <stop stop-color="#E0E8FF" offset="72.9940878%"></stop>
            <stop stop-color="#BECFFF" offset="100%"></stop>
        </linearGradient>
    </defs>
    <g id="质量追溯" stroke="none" stroke-width="1" fill="none" fill-rule="evenodd">
        <path d="M15.8325125,5.04088056 C17.3102221,5.94926429 18.9013968,6.65857194 20.5647896,7.15041652 C22.1279212,7.60690627 23.6357206,7.81440161 25.0826548,7.77843575 C25.1572207,7.77657102 25.2293804,7.80489379 25.2827699,7.85698118 C25.3361595,7.90906856 25.3662318,7.98050706 25.3662318,8.05509621 L25.3662318,17.3979197 C25.3662318,21.0249383 22.2455019,24.2065335 16.004042,26.9427054 C15.8026053,27.0302302 15.571572,27.0168817 15.381556,26.9067395 C9.12626315,23.2907874 6,20.1230252 6,17.3979197 L6,8.05647951 C6,7.98164366 6.03025097,7.90998634 6.08394408,7.85785711 C6.13763718,7.80572789 6.21015812,7.77757397 6.2849603,7.77981905 C7.82734232,7.82408473 9.39324049,7.61382278 10.9840381,7.15041652 C12.6163348,6.67456054 14.1338174,5.97460959 15.5364859,5.04503047 C15.6260587,4.98652581 15.7413349,4.98490978 15.8325125,5.04088056 Z M15.516203,8.64978984 C15.1419231,8.64978984 14.8385034,8.95320948 14.8385034,9.3274894 L14.8385034,9.3274894 L14.8381393,10.5361591 C12.369856,10.8139983 10.4000621,12.7632315 10.0906528,15.2219637 L8.91226477,15.2221202 C8.53798485,15.2221202 8.23456521,15.5255398 8.23456521,15.8998197 C8.23456521,16.2740996 8.53798485,16.5775193 8.91226477,16.5775193 L8.91226477,16.5775193 L10.0906528,16.5776274 C10.3971303,19.0130815 12.3326756,20.9486284 14.7681102,21.2551061 L14.7682396,22.5353659 C14.7682396,22.9096458 15.0716592,23.2130654 15.4459391,23.2130654 C15.820219,23.2130654 16.1236387,22.9096458 16.1236387,22.5353659 L16.1236387,22.5353659 L16.1237685,21.2551061 C18.5592063,20.9486284 20.4947713,19.0130815 20.8012521,16.5776274 L22.1201684,16.5775193 C22.4944212,16.5775193 22.7978679,16.2740996 22.7978679,15.8998197 C22.7978679,15.5255398 22.4944483,15.2221202 22.1201684,15.2221202 L22.1201684,15.2221202 L20.8012521,15.2219637 C20.4977174,12.8099403 18.596268,10.8882418 16.1938627,10.5537952 L16.1939026,9.3274894 C16.1939026,8.95320948 15.8904829,8.64978984 15.516203,8.64978984 Z M14.8383183,11.9031308 L14.8385034,13.2852548 C14.8385034,13.6595347 15.1419231,13.9629544 15.516203,13.9629544 C15.8904829,13.9629544 16.1939026,13.6595347 16.1939026,13.2852548 L16.1939026,13.2852548 L16.1938712,11.9269205 C17.8475028,12.2375256 19.1492675,13.5584241 19.4313371,15.2218136 L18.1624029,15.2221202 C17.788123,15.2221202 17.4847034,15.5255398 17.4847034,15.8998197 C17.4847034,16.2740996 17.788123,16.5775193 18.1624029,16.5775193 L18.1624029,16.5775193 L19.4313371,16.5777725 C19.1453019,18.2645516 17.8106981,19.5991554 16.123919,19.8851906 L16.1236387,18.5776005 C16.1236387,18.2033205 15.820219,17.8999009 15.4459391,17.8999009 C15.0716592,17.8999009 14.7682396,18.2033205 14.7682396,18.5776005 L14.7682396,18.5776005 L14.7679601,19.8851906 C13.081185,19.5991554 11.7465987,18.2645516 11.4605675,16.5777725 L12.8700302,16.5775193 C13.2443101,16.5775193 13.5477298,16.2740996 13.5477298,15.8998197 C13.5477298,15.5255398 13.2443101,15.2221202 12.8700302,15.2221202 L12.8700302,15.2221202 L11.4605675,15.2218136 C11.7505642,13.5116528 13.1183923,12.1635141 14.8383183,11.9031308 Z" id="形状结合" fill="url(#linearGradient-1)" fill-rule="nonzero"></path>
    </g>
</svg>