<?xml version="1.0" encoding="UTF-8"?>
<svg width="32px" height="32px" viewBox="0 0 32 32" version="1.1" xmlns="http://www.w3.org/2000/svg" xmlns:xlink="http://www.w3.org/1999/xlink">
    <!-- Generator: Sketch 63.1 (92452) - https://sketch.com -->
    <title>三维展示备份</title>
    <desc>Created with Sketch.</desc>
    <defs>
        <linearGradient x1="50%" y1="0%" x2="50%" y2="100%" id="linearGradient-1">
            <stop stop-color="#4CD964" offset="0%"></stop>
            <stop stop-color="#F2FCFE" offset="100%"></stop>
        </linearGradient>
    </defs>
    <g id="三维展示备份" stroke="none" stroke-width="1" fill="none" fill-rule="evenodd">
        <path d="M4.20887728,19.0548303 L15.9060052,25.4255875 L26.9765013,19.1592689 L27.2375979,19.6292428 L15.9582245,26 L15.9582245,25.9477807 L15.9060052,26 L4,19.5248042 L4.20887728,19.0548303 Z M15.6449086,13.8328982 L18.8302872,15.4516971 L18.8302872,22.6579635 L16.0626632,24.2245431 L12.7728459,22.5013055 L12.7728459,15.1906005 L15.6449086,13.8328982 Z M13.2950392,16.0261097 L13.2950392,22.1879895 L15.54047,23.3368146 L15.54047,17.2271541 L13.2950392,16.0261097 Z M9.37859007,6 L12.5639687,7.61879895 L12.5639687,19.5770235 L9.79634465,21.0913838 L6.50652741,19.3681462 L6.50652741,7.35770235 L9.37859007,6 Z M21.9112272,9.49869451 L25.0966057,11.1174935 L25.0966057,19.3681462 L22.3289817,20.9347258 L19.0391645,19.2114883 L19.0391645,10.8563969 L21.9112272,9.49869451 Z M7.02872063,8.19321148 L7.02872063,19.0548303 L9.27415143,20.2036554 L9.27415143,9.39425587 L7.02872063,8.19321148 Z M19.5613577,11.7441253 L19.5613577,18.8981723 L21.8067885,20.0469974 L21.8067885,12.8929504 L19.5613577,11.7441253 Z" id="形状结合" fill="url(#linearGradient-1)" fill-rule="nonzero"></path>
    </g>
</svg>