<?xml version="1.0" encoding="UTF-8"?>
<svg width="32px" height="32px" viewBox="0 0 32 32" version="1.1" xmlns="http://www.w3.org/2000/svg" xmlns:xlink="http://www.w3.org/1999/xlink">
    <!-- Generator: Sketch 63.1 (92452) - https://sketch.com -->
    <title>人员设备定位</title>
    <desc>Created with Sketch.</desc>
    <defs>
        <linearGradient x1="50%" y1="0%" x2="50%" y2="100%" id="linearGradient-1">
            <stop stop-color="#BECFFF" offset="0%"></stop>
            <stop stop-color="#E0E8FF" offset="72.9940878%"></stop>
            <stop stop-color="#BECFFF" offset="100%"></stop>
        </linearGradient>
    </defs>
    <g id="人员设备定位" stroke="none" stroke-width="1" fill="none" fill-rule="evenodd">
        <path d="M20.8159156,19.2835723 C24.4825891,19.6119418 27,20.4875666 27,22.5124334 C27,25.2487505 20.1044653,26.0149119 16,26.0149119 L15.7734092,26.0141981 C11.6470476,25.9883542 5,25.2527358 5,22.5124334 C5,20.5970094 7.02486682,19.7761163 10.4179025,19.3930356 C10.8557148,19.9402908 11.2935272,20.487546 11.6766079,20.9253584 C7.51741089,21.253728 6.8059812,22.1293527 6.64178613,22.5671651 C6.80596063,23.0596886 9.87064728,24.4278574 15.9452683,24.3731257 C22.0198893,24.3731257 25.0845554,23.0596886 25.3034822,22.5124334 C25.084576,22.0198893 24.0994878,21.0895535 19.5572101,20.8159156 C19.9950225,20.3781032 20.3781032,19.830848 20.8159156,19.2835723 Z M15.671651,5 C19.2288406,5 22.1293321,7.84575988 22.1840433,11.3482589 C22.1840433,17.1492421 15.671651,22.7313396 15.671651,22.7313396 C15.671651,22.7313396 9.15919702,17.3681483 9.15919702,11.3482589 C9.15919702,7.84575988 12.1144614,5 15.671651,5 Z M15.6716099,7.95522327 C13.7014747,7.95522327 12.1143997,9.54229828 12.1143997,11.5124334 C12.1143997,13.4278574 13.7015159,15.0696436 15.671651,15.0696436 C17.6417861,15.0696436 19.22882,13.4825891 19.22882,11.5124334 C19.22882,9.54227771 17.641745,7.95522327 15.6716099,7.95522327 Z" id="形状结合" fill="url(#linearGradient-1)" fill-rule="nonzero"></path>
    </g>
</svg>