<?xml version="1.0" encoding="UTF-8"?>
<svg width="32px" height="32px" viewBox="0 0 32 32" version="1.1" xmlns="http://www.w3.org/2000/svg" xmlns:xlink="http://www.w3.org/1999/xlink">
    <!-- Generator: Sketch 63.1 (92452) - https://sketch.com -->
    <title>风险管理</title>
    <desc>Created with Sketch.</desc>
    <defs>
        <linearGradient x1="50%" y1="0%" x2="50%" y2="100%" id="linearGradient-1">
            <stop stop-color="#1C92D2" offset="0%"></stop>
            <stop stop-color="#F2FCFE" offset="100%"></stop>
        </linearGradient>
    </defs>
    <g id="风险管理" stroke="none" stroke-width="1" fill="none" fill-rule="evenodd">
        <path d="M15.9864502,3.50000036 C16.2698489,3.49979335 16.5519559,3.58978904 16.8110222,3.76338538 C17.0833102,3.94584142 17.3285497,4.21795376 17.5306259,4.57330116 L17.5306259,4.57330116 L29.1703993,25.0561325 C29.5623152,25.7456057 29.6018275,26.4287161 29.3027639,26.9394366 C29.0032548,27.4509178 28.3865685,27.752054 27.5919075,27.7495678 L27.5919075,27.7495678 L4.40330636,27.6801385 C3.60885566,27.6776438 2.99381972,27.3717272 2.69581038,26.8575622 C2.39795537,26.3436635 2.43831285,25.658585 2.8314184,24.9684965 L2.8314184,24.9684965 L14.4405516,4.57644955 C14.6432064,4.22032134 14.888827,3.94768261 15.1613759,3.76473176 C15.4207106,3.59065106 15.7029739,3.50020743 15.9864502,3.50000036 Z M18.8913041,12.8608434 L14.9650462,13.3848274 L12.7433347,20.3434204 L15.236487,20.7449304 L14.6488221,23.5993728 C14.5735438,23.9647299 14.5076881,24.2654292 15.7312821,24.7306731 C15.8507052,24.6325719 15.9963496,24.4741147 16.1574702,24.2464338 L20.659122,17.2984543 L17.5839982,16.8259728 L18.8913041,12.8608434 Z" id="形状" stroke="#32C5FF" fill="url(#linearGradient-1)"></path>
    </g>
</svg>