<?xml version="1.0" encoding="UTF-8"?>
<svg width="32px" height="32px" viewBox="0 0 32 32" version="1.1" xmlns="http://www.w3.org/2000/svg" xmlns:xlink="http://www.w3.org/1999/xlink">
    <!-- Generator: Sketch 63.1 (92452) - https://sketch.com -->
    <title>概算调整备份</title>
    <desc>Created with Sketch.</desc>
    <defs>
        <linearGradient x1="50%" y1="0%" x2="50%" y2="100%" id="linearGradient-1">
            <stop stop-color="#4CD964" offset="0%"></stop>
            <stop stop-color="#F2FCFE" offset="100%"></stop>
        </linearGradient>
    </defs>
    <g id="概算调整备份" stroke="none" stroke-width="1" fill="none" fill-rule="evenodd">
        <path d="M6.48206667,17.4666667 C7.1912,22.028 11.1343333,25.5333333 15.8907333,25.5333333 C20.6471333,25.5333333 24.5902667,22.028 25.2994,17.4666667 L25.2994,17.4666667 L26.7814667,17.4666667 C26.0628,22.8464 21.467,27 15.8907333,27 C11.8893915,27 8.39289346,24.8613047 6.47148848,21.6655431 L6.4718,23.3502 L5,23.3502 L5,17.4835333 L5.002,17.483 L5,17.4666667 Z M15.9824,8.66666667 C20.0324882,8.66666667 23.3157333,11.9499118 23.3157333,16 C23.3157333,20.0500882 20.0324882,23.3333333 15.9824,23.3333333 C11.9323118,23.3333333 8.64906667,20.0500882 8.64906667,16 C8.64906667,11.9499118 11.9323118,8.66666667 15.9824,8.66666667 Z M13.6181333,11.6051333 L12.0341333,11.6051333 L14.7262,15.6274667 L12.524,15.6274667 L12.524,16.5148 L15.1376,16.5148 L15.1376,17.749 L12.524,17.749 L12.524,18.6429333 L15.1376,18.6429333 L15.1376,20.4176 L16.5236,20.4176 L16.5236,18.6429333 L19.0587333,18.6429333 L19.0587333,17.749 L16.5236,17.749 L16.5236,16.5148 L19.0587333,16.5148 L19.0587333,15.6274667 L16.8990667,15.6274667 L19.6278,11.6051333 L18.1420667,11.6051333 L16.253,14.7115333 C16.1397,14.8963333 16.042075,15.0724708 15.9604344,15.2402552 L15.8841333,15.4052667 L15.8555333,15.4052667 C15.7559833,15.2034167 15.6646833,15.0279667 15.581324,14.879226 L15.5006,14.7394 L13.6181333,11.6051333 Z M15.8907333,5 C19.8916553,5 23.3878394,7.13824651 25.3096442,10.333451 L25.3096667,8.6718 L26.7814667,8.6718 L26.781,14.526 L26.7822,14.5333333 L26.781,14.533 L26.7814667,14.5384667 L25.3096667,14.5384667 L25.309,14.533 L25.2994,14.5333333 C24.6039038,10.0597179 20.7975963,6.60187771 16.1642215,6.4705383 L15.8907333,6.46666667 C11.1343333,6.46666667 7.1912,9.972 6.48206667,14.5333333 L6.48206667,14.5333333 L5,14.5333333 C5.71866667,9.1536 10.3144667,5 15.8907333,5 Z" id="形状结合" fill="url(#linearGradient-1)" fill-rule="nonzero"></path>
    </g>
</svg>