<?xml version="1.0" encoding="UTF-8"?>
<svg width="32px" height="32px" viewBox="0 0 32 32" version="1.1" xmlns="http://www.w3.org/2000/svg" xmlns:xlink="http://www.w3.org/1999/xlink">
    <!-- Generator: Sketch 63.1 (92452) - https://sketch.com -->
    <title>主动安全预警</title>
    <desc>Created with Sketch.</desc>
    <defs>
        <linearGradient x1="50%" y1="0%" x2="50%" y2="100%" id="linearGradient-1">
            <stop stop-color="#BECFFF" offset="0%"></stop>
            <stop stop-color="#E0E8FF" offset="72.9940878%"></stop>
            <stop stop-color="#BECFFF" offset="100%"></stop>
        </linearGradient>
    </defs>
    <g id="主动安全预警" stroke="none" stroke-width="1" fill="none" fill-rule="evenodd">
        <path d="M26.7357033,23.7097774 L17.4800146,6.93622985 L17.4773582,6.93622985 C17.1983359,6.36821511 16.6229517,6.00600209 15.990134,6 C15.3043919,6 14.7147914,6.42895777 14.4523598,7.04453185 L5.29023499,23.6465947 C5.10021668,23.9187105 4.99886102,24.2428645 5.00000966,24.574757 C5.00000966,25.4421175 5.67200741,26.1454115 6.50139136,26.1454115 C6.51343366,26.1454115 6.52547596,26.1447031 6.53753794,26.144526 L6.53753794,26.1478317 L25.4605575,26.1478317 C25.4783848,26.1483236 25.4961925,26.1492091 25.5141772,26.1492091 C25.5321619,26.1492091 25.5498122,26.1485401 25.5676985,26.1478317 L25.7836138,26.1233142 C26.4755542,25.9904947 26.9999924,25.3567785 26.9999924,24.594434 C27.0009649,24.2799004 26.9090178,23.9720845 26.7356837,23.70962 L26.7357033,23.7097774 Z M14.6857482,12.3582167 C14.6857482,11.6513022 15.223559,11.0783681 15.8838194,11.0783681 C16.5468937,11.0783681 17.0818906,11.6513022 17.0818906,12.3582167 L17.0818906,18.9550166 C17.0818906,19.6602193 16.5468937,20.2348063 15.8838194,20.2348063 C15.223559,20.2348063 14.6857482,19.6603767 14.6857482,18.9550166 L14.6857482,12.3582167 Z M15.975947,23.8298462 C15.3496489,23.8298462 14.8413733,23.298037 14.8413733,22.6415545 C14.8413733,21.986292 15.3496489,21.4571195 15.975947,21.4571195 C16.602245,21.4571195 17.1102648,21.986292 17.1102648,22.6415545 C17.1102648,23.296817 16.6021663,23.8298462 15.975947,23.8298462 Z" id="形状" fill="url(#linearGradient-1)" fill-rule="nonzero"></path>
    </g>
</svg>