<?xml version="1.0" encoding="UTF-8"?>
<svg width="32px" height="32px" viewBox="0 0 32 32" version="1.1" xmlns="http://www.w3.org/2000/svg" xmlns:xlink="http://www.w3.org/1999/xlink">
    <!-- Generator: Sketch 63.1 (92452) - https://sketch.com -->
    <title>进度管理</title>
    <desc>Created with Sketch.</desc>
    <defs>
        <linearGradient x1="50%" y1="0%" x2="50%" y2="100%" id="linearGradient-1">
            <stop stop-color="#1C92D2" offset="0%"></stop>
            <stop stop-color="#F2FCFE" offset="100%"></stop>
        </linearGradient>
        <linearGradient x1="50%" y1="0%" x2="50%" y2="100%" id="linearGradient-2">
            <stop stop-color="#1C92D2" offset="0%"></stop>
            <stop stop-color="#F2FCFE" offset="100%"></stop>
        </linearGradient>
    </defs>
    <g id="进度管理" stroke="none" stroke-width="1" fill="none" fill-rule="evenodd">
        <g id="编组-2" transform="translate(3.000000, 3.000000)" stroke="#32C5FF">
            <g id="编组">
                <path d="M20.3441307,14.9209707 C21.7710807,14.923131 23.0609488,15.5011519 23.9936427,16.4351395 C24.9261463,17.3689365 25.5014996,18.658466 25.499997,20.0834263 C25.4985847,21.5017303 24.920093,22.7842051 23.9852457,23.7120738 C23.049301,24.6410317 21.7563466,25.2145488 20.3273765,25.2142856 C18.9031181,25.2140356 17.614428,24.6382917 16.68187,23.7068201 C15.7496083,22.7756443 15.1733406,21.4890126 15.1733406,20.0669238 C15.1733406,18.6449025 15.7524191,17.3577823 16.6878699,16.426553 C17.6240138,15.4946336 18.917028,14.919065 20.3441307,14.9209707 Z M19.0197958,16.49003 C18.8413332,16.67495 18.7269995,16.9310215 18.7247702,17.2239967 L18.7243177,17.5342352 C18.7268655,18.2130604 18.7613785,18.9574288 19.0039897,20.2036154 C19.2620074,20.4767941 20.0866789,21.3149145 20.6801815,21.918022 C20.9260626,22.1678823 21.1319999,22.3771495 21.2405084,22.4882055 C21.3872367,22.6374233 21.5524555,22.7258998 21.7265982,22.7663092 C21.9010292,22.8067854 22.0880218,22.7992043 22.2807584,22.735475 C22.6490058,22.612808 22.8899221,22.3163754 22.9678061,21.9741035 C23.0424367,21.6461288 22.9654494,21.2758602 22.4347905,20.7072605 C21.9960204,20.2416207 21.2030706,19.4023939 20.8508119,18.975832 L20.8506154,18.3582293 C20.8508699,18.2351737 20.851211,18.1048798 20.8515536,17.9715818 C20.8521793,17.7280747 20.8528303,17.4746532 20.8530211,17.2365723 C20.8500157,16.9361275 20.7205613,16.6721146 20.5163082,16.4810281 C20.339297,16.3154274 20.1548029,16.0801197 19.0197958,16.49003 Z M5.78389653,0.5 C5.5849737,0.5 5.40415358,0.576389402 5.273568,0.70231363 C5.14968012,0.821779241 5.07142857,0.986373914 5.07142857,1.16918801 L5.07142857,3.50727541 C5.07142857,3.68997114 5.14969459,3.85447507 5.27355652,3.97388617 C5.4041485,4.09978548 5.58497067,4.17617479 5.78389653,4.17617479 C5.98285033,4.17617479 6.16371882,4.09970417 6.29436718,3.97377755 C6.41826042,3.85436193 6.496625,3.68989138 6.496625,3.50727541 L6.496625,1.16918801 C6.496625,0.986397016 6.41832841,0.821835735 6.29442932,0.702384974 C6.16377627,0.576422747 5.98287386,0.5 5.78389653,0.5 Z M17.911297,0.5 C17.7123135,0.5 17.5314114,0.57641792 17.4007604,0.702378124 C17.2768602,0.821829954 17.1985685,0.986394694 17.1985685,1.16918801 L17.1985685,3.50727541 C17.1985276,3.69000504 17.2768252,3.85441844 17.4006629,3.97378056 C17.5313441,4.09973882 17.7122918,4.17617479 17.911297,4.17617479 C18.1102814,4.17617479 18.2911485,4.09972833 18.4217864,3.97381183 C18.5456852,3.85439086 18.6240255,3.68990298 18.6240255,3.50727541 L18.6240255,1.16918801 C18.6240255,0.986410964 18.5456998,0.821870467 18.4218073,0.702426126 C18.2911417,0.576451741 18.1102376,0.5 17.911297,0.5 Z M11.8475968,0.5 C11.6486739,0.5 11.4678538,0.576389414 11.3372682,0.702313655 C11.2133803,0.821779262 11.1351287,0.986373922 11.1351287,1.16918801 L11.1351287,3.50727541 C11.135055,3.69007369 11.2132968,3.85447478 11.337095,3.97382446 C11.4677262,4.09976151 11.6486262,4.17617479 11.8475968,4.17617479 C12.0465506,4.17617479 12.227419,4.09970417 12.3580674,3.97377755 C12.4819607,3.85436193 12.5603252,3.68989138 12.5603252,3.50727541 L12.5603252,1.16918801 C12.5603252,0.986408639 12.4820044,0.821864678 12.3581109,0.702419266 C12.2274473,0.576446909 12.0465435,0.5 11.8475968,0.5 Z" id="形状" fill="url(#linearGradient-1)"></path>
                <path d="M2.73155203,2.78571429 L2.73155203,3.46820628 C2.73155203,4.26056054 3.05980023,4.97848278 3.59225396,5.4979401 C4.12022533,6.01302447 4.84931732,6.33260643 5.65510758,6.33260643 C6.46101696,6.33260643 7.19007048,6.01304102 7.71799485,5.49800251 C8.25045121,4.97854262 8.57866314,4.26059745 8.57866314,3.46820628 L8.57866314,3.46820628 L8.57866314,2.78571429 L8.79064339,3.46820628 C8.79064339,4.26057695 9.11887547,4.97850938 9.65133037,5.49796784 C10.1792808,6.01303183 10.9083557,6.33260643 11.7141989,6.33260643 C12.5201743,6.33260643 13.2492501,6.01304769 13.7771862,5.49802845 C14.3096777,4.97856526 14.6378991,4.2606099 14.6378991,3.46820628 L14.6378991,3.46820628 L14.6378991,2.78571429 L14.849619,3.46820628 C14.849619,4.2605894 15.1778606,4.97853201 15.7103507,5.49799378 C16.2383129,6.01303849 16.96741,6.33260643 17.7733192,6.33260643 C18.5791755,6.33260643 19.3082897,6.01303114 19.8362728,5.49796604 C20.3687617,4.97850542 20.6970194,4.260573 20.6970194,3.46820628 L20.6970194,3.46820628 L20.6970194,2.78571429 L22.2169961,2.78571429 C22.414951,2.78571429 22.594661,2.86307364 22.724532,2.98982713 C22.8499522,3.11223663 22.9285714,3.28106246 22.9285714,3.46820628 L22.9285714,3.46820628 L22.9285714,13.631665 C21.9936854,13.1787595 20.9465178,12.9244281 19.8403266,12.9244281 C18.7523551,12.9244281 17.7220466,13.1702267 16.7988243,13.60862 L16.7988243,13.60862 L4.44353228,13.60862 C3.97207034,13.60862 3.5459311,13.7958246 3.23729926,14.0968803 C2.92413529,14.4023569 2.73155203,14.8247273 2.73155203,15.2908493 C2.73155203,15.7568128 2.92414341,16.179233 3.23737313,16.4847662 C3.54600337,16.7858129 3.97211761,16.9730493 4.44353228,16.9730493 L4.44353228,16.9730493 L13.4139574,16.9730493 C13.147025,17.5235814 12.9475824,18.1134511 12.8264442,18.7318276 L12.8264442,18.7318276 L4.24146808,18.7318276 C3.82589599,18.7318276 3.4503055,18.897005 3.17823712,19.162364 C2.90153857,19.4322391 2.73155203,19.8053853 2.73155203,20.2168386 C2.73155203,20.6281735 2.90152916,21.0014469 3.17826027,21.2714416 C3.45034418,21.5369023 3.82593279,21.7021708 4.24146808,21.7021708 L4.24146808,21.7021708 L12.858187,21.7021708 C13.0982735,22.7967221 13.584665,23.7976705 14.2557355,24.6428571 L14.2557355,24.6428571 L1.21171993,24.6428571 C1.01370444,24.6428571 0.83395179,24.5654991 0.70404925,24.4387582 C0.578637863,24.316399 0.5,24.1476564 0.5,23.9606279 L0.5,23.9606279 L0.5,3.46820628 C0.5,3.28106369 0.578619917,3.11223901 0.704052032,2.98983245 C0.833949985,2.86306777 1.0137044,2.78571429 1.21171993,2.78571429 L1.21171993,2.78571429 L2.73155203,2.78571429 Z M18.9854441,8.48517889 L4.44353228,8.48517889 C3.97212488,8.48517889 3.54600353,8.67247583 3.23736222,8.97360769 C2.92413715,9.27921179 2.73155203,9.7017129 2.73155203,10.1676709 C2.73155203,10.6336483 2.9241421,11.0560713 3.23736542,11.3616058 C3.54599681,11.6626611 3.97211397,11.8499002 4.44353228,11.8499002 L18.9854441,11.8499002 C19.4567302,11.8499002 19.882781,11.6626412 20.1913685,11.361528 C20.5044785,11.0560021 20.6970194,10.6336034 20.6970194,10.1676709 C20.6970194,9.70171585 20.5045173,9.27921886 20.1914054,8.9736231 C19.8828644,8.6724884 19.4568598,8.48517889 18.9854441,8.48517889 Z" id="形状" fill="url(#linearGradient-2)"></path>
            </g>
        </g>
    </g>
</svg>