<?xml version="1.0" encoding="UTF-8"?>
<svg width="32px" height="32px" viewBox="0 0 32 32" version="1.1" xmlns="http://www.w3.org/2000/svg" xmlns:xlink="http://www.w3.org/1999/xlink">
    <!-- Generator: Sketch 63.1 (92452) - https://sketch.com -->
    <title>预警监控备份</title>
    <desc>Created with Sketch.</desc>
    <defs>
        <linearGradient x1="50%" y1="0%" x2="50%" y2="100%" id="linearGradient-1">
            <stop stop-color="#4CD964" offset="0%"></stop>
            <stop stop-color="#F2FCFE" offset="100%"></stop>
        </linearGradient>
    </defs>
    <g id="预警监控备份" stroke="none" stroke-width="1" fill="none" fill-rule="evenodd">
        <path d="M8.10107031,25.2059453 L8.10107031,17.7936016 C8.10107031,13.3596953 11.6964766,9.76363281 16.1348359,9.76363281 C20.5731953,9.76363281 24.168625,13.3597188 24.168625,17.7936016 L24.168625,25.2059453 L26.9110937,25.2059453 C27.480625,25.2059453 27.9423437,25.6676641 27.9423437,26.2371953 C27.9423437,26.8067266 27.480625,27.2684453 26.9110937,27.2684453 L5.03125,27.2684453 C4.46169531,27.2684453 4,26.8067266 4,26.2371953 C4,25.6676641 4.46169531,25.2059453 5.03125,25.2059453 L8.10109375,25.2059453 L8.10107031,25.2059453 Z M16.7164141,12.9996016 L12.7536719,19.5234063 L15.9229141,19.5234063 L15.1294375,24.4162656 L19.0921797,17.8924609 L15.9228906,17.8924609 L16.7163906,12.9996016 L16.7164141,12.9996016 L16.7164141,12.9996016 Z M22.7935234,5.83335156 C23.1655937,6.04984375 23.2927187,6.52761719 23.0784297,6.89947656 L21.6539453,9.37532031 L20.3071328,8.59630469 L21.7316641,6.12046094 C21.9435391,5.748625 22.4191562,5.62154688 22.7888359,5.83335156 L22.7935234,5.83335156 Z M16.1324922,4 C16.5987109,4 16.9754453,4.35067188 16.9754453,4.78607031 L16.9754453,7.591375 L15.2895625,7.591375 L15.2895625,4.78372656 C15.2895391,4.35069531 15.6662734,4 16.1324922,4 L16.1324687,4 L16.1324922,4 Z M9.47617187,5.83335156 C9.84585156,5.61917969 10.3214453,5.74625781 10.5357344,6.11577344 C10.5357344,6.11577344 10.5357344,6.11811719 10.5380781,6.11811719 L11.9626094,8.59396094 L10.6157734,9.37295313 L9.19124219,6.89710938 C8.97702344,6.52525 9.10414844,6.04984375 9.47614844,5.83335156 L9.47617187,5.83335156 Z M4.60217969,10.7262109 C4.81407812,10.3543281 5.28969531,10.2248828 5.66174219,10.4390547 C5.66174219,10.4390547 5.66408594,10.4390547 5.66408594,10.4414219 L8.13165625,11.8723281 L7.35465625,13.2232188 L4.8870625,11.7899219 C4.5150625,11.5757734 4.38789062,11.098 4.60217969,10.7261641 L4.60217969,10.7262109 Z M27.6674922,10.7262109 C27.8817812,11.0980234 27.7546094,11.5757969 27.3826094,11.7922891 L24.9149922,13.2208516 L24.1379922,11.8699844 L26.6055625,10.4390547 C26.9752422,10.2249063 27.4508359,10.3519844 27.665125,10.7214766 C27.665125,10.7238203 27.6674687,10.7238203 27.6674687,10.7261641 L27.6674687,10.7262109 L27.6674922,10.7262109 Z" id="形状" fill="url(#linearGradient-1)" fill-rule="nonzero"></path>
    </g>
</svg>