<?xml version="1.0" encoding="UTF-8"?>
<svg width="32px" height="32px" viewBox="0 0 32 32" version="1.1" xmlns="http://www.w3.org/2000/svg" xmlns:xlink="http://www.w3.org/1999/xlink">
    <!-- Generator: Sketch 63.1 (92452) - https://sketch.com -->
    <title>三维模型备份</title>
    <desc>Created with Sketch.</desc>
    <g id="三维模型备份" stroke="none" stroke-width="1" fill="none" fill-rule="evenodd">
        <path d="M23.6076931,10.7499986 C23.7463175,10.8251851 23.8320122,10.9660717 23.8320122,11.1187069 C23.8320122,11.2712449 23.7462932,11.4121315 23.6076931,11.4874153 L16.7644046,15.1237584 C16.4904882,15.2752017 16.1529879,15.2752017 15.8790958,15.1237584 L9.10663976,11.4874153 C8.96794237,11.4121315 8.88222339,11.2712449 8.88222339,11.1187069 C8.88222339,10.9660717 8.96794237,10.8251851 9.10663976,10.7499986 L15.9675878,7.11358251 C16.2415042,6.96213916 16.5790044,6.96213916 16.8529208,7.11358251 L23.6076931,10.7499986 Z" id="路径" fill="#A0A0A0" fill-rule="nonzero"></path>
        <path d="M15.0115196,16.5308485 C15.2927089,16.6821946 15.465655,16.9679813 15.4630099,17.2767788 L15.418782,24.5326325 C15.4161063,24.6810596 15.3326252,24.8172273 15.1985737,24.8918057 C15.0645223,24.9663355 14.8996519,24.9684031 14.7636302,24.8971571 L8.49575826,21.5998223 C8.20024183,21.4612709 8.00924711,21.1772842 8.00000192,20.8623813 L8.00000192,13.5556411 C7.99954169,13.4057301 8.08185526,13.2668382 8.21646617,13.1901678 C8.35095545,13.1135705 8.51782043,13.1107732 8.65508269,13.1827003 L15.0115196,16.5308485 Z" id="路径" fill="#6CFF00" fill-rule="nonzero"></path>
        <path d="M24.0591529,13.2250246 C24.1965124,13.1530732 24.3632801,13.1559921 24.4978667,13.2325895 C24.6324533,13.3091625 24.7146696,13.4481518 24.7143301,13.5980384 L24.7143301,20.9047056 C24.7118966,21.2123113 24.5356911,21.4945709 24.2538936,21.642171 L17.9860703,24.9479706 C17.8487837,25.0198977 17.681943,25.0171004 17.5473321,24.940503 C17.4128429,24.863857 17.3305293,24.7249407 17.3309914,24.5750298 L17.2866968,17.3192004 C17.287232,17.0133948 17.4597402,16.731573 17.7382296,16.5817351 L24.0591529,13.2250246 Z" id="路径" fill="#CFCFCF" fill-rule="nonzero"></path>
    </g>
</svg>