<?xml version="1.0" encoding="UTF-8"?>
<svg width="32px" height="32px" viewBox="0 0 32 32" version="1.1" xmlns="http://www.w3.org/2000/svg" xmlns:xlink="http://www.w3.org/1999/xlink">
    <!-- Generator: Sketch 63.1 (92452) - https://sketch.com -->
    <title>正射影像</title>
    <desc>Created with Sketch.</desc>
    <g id="正射影像" stroke="none" stroke-width="1" fill="none" fill-rule="evenodd">
        <g transform="translate(7.000000, 9.000000)" fill-rule="nonzero" id="编组">
            <g>
                <path d="M0.299076336,13.6547406 C0.119630526,13.6547406 0,13.5351101 0,13.3556643 L0,2.3926107 C0,2.21316489 0.11963054,2.09353437 0.299076336,2.09353437 L7.40023366,2.09353437 C7.57967947,2.09353437 7.69931,2.21316491 7.69931,2.3926107 L7.69931,13.3556643 C7.69931,13.5351101 7.57967946,13.6547406 7.40023366,13.6547406 L0.299076336,13.6547406 Z" id="路径" fill="#F0F0F0"></path>
                <path d="M7.28060312,13.624833 C7.16097258,13.5650177 7.10115731,13.4752948 7.10115731,13.3556643 L7.10115731,2.3926107 C7.10115731,2.3028878 7.13106494,2.24307253 7.19088021,2.18325727 L9.16478406,0.239261066 C9.25450696,0.149538161 9.37413749,0.119630526 9.49376803,0.17944581 C9.61339857,0.209353445 9.67321382,0.299076351 9.67321382,0.418706877 L9.67321382,11.5312986 C9.67321382,11.6210215 9.64330619,11.6808368 9.58349093,11.740652 L7.60958709,13.5650177 C7.54977182,13.624833 7.48995655,13.6547406 7.40023366,13.6547406 C7.37032603,13.6547406 7.31051075,13.6547406 7.28060312,13.624833 Z" id="路径" fill="#CFCFCF"></path>
                <path d="M0.328983971,2.69168706 C0.209353431,2.69168706 0.0897229052,2.60196415 0.0598152701,2.51224125 C0.0299076351,2.42251834 0.0299076351,2.27298018 0.0897229052,2.18325727 L2.00381148,0.0897229052 C2.09353438,0.0299076351 2.15334965,-2.27373675e-13 2.24307254,-2.27373675e-13 L9.13487641,-2.27373675e-13 C9.25450695,-2.27373675e-13 9.37413747,0.0598152701 9.40404511,0.17944581 C9.43395274,0.299076351 9.43395274,0.418706877 9.34422985,0.508429782 L7.43014128,2.60196415 C7.37032601,2.63187179 7.28060311,2.69168706 7.22078784,2.69168706 L0.328983971,2.69168706 Z" id="路径" fill="#A0A0A0"></path>
                <path d="M7.43014128,13.3556643 L14.6079734,13.3556643 L14.6079734,13.6547406 L7.43014128,13.6547406 L7.43014128,13.3556643 Z M8.02829397,12.7575116 L14.9070498,12.7575116 L14.9070498,13.0565879 L8.02829397,13.0565879 L8.02829397,12.7575116 Z M8.3273703,12.1593589 L15.2061261,12.1593589 L15.2061261,12.4584352 L8.3273703,12.4584352 L8.3273703,12.1593589 Z M8.92552298,11.5612062 L15.5052024,11.5612062 L15.5052024,11.8602826 L8.92552298,11.8602826 L8.92552298,11.5612062 Z M9.22459933,10.9630536 L15.8042788,10.9630536 L15.8042788,11.2621299 L9.22459933,11.2621299 L9.22459933,10.9630536 Z M9.22459933,10.3649009 L16.1033551,10.3649009 L16.1033551,10.6639772 L9.22459933,10.6639772 L9.22459933,10.3649009 Z M9.52367566,9.76674821 L16.4024315,9.76674821 L16.4024315,10.0658245 L9.52367566,10.0658245 L9.52367566,9.76674821 Z M9.52367566,9.16859552 L16.7015078,9.16859552 L16.7015078,9.46767186 L9.52367566,9.46767186 L9.52367566,9.16859552 Z M9.52367566,8.57044285 L17.0005841,8.57044285 L17.0005841,8.86951918 L9.52367566,8.86951918 L9.52367566,8.57044285 Z" id="形状" fill="#F0F0F0"></path>
            </g>
        </g>
    </g>
</svg>