<?xml version="1.0" encoding="UTF-8"?>
<svg width="32px" height="32px" viewBox="0 0 32 32" version="1.1" xmlns="http://www.w3.org/2000/svg" xmlns:xlink="http://www.w3.org/1999/xlink">
    <!-- Generator: Sketch 63.1 (92452) - https://sketch.com -->
    <title>等高线</title>
    <desc>Created with Sketch.</desc>
    <g id="等高线" stroke="none" stroke-width="1" fill="none" fill-rule="evenodd">
        <g id="编组" transform="translate(6.000000, 9.000000)" fill-rule="nonzero">
            <path d="M10.0398,14.801975 C9.8022,14.801975 9.6318,14.803575 9.1198,14.807575 C7.791,14.819575 7.1054,14.815575 6.2886,14.775575 C3.5526,14.645175 1.6934,14.134775 0.699,12.957175 C-0.0858,12.029175 -0.1354,10.739575 0.2246,8.405175 C0.2494,8.242775 0.2742,8.085975 0.3142,7.841175 C0.5398,6.449175 0.6046,5.949175 0.6046,5.366775 C0.6046,2.878775 1.5694,1.388375 3.4726,0.657975 C4.8926,0.113975 6.2902,0.012375 9.9326,0.0131703326 L10.1462,0.0131703326 C13.7894,0.0131703326 15.187,0.113975 16.607,0.657975 C18.5102,1.388375 19.475,2.878775 19.475,5.366775 C19.475,6.889975 18.867,7.828375 17.219,9.483575 L17.091,9.611575 C16.6054,10.098775 16.3638,10.351575 16.1094,10.650775 C16.0278,10.746775 15.943,10.846775 15.8494,10.959575 L15.2406,11.693175 C13.3846,13.915575 12.1206,14.801975 10.0398,14.801975 L10.0398,14.801975 Z M10.0398,14.001975 C11.8182,14.001975 12.9094,13.236375 14.6262,11.180375 L15.235,10.446775 L15.4998,10.132375 C15.7718,9.812375 16.0246,9.548375 16.5238,9.047575 L16.6518,8.919575 C18.159,7.405975 18.675,6.608375 18.675,5.365975 C18.675,3.201175 17.9054,2.012375 16.3206,1.404375 C15.031,0.909975 13.6766,0.812375 10.147,0.812375 L9.9326,0.812375 C6.403,0.812375 5.0486,0.909975 3.759,1.404375 C2.1734,2.012375 1.4046,3.201175 1.4046,5.365975 C1.4046,6.009175 1.3374,6.527575 1.1038,7.968375 C1.0638,8.211575 1.0398,8.365975 1.0158,8.525975 C0.691,10.625975 0.7358,11.759575 1.3102,12.440375 C2.1142,13.392375 3.8014,13.854775 6.327,13.976375 C7.1238,14.013975 7.799,14.018775 9.1126,14.006775 C9.6278,14.002775 9.799,14.001175 10.0398,14.001175 L10.0398,14.001975 Z" id="形状" fill="#909090"></path>
            <path d="M9.731,13.673975 C9.5294,13.673975 9.3854,13.675575 8.9502,13.678775 C7.8222,13.689175 7.2406,13.685175 6.547,13.652375 C4.211,13.540375 2.6222,13.104375 1.7646,12.089175 C1.083,11.281975 1.0406,10.177175 1.3486,8.180375 C1.3694,8.042775 1.391,7.909975 1.4246,7.701975 C1.615,6.525975 1.6702,6.102775 1.6702,5.613975 C1.6702,3.479575 2.5022,2.193175 4.1406,1.565175 C5.3542,1.099575 6.5422,1.013175 9.6398,1.013175 L9.8206,1.013175 C12.9182,1.013175 14.1062,1.099575 15.3198,1.565175 C16.9574,2.193175 17.791,3.479575 17.791,5.613175 C17.791,6.926775 17.2686,7.733175 15.8598,9.147575 L15.7518,9.256375 C15.3821326,9.6168509 15.0320315,9.99686152 14.703,10.394775 C14.6206,10.492375 14.2766,10.908375 14.1862,11.016375 C12.6022,12.913975 11.5182,13.673975 9.7302,13.673975 L9.731,13.673975 Z M9.731,12.873975 C11.215,12.873975 12.127,12.233975 13.5726,10.503575 L14.0886,9.881975 C14.1686,9.785175 14.2422,9.697975 14.3126,9.614775 C14.5454,9.341975 14.7606,9.117175 15.1846,8.691575 L15.2934,8.582775 C16.5606,7.310775 16.991,6.645975 16.991,5.613975 C16.991,3.802775 16.3534,2.817975 15.0334,2.312375 C13.9502,1.896375 12.8054,1.813975 9.8206,1.813975 L9.6398,1.813975 C6.6558,1.813975 5.5102,1.896375 4.427,2.312375 C3.107,2.817975 2.4702,3.802775 2.4702,5.613975 C2.4702,6.163575 2.4126,6.604375 2.2142,7.829975 L2.139,8.301975 C1.867,10.064375 1.9038,11.013975 2.3758,11.572375 C3.0422,12.361975 4.4598,12.751575 6.5854,12.852375 C7.259,12.885175 7.8302,12.889175 8.9438,12.878775 C9.3806,12.875575 9.5262,12.873975 9.7302,12.873975 L9.731,12.873975 Z" id="形状" fill="#999999"></path>
            <path d="M9.015,12.122775 C8.8598,12.122775 8.7486,12.123575 8.4126,12.126775 C7.5382,12.134775 7.0862,12.131575 6.547,12.105975 C4.715,12.017975 3.4654,11.674775 2.7806,10.863575 C2.2294,10.211575 2.1958,9.338775 2.4382,7.766775 C2.4542,7.659575 2.471,7.557175 2.4974,7.395575 C2.6438,6.490775 2.6862,6.165975 2.6862,5.793975 C2.6862,4.105975 3.3526,3.075575 4.6566,2.575575 C5.6102,2.209975 6.535,2.143575 8.9446,2.143575 L9.0854,2.143575 C11.495,2.143575 12.4198,2.209975 13.3734,2.575575 C14.6774,3.075575 15.3438,4.105975 15.3438,5.793975 C15.3438,6.841975 14.9294,7.481975 13.8238,8.592375 L13.739,8.677175 C13.4547992,8.95405262 13.1856145,9.24593639 12.9326,9.551575 C12.8702,9.627575 12.6038,9.949175 12.5326,10.033175 C11.2918,11.521175 10.4326,12.122775 9.015,12.122775 L9.015,12.122775 Z M9.015,11.322775 C10.1302,11.322775 10.8166,10.841175 11.919,9.520375 L12.319,9.039575 L12.4934,8.831575 C12.675,8.617975 12.8422,8.44356764 13.1734,8.111575 L13.2566,8.027575 C14.2214,7.059575 14.5446,6.561175 14.5446,5.793975 C14.5446,4.428375 14.0726,3.701175 13.087,3.322775 C12.263,3.006775 11.3822,2.942775 9.0854,2.94356764 L8.9446,2.94356764 C6.6486,2.94356764 5.767,3.007575 4.943,3.322775 C3.9574,3.701175 3.4862,4.428375 3.4862,5.793975 C3.4862,6.225975 3.4414,6.569975 3.287,7.523575 L3.2294,7.888375 C3.023,9.225975 3.0502,9.94356764 3.3918,10.347575 C3.8862,10.933175 4.9638,11.229175 6.5854,11.306775 C7.1054,11.330775 7.5454,11.333975 8.4054,11.326775 C8.7438,11.323575 8.8566,11.322775 9.015,11.322775 L9.015,11.322775 Z" id="形状" fill="#A0A0A0"></path>
            <path d="M8.211,10.441975 C8.1038,10.441975 8.0262,10.441975 7.7934,10.444375 C7.1846,10.449975 6.8694,10.447575 6.4926,10.429975 C5.1894,10.367575 4.2958,10.121975 3.791,9.525175 C3.3766,9.033975 3.3526,8.405175 3.527,7.277975 L3.567,7.019575 C3.6678,6.399575 3.6966,6.176375 3.6966,5.928375 C3.6966,4.707575 4.1894,3.946775 5.1422,3.581175 C5.8246,3.319575 6.4726,3.272375 8.1622,3.272375 L8.259,3.272375 C9.9486,3.272375 10.5966,3.319575 11.279,3.581175 C12.2318,3.946775 12.7246,4.707575 12.7246,5.928375 C12.7246,6.697975 12.423,7.164375 11.6334,7.956375 L11.575,8.014775 C11.3804303,8.20478653 11.1961669,8.40507283 11.023,8.614775 L10.7454,8.948375 C9.863,10.005175 9.2414,10.441975 8.211,10.441975 L8.211,10.441975 Z M8.211,9.641975 C8.9382,9.641975 9.387,9.326775 10.131,8.435575 L10.4086,8.101975 L10.531,7.956375 C10.659,7.805175 10.7774,7.681975 11.0086,7.449975 L11.067,7.391575 C11.715,6.741975 11.9246,6.417175 11.9246,5.927575 C11.9246,5.029975 11.6278,4.571575 10.9918,4.327575 C10.4398,4.116375 9.8358,4.072375 8.259,4.072375 L8.1622,4.072375 C6.5862,4.072375 5.9806,4.116375 5.4294,4.328375 C4.7942,4.571575 4.4966,5.029975 4.4966,5.928375 C4.4966,6.237175 4.4654,6.478775 4.3574,7.147575 L4.3174,7.400375 C4.1798,8.292375 4.1974,8.765975 4.4022,9.008375 C4.7166,9.380375 5.4382,9.577975 6.5302,9.630775 C6.8878,9.647575 7.1926,9.649975 7.7862,9.644375 L8.2102,9.641975 L8.211,9.641975 Z" id="形状" fill="#CFCFCF"></path>
            <path d="M7.0094,8.184375 L6.8166,8.185975 C6.527,8.188375 6.3766,8.187575 6.195,8.178775 C5.5286,8.146775 5.0646,8.018775 4.7774,7.679575 C4.5278,7.383575 4.515,7.047575 4.6062,6.457975 L4.6254,6.335575 C4.6702,6.057975 4.683,5.958775 4.683,5.857975 C4.683,5.201175 4.9662,4.764375 5.4966,4.560375 C5.851,4.424375 6.1654,4.401975 6.987,4.401975 L7.0326,4.401975 C7.8534,4.401975 8.1686,4.425175 8.523,4.560375 C9.0534,4.764375 9.3358,5.200375 9.3358,5.857975 C9.3358,6.293975 9.171,6.549175 8.763,6.957975 L8.7358,6.985975 C8.66904766,7.05105373 8.60499378,7.11884409 8.5438,7.189175 L8.4902,7.252375 L8.3598,7.409175 C7.9102,7.948375 7.5726,8.185175 7.0094,8.185175 L7.0094,8.184375 Z M7.0094,7.384375 C7.2702,7.384375 7.4342,7.269175 7.7454,6.896375 L7.8758,6.739575 L7.9342,6.669975 C7.999,6.593975 8.0574,6.533975 8.1694,6.420375 L8.1966,6.393175 C8.4622,6.126775 8.5358,6.012375 8.5358,5.857975 C8.5358,5.523575 8.4494,5.389175 8.2358,5.307575 C8.0118,5.221975 7.7406,5.201975 7.0326,5.201975 L6.987,5.201975 C6.279,5.201975 6.007,5.221975 5.783,5.307575 C5.5702,5.389175 5.483,5.523575 5.483,5.857975 C5.483,6.019575 5.4678,6.137175 5.415,6.463575 L5.3966,6.580375 C5.3414,6.935575 5.3486,7.116375 5.3886,7.163575 C5.4846,7.277975 5.7774,7.357975 6.2334,7.379575 C6.395,7.387575 6.535,7.387575 6.8094,7.385975 L7.0094,7.384375 L7.0094,7.384375 Z" id="形状" fill="#F0F0F0"></path>
        </g>
    </g>
</svg>