<?xml version="1.0" encoding="UTF-8"?>
<svg width="32px" height="32px" viewBox="0 0 32 32" version="1.1" xmlns="http://www.w3.org/2000/svg" xmlns:xlink="http://www.w3.org/1999/xlink">
    <!-- Generator: Sketch 63.1 (92452) - https://sketch.com -->
    <title>默认视角</title>
    <desc>Created with Sketch.</desc>
    <g id="默认视角" stroke="none" stroke-width="1" fill="none" fill-rule="evenodd">
        <g id="编组-15" transform="translate(7.000000, 8.000000)" fill-rule="nonzero">
            <path d="M4.26578628,7.12183048 L4.265871,8.24971901 C2.31004688,8.96488769 1.06666667,10.0755288 1.06666667,11.19445 C1.06666667,13.0727834 4.5705555,14.9277833 9.06666667,14.9277833 C13.5627778,14.9277833 17.0666667,13.0727834 17.0666667,11.19445 C17.0666667,10.2955575 16.264212,9.40200876 14.934578,8.71455201 L14.9341744,7.53498778 C16.8914592,8.41543917 18.1333333,9.72816525 18.1333333,11.19445 C18.1333333,13.8454168 14.0740484,15.99445 9.06666667,15.99445 C4.05928494,15.99445 0,13.8454168 0,11.19445 C0,9.47689084 1.70397952,7.97003001 4.26578628,7.12183048 Z" id="形状结合" fill="#CFCFCF"></path>
            <path d="M13.8722167,2.10794345e-14 L17.4277833,2.10794345e-14 L17.4277833,3.55556667 C17.4277833,3.55556667 16.7166667,2.13333333 16.00555,1.42223333 C15.2944333,0.711133333 13.8722167,2.10794345e-14 13.8722167,2.10794345e-14 L13.8722167,2.10794345e-14 Z" id="路径" fill="#F0F0F0"></path>
            <path d="M8.89445,0.782233333 C9.10778333,0.711116667 9.39221667,0.711116667 9.60555,0.782233333 L9.60555,0.782233333 L14.72555,3.41333333 L15.29445,3.55556667 L15.29445,10.6666667 L9.60555,13.5111167 L8.89445,13.5111167 L3.20555,10.6666667 L3.20555,3.55556667 L3.77445,3.41333333 Z M13.8722167,5.47556667 L10.3166667,7.32445 L10.3166667,11.6622333 L13.8722167,9.81333333 L13.8722167,5.47556667 Z M9.25,2.20445 L5.48111667,4.19556667 L9.25,6.04445 L13.0188833,4.12445 L9.25,2.20445 Z" id="形状结合" fill="#A0A0A0"></path>
            <polygon id="路径备份" fill="#F0F0F0" transform="translate(6.227775, 8.825830) scale(-1, 1) translate(-6.227775, -8.825830) " points="3.20555 13.5111167 3.20555 6.98497657 9.25 4.14054323 9.25 10.6666667"></polygon>
        </g>
    </g>
</svg>