<?xml version="1.0" encoding="UTF-8"?>
<svg width="32px" height="32px" viewBox="0 0 32 32" version="1.1" xmlns="http://www.w3.org/2000/svg" xmlns:xlink="http://www.w3.org/1999/xlink">
    <!-- Generator: Sketch 63.1 (92452) - https://sketch.com -->
    <title>施工布置线备份</title>
    <desc>Created with Sketch.</desc>
    <g id="施工布置线备份" stroke="none" stroke-width="1" fill="none" fill-rule="evenodd">
        <g id="编组" transform="translate(4.000000, 12.000000)" fill-rule="nonzero">
            <path d="M22.6842018,0.0187309794 C22.8455764,0.0187309794 22.9889404,0.170740047 22.9889404,0.342200512 L22.9889404,3.1359975 C22.9889404,3.30745796 22.844856,3.45946703 22.6842018,3.45946703 L21.5733109,3.45946703 L19.8176422,0.0187309794 L22.6842018,0.0187309794 Z M18.7247618,0.0187309794 L20.4804306,3.44073606 L17.4524964,3.44073606 L15.6968277,0.0187309794 L18.7247618,0.0187309794 Z M6.41562947,-4.21884749e-15 L8.17129819,3.44073606 L5.30401813,3.44073606 C5.14408443,3.44073606 5,3.28800656 5,3.11726653 L5,0.342200512 C5,0.170740047 5.14336401,0.0187309794 5.30473855,0.0187309794 L5.30473855,-4.21884749e-15 L6.41562947,-4.21884749e-15 Z M10.6077658,0.0187309794 L12.3641549,3.44073606 L9.24616799,3.44073606 L7.47248872,0.0187309794 L10.6077658,0.0187309794 Z M14.6212374,0.0187309794 L16.3956371,3.44073606 L13.4563149,3.44073606 L11.6840765,0.0187309794 L14.6212374,0.0187309794 Z" id="形状结合" fill="#6CFF00"></path>
            <path d="M17.6842018,5.01873098 C17.8455764,5.01873098 17.9889404,5.17074005 17.9889404,5.34220051 L17.9889404,8.1359975 C17.9889404,8.30745796 17.844856,8.45946703 17.6842018,8.45946703 L16.5733109,8.45946703 L14.8176422,5.01873098 L17.6842018,5.01873098 Z M13.7247618,5.01873098 L15.4804306,8.44073606 L12.4524964,8.44073606 L10.6968277,5.01873098 L13.7247618,5.01873098 Z M1.41562947,5 L3.17129819,8.44073606 L0.304018134,8.44073606 C0.144084427,8.44073606 -3.44169138e-14,8.28800656 -3.44169138e-14,8.11726653 L-3.44169138e-14,5.34220051 C-3.44169138e-14,5.17074005 0.143364008,5.01873098 0.304738553,5.01873098 L0.304738553,5 L1.41562947,5 Z M5.6077658,5.01873098 L7.36415493,8.44073606 L4.24616799,8.44073606 L2.47248872,5.01873098 L5.6077658,5.01873098 Z M9.62123744,5.01873098 L11.3956371,8.44073606 L8.45631487,8.44073606 L6.68407645,5.01873098 L9.62123744,5.01873098 Z" id="形状结合备份-3" fill="#A0A0A0"></path>
        </g>
    </g>
</svg>