<?xml version="1.0" encoding="UTF-8"?>
<svg width="32px" height="32px" viewBox="0 0 32 32" version="1.1" xmlns="http://www.w3.org/2000/svg" xmlns:xlink="http://www.w3.org/1999/xlink">
    <!-- Generator: Sketch 63.1 (92452) - https://sketch.com -->
    <title>注记图层备份</title>
    <desc>Created with Sketch.</desc>
    <defs>
        <polygon id="path-1" points="-2.8424485e-13 3.99499236 6.4460518 2.10040571 19 3.99499236 17 14.9949924 3 14.9949924"></polygon>
        <filter x="-5.3%" y="-7.8%" width="110.5%" height="115.5%" filterUnits="objectBoundingBox" id="filter-2">
            <feGaussianBlur stdDeviation="0.5" in="SourceAlpha" result="shadowBlurInner1"></feGaussianBlur>
            <feOffset dx="0" dy="-1" in="shadowBlurInner1" result="shadowOffsetInner1"></feOffset>
            <feComposite in="shadowOffsetInner1" in2="SourceAlpha" operator="arithmetic" k2="-1" k3="1" result="shadowInnerInner1"></feComposite>
            <feColorMatrix values="0 0 0 0 1   0 0 0 0 1   0 0 0 0 1  0 0 0 0.5 0" type="matrix" in="shadowInnerInner1"></feColorMatrix>
        </filter>
    </defs>
    <g id="注记图层备份" stroke="none" stroke-width="1" fill="none" fill-rule="evenodd">
        <g id="编组-11" transform="translate(6.000000, 9.000000)">
            <g id="矩形">
                <use fill="#A0A0A0" fill-rule="evenodd" xlink:href="#path-1"></use>
                <use fill="black" fill-opacity="1" filter="url(#filter-2)" xlink:href="#path-1"></use>
            </g>
            <path d="M8.69348407,8.61773443 L9.73389749,9.30306422 L7.1489623,12.8943763 L7.15080211,12.8962161 L7.14436277,12.8989758 L7.14160305,12.9026555 L7.13976324,12.9017356 L6,13.4196425 L6.10118964,12.2053669 L6.10762897,12.2090465 L8.69348407,8.61773443 Z M13.8155194,2.57487346 C13.90659,2.63466734 13.9985806,2.68526215 14.0905712,2.72849773 C14.5008492,3.04678512 15.0914287,3.21604778 15.4575512,3.13325626 C15.8991059,3.03298653 15.946941,2.58315261 15.5642602,2.12687937 C15.422789,1.96648675 15.261063,1.82516981 15.0831495,1.70648243 C14.9663998,1.57622113 14.8331088,1.46179495 14.6866701,1.3661173 C14.0970105,0.976997168 13.4438774,0.938361124 13.1991825,1.27780634 C13.0786749,1.44614909 13.0805147,1.67704545 13.2065418,1.92725981 C13.3242897,2.1645955 13.5404675,2.39365203 13.8155194,2.57487346 L13.8155194,2.57487346 Z M15.5670199,6.33176861 C17.3994722,8.19181806 17.5402178,10.2275695 15.8816277,10.877023 C14.3049092,11.4951997 11.4872379,10.71144 9.63914719,9.03353183 C9.5285401,8.96780378 9.41935294,8.89971516 9.31166075,8.82931276 C8.18937572,8.08970852 7.30626618,7.15324445 6.82515547,6.19194293 C6.33760542,5.21684282 6.3192073,4.33097356 6.77640047,3.69623859 C7.23267373,3.06150362 8.1047444,2.76161434 9.23162895,2.84992529 C9.75689515,2.89132105 10.3088386,3.01550832 10.8635418,3.21236816 L11.9333922,1.72764026 C11.7089352,1.24376983 11.6905371,0.780137329 11.9333922,0.443451806 C12.1357714,0.161960641 12.4844157,0.0230548679 12.9103321,0.00925628914 C13.0363592,-0.00178258266 13.1706654,-0.00362239218 13.3141707,0.00741647962 C13.9093498,0.0534117617 14.5689222,0.298106707 15.1705406,0.693666179 C15.771239,1.08922565 16.2440706,1.59149421 16.5025641,2.10756134 C16.767497,2.63742706 16.7757761,3.12037759 16.5255617,3.46902187 C16.3029445,3.7762704 15.9046253,3.94093353 15.390398,3.94093352 L15.3260046,3.93817381 L14.346305,5.29779453 C14.7896996,5.62160136 15.2036572,5.9628864 15.5670199,6.33176861 Z" id="形状" fill="#6CFF00" fill-rule="nonzero"></path>
        </g>
    </g>
</svg>