<?xml version="1.0" encoding="UTF-8"?>
<svg width="32px" height="32px" viewBox="0 0 32 32" version="1.1" xmlns="http://www.w3.org/2000/svg" xmlns:xlink="http://www.w3.org/1999/xlink">
    <!-- Generator: Sketch 63.1 (92452) - https://sketch.com -->
    <title>晕渲图备份</title>
    <desc>Created with Sketch.</desc>
    <g id="晕渲图备份" stroke="none" stroke-width="1" fill="none" fill-rule="evenodd">
        <g id="编组" transform="translate(8.000000, 8.000000)" fill-rule="nonzero">
            <path d="M0.00179020979,2.03785548 L0.00179020979,0.596736597 C0.00179020979,0.267168075 0.268958284,0 0.598526807,0 L14.9202051,0 C15.1911815,0 15.4281504,0.182550593 15.4972494,0.444568765 C15.3922238,1.96505361 15.0413427,2.99740793 14.4446061,3.54222844 C13.3579487,4.53519814 13.3668998,6.2955711 13.8234033,9.18974359 C14.27931,12.0845128 9.99295105,12.8047739 9.31326807,12.3064988 C8.63358508,11.8082238 8.08399068,11.966359 7.48128671,12.8047739 C6.87858275,13.6437855 5.07822844,16.4400932 3.4861352,15.2054452 C1.89404196,13.9702005 4.71421911,11.9442797 3.04574359,10.8594126 C1.37726807,9.77514219 2.93534732,7.89303497 4.1318042,7.13100233 C5.32945455,6.36956643 4.69631702,5.34855012 4.1318042,4.91352914 C3.75586014,4.62291841 2.37918881,3.66455944 0.00179020979,2.03785548 L0.00179020979,2.03785548 Z" id="路径" fill="#A0A0A0"></path>
            <path d="M0.598526807,0.596736597 L0.598526807,14.9184149 L14.9202051,14.9184149 L14.9202051,0.763822844 L9.15931002,4.17715618 L0.599123543,0.596736597 L0.598526807,0.596736597 Z M4.60501632,5.51444289 C6.03718415,3.86148252 7.29570163,3.42347786 8.38176224,4.20221911 C10.0108531,5.37062937 10.0108531,7.1859021 8.38176224,8.40026107 C6.75267133,9.61521678 5.09971096,8.95104895 5.27455478,10.7412587 C5.4493986,12.5314685 3.99873193,14.4076084 3.22774825,14.3216783 C2.28967832,14.2172494 2.8714965,13.5984336 3.22774825,12.5768205 C3.49747319,11.8058368 4.60501632,10.3438322 4.60501632,9.54778555 C4.60501632,7.69611189 2.15421911,11.0778182 2.39112354,9.54778555 C2.62743124,8.01775291 4.24936131,7.33866667 4.60501632,6.56410256 C4.84192075,6.04792541 4.84192075,5.69764103 4.60501632,5.51444289 Z M0.598526807,0 L14.9202051,0 C15.2497737,0 15.5169417,0.267168075 15.5169417,0.596736597 L15.5169417,14.9184149 C15.5169417,15.2479834 15.2497737,15.5151515 14.9202051,15.5151515 L0.598526807,15.5151515 C0.268958284,15.5151515 0.00179020979,15.2479834 0.00179020979,14.9184149 L0.00179020979,0.596736597 C0.00179020979,0.267168075 0.268958284,0 0.598526807,0 Z" id="形状" fill="#6CFF00"></path>
        </g>
    </g>
</svg>