<?xml version="1.0" encoding="UTF-8"?>
<svg width="32px" height="32px" viewBox="0 0 32 32" version="1.1" xmlns="http://www.w3.org/2000/svg" xmlns:xlink="http://www.w3.org/1999/xlink">
    <!-- Generator: Sketch 63.1 (92452) - https://sketch.com -->
    <title>施工布置面</title>
    <desc>Created with Sketch.</desc>
    <g id="施工布置面" stroke="none" stroke-width="1" fill="none" fill-rule="evenodd">
        <g id="编组-14" transform="translate(7.000000, 9.000000)" fill-rule="nonzero">
            <polygon id="路径" fill="#F0F0F0" points="12.8099215 7.68274333e-14 16.0124018 7.68274333e-14 16.0124018 2.12854514 12.8099215 2.12854514"></polygon>
            <polygon id="路径" fill="#F0F0F0" points="6.40496074 7.68274333e-14 9.60744111 7.68274333e-14 9.60744111 2.12854514 6.40496074 2.12854514"></polygon>
            <polygon id="路径" fill="#F0F0F0" points="-1.36557432e-13 7.68274333e-14 3.20248036 7.68274333e-14 3.20248036 2.12854514 -1.36557432e-13 2.12854514"></polygon>
            <polygon id="路径" fill="#A0A0A0" points="6.40496074 3.19419809 12.8099215 3.19419809 12.8099215 6.38839619 6.40496074 6.38839619"></polygon>
            <polygon id="路径" fill="#A0A0A0" points="-2.17603713e-14 3.19419809 5.33765133 3.19419809 5.33765133 6.38839619 -2.17603713e-14 6.38839619"></polygon>
            <polygon id="路径" fill="#A0A0A0" points="13.877507 3.19419809 16.0124018 3.19419809 16.0124018 6.38839619 13.877507 6.38839619"></polygon>
            <polygon id="路径" fill="#F0F0F0" points="8.53985562 7.45404914 2.13489489 7.45404914 2.13489489 10.6482472 8.53985562 10.6482472"></polygon>
            <polygon id="路径" fill="#F0F0F0" points="16.0124018 7.45404914 9.60744111 7.45404914 9.60744111 10.6482472 16.0124018 10.6482472"></polygon>
            <polygon id="路径" fill="#F0F0F0" points="1.06758548 7.45404914 -1.69864123e-13 7.45404914 -1.69864123e-13 10.6482472 1.06758548 10.6482472"></polygon>
            <polygon id="路径" fill="#A0A0A0" points="6.40496074 11.7139002 12.8099215 11.7139002 12.8099215 14.9080983 6.40496074 14.9080983"></polygon>
            <polygon id="路径" fill="#A0A0A0" points="-2.17603713e-14 11.7139002 5.33765133 11.7139002 5.33765133 14.9080983 -2.17603713e-14 14.9080983"></polygon>
            <polygon id="路径" fill="#A0A0A0" points="13.877507 11.7139002 16.0124018 11.7139002 16.0124018 14.9080983 13.877507 14.9080983"></polygon>
        </g>
    </g>
</svg>